<svg width="395" height="125" viewBox="0 0 395 125" fill="none" xmlns="http://www.w3.org/2000/svg">
<path d="M105.5 81.4999L101 100.5L120.5 106.5L125.5 94.9999L120.5 83.9999L117 75.9999L105.5 81.4999Z" fill="#6D6E99"/>
<path d="M89 57.9999L70 71.9999L66 103H105L108 92.4999L111 76.4999L114 66.9999L89 57.9999Z" fill="#6D6E99"/>
<path d="M57.5412 55.6395L30.9831 72.0383L22.16 109.567L45.4693 121.522L62.5834 112.056L75.5588 112.855L83.2671 117.838L83.8817 107.857L74.6 87.7486L80.3895 75.0805L57.5412 55.6395Z" fill="#6D6E99"/>
<path d="M160.586 102.585L159.568 81.8835L140.575 64.7178L126.148 74.4376L126.164 87.4247L121.539 94.7133L116.169 97.5974L121.776 101.156L136.445 102.207L141.954 109.636L160.586 102.585Z" fill="#6D6E99"/>
<path d="M43.9015 111.092L35.4085 92.1848L11.4663 83.1213L1.57407 97.4304L6.32193 109.519L4.67064 117.992L0.721436 122.634L7.23927 123.905L21.2828 119.538L29.1209 124.448L43.9015 111.092Z" fill="#6D6E99"/>
<path d="M80.8015 22.0335L89.3017 98H100.231C99.8258 75.5718 105.088 35.7799 102.052 9.73429C99.5092 -12.0808 75.3371 7.56383 80.8015 22.0335Z" fill="#6D6E99"/>
<path d="M36.5817 45.0402L32.1468 90H26.4448C26.656 76.7262 23.9106 53.1759 25.4946 37.7611C26.8212 24.8501 39.4327 36.4766 36.5817 45.0402Z" fill="#6D6E99"/>
<path d="M383.024 83.5679L368.621 86.0009L357.762 102.011L379.307 112.893L383.894 107.929L390.016 99.9269L394.324 95.5156L383.024 83.5679Z" fill="#6D6E99"/>
</svg>
