<svg width="1259" height="425" viewBox="0 0 1259 425" fill="none" xmlns="http://www.w3.org/2000/svg">
<path d="M227.789 164L130.432 92L82 59.2912L85 52.5L76.5 34L71.5 36L69 30.5L71 20L74 10L49 1L33.5 12L21.5 0.5L6.5 2.5L-1 10V426H1259L1195 383.802L1200.5 366L1182 330L1158.5 337.5L1156 344L1120 336L1108 359L1111.5 366H1069L1007 338L966 344L695 286H524V274L505 268L496.5 272.5L490.5 262L453 253L441 275.5L441.974 278L353 204.888L361 186.5L340 170.5L321.5 177L309.5 173.5L302.5 167.5L300.459 175L227.789 164Z" fill="#E5D6C5"/>
</svg>
