<svg width="138" height="290" viewBox="0 0 138 290" fill="none" xmlns="http://www.w3.org/2000/svg">
<path d="M17.3016 228.581C12.6447 248.433 7.85227 268.056 3.82302 280.688C3.53624 281.79 3.27606 282.75 3.0472 283.54C3.51949 283.117 4.17619 282.645 5.08343 282.133C4.10306 284.856 3.2798 287.119 2.99212 287.767C2.6409 287.193 2.321 286.593 2.03104 285.97C2.03104 285.97 1.9822 285.904 1.94355 285.779C-7.82839 264.137 17.7203 214.231 22.9729 204.196C21.1489 212.041 19.2369 220.331 17.3016 228.581Z" fill="#E5D6C5"/>
<path d="M2.03103 285.97C11.5225 259.98 26.708 183.26 33.3014 163.277C39.8948 143.293 61.7589 71.4686 71.8668 38.0543M2.03103 285.97C2.99211 287.767 13.5005 236.459 17.367 228.443C22.6579 216.345 33.9986 200.62 42.5897 173.717C46.3142 162.053 77.3678 91.3643 88.2659 57.2194M2.03103 285.97C2.03103 285.97 -1.07583 281.798 22.6612 276.39C46.3983 270.982 45.5014 248.468 59.3108 226.633M2.99211 287.767C-9.7326 266.966 18.6432 212.439 23.2702 203.629C29.0538 192.618 38.8516 168.069 41.6458 159.891C44.4401 151.714 86.1403 26.9527 89.4628 12.4108M2.99211 287.767C3.77921 285.994 8.57526 272.13 9.62955 269.838M2.99211 287.767C35.7075 285.802 70.687 252.203 80.521 232.508C85.092 223.354 85.0962 194.718 91.0165 189.843M136.503 1.43358C134.21 5.68111 128.268 16.6491 122.847 26.5409C117.436 36.4165 64.5734 150.992 41.277 201.7M33.1628 219.39C31.8045 222.36 30.8971 224.352 30.5296 225.171C26.7601 233.577 16.1153 255.734 9.62955 269.838M33.1628 219.39C35.3974 217.297 39.3274 214.848 42.7877 211.477C53.5242 201.018 54.108 186.945 61.7765 178.895M33.1628 219.39C34.5123 216.44 36.3068 212.525 38.4589 207.837M41.277 201.7C44.8954 197.819 54.2632 182.982 64.6576 166.265C75.0521 149.549 84.9396 122.649 92.3261 96.6184M41.277 201.7C40.2817 203.866 39.3403 205.916 38.4589 207.837M38.4589 207.837C42.7425 196.409 49.8972 180.081 55.0848 169.31C60.2724 158.54 77.3574 102.855 83.6472 78.5552M9.62955 269.838C12.9821 267.511 15.2345 264.473 17.0817 264.171C17.4674 264.108 19.0091 262.023 21.2445 258.692M72.683 169.117C64.5072 176.848 55.4959 201.569 51.3914 209.384C48.1439 215.567 29.7144 246.072 21.2445 258.692M21.2445 258.692C22.9797 258.264 27.1508 256.788 29.9537 254.309C30.9012 253.471 33.3666 250.762 36.5255 247.136M76.1896 182.887C77.2566 192.364 68.5805 203.004 61.0497 216.536C58.6163 220.908 45.0473 237.356 36.5255 247.136M36.5255 247.136C37.326 245.202 39.7413 240.174 42.9994 235.543C47.0719 229.754 49.145 218.372 60.4273 207.004C66.6646 200.72 70.2823 188.947 71.5175 178.745" stroke="#E5D6C5" stroke-width="3"/>
</svg>
