<svg width="75" height="110" viewBox="0 0 75 110" fill="none" xmlns="http://www.w3.org/2000/svg">
<path d="M61.7624 81.0106C48.8239 104.064 35.6129 110.962 29.9003 108.662C23.6851 106.16 18.9205 87.3394 23.3751 64.6682C27.2836 44.7762 44.9755 34.2203 61.1871 36.743C77.3988 39.2657 71.7184 63.2711 61.7624 81.0106Z" fill="#E5D6C5"/>
<path d="M36.7692 23.3809C42.1615 37.6934 39.2812 46.8881 35.3739 49.144C31.1229 51.5983 19.3463 47.9757 10.065 38.2501C1.92139 29.7167 5.11391 16.9738 14.1849 9.26833C23.2559 1.56284 32.6199 12.3677 36.7692 23.3809Z" fill="#E5D6C5"/>
<path d="M7.54352 10.2289C10.0084 12.0041 11.0954 14.7083 9.97144 16.2689C8.84751 17.8294 5.93823 17.6554 3.47339 15.8802C1.00855 14.105 -1.26712 13.0512 1.04547 9.84025C3.35805 6.62929 5.07868 8.45369 7.54352 10.2289Z" fill="#E5D6C5"/>
<path d="M14.8586 6.59366C16.5373 9.12526 16.5987 12.0391 14.9959 13.1019C13.393 14.1647 10.7329 12.974 9.05426 10.4424C7.37563 7.91076 5.61906 6.12091 8.91701 3.93414C12.2149 1.74738 13.18 4.06206 14.8586 6.59366Z" fill="#E5D6C5"/>
<path d="M72.9644 39.2724C71.434 41.8962 68.8466 43.2378 67.1853 42.2688C65.5241 41.2998 65.4181 38.3872 66.9486 35.7634C68.479 33.1396 69.3095 30.7733 72.7276 32.767C76.1457 34.7608 74.4949 36.6486 72.9644 39.2724Z" fill="#E5D6C5"/>
<path d="M59.3452 35.3198C58.6459 38.2758 56.5618 40.3131 54.6903 39.8703C52.8188 39.4275 51.8686 36.6723 52.5679 33.7164C53.2673 30.7604 53.3721 28.2548 57.2229 29.1658C61.0736 30.0769 60.0446 32.3639 59.3452 35.3198Z" fill="#E5D6C5"/>
<path d="M24.6054 6.31678C24.232 9.33131 22.3821 11.5834 20.4735 11.347C18.5649 11.1106 17.3204 8.47515 17.6938 5.46063C18.0672 2.4461 17.8987 -0.0560307 21.8258 0.430421C25.7528 0.916871 24.9788 3.30225 24.6054 6.31678Z" fill="#E5D6C5"/>
</svg>
