<svg width="64" height="141" viewBox="0 0 64 141" fill="none" xmlns="http://www.w3.org/2000/svg">
<path d="M36.649 122.407C24.5835 131.29 14.4229 135.902 6.76576 137.688C2.93615 138.582 -0.223225 138.758 -2.66174 138.442C-5.11555 138.123 -6.72441 137.323 -7.62724 136.38C-8.57594 135.388 -9.29234 133.432 -9.42597 130.396C-9.55709 127.418 -9.11477 123.644 -8.02322 119.313C-5.84204 110.661 -1.11726 99.9802 6.45092 89.3518C8.18939 86.9104 10.099 84.7509 12.1388 82.8654C14.4389 83.2057 16.5467 83.0565 18.1757 82.1731C19.9493 81.2113 21.3644 79.398 22.3623 77.0083C22.5137 76.6457 22.6566 76.2673 22.7907 75.8733C34.2262 70.8779 47.1903 72.0483 56.9886 78.4558C60.5559 80.7886 62.1493 83.7062 62.4098 86.9659C62.6775 90.3146 61.5494 94.2009 59.2762 98.3679C54.7317 106.698 45.924 115.579 36.649 122.407ZM20.311 73.7081C17.1321 75.2304 14.0799 77.2035 11.2439 79.6431C8.70075 79.0566 5.61924 77.8103 2.21432 75.8907C-4.6602 72.0149 -12.6798 65.4922 -19.9947 56.5492C-32.4999 41.2604 -29.4014 21.5136 -17.5349 10.9956C-14.742 8.52022 -11.9259 7.85606 -9.13099 8.38393C-6.24836 8.92838 -3.21511 10.777 -0.19257 13.6835C2.15616 15.9421 4.42764 18.7711 6.54268 21.9449C6.2752 23.6219 6.20509 25.1584 6.34544 26.4653C6.49789 27.8849 6.92747 29.2944 7.90492 30.1949C8.77053 30.9925 9.97557 31.3784 11.2816 31.4649C11.5016 31.4794 11.7279 31.4858 11.9602 31.484C13.0937 33.819 14.1315 36.2103 15.0524 38.5975C19.8295 50.9811 21.3961 60.7287 21.1377 67.6686C21.05 70.0249 20.7527 72.0367 20.311 73.7081ZM16.7456 79.5359C16.4769 79.6816 16.1539 79.8004 15.7758 79.8853C16.5725 79.3092 17.3836 78.7692 18.2069 78.2649C17.7253 78.8601 17.2274 79.2746 16.7456 79.5359ZM15.0018 27.9558C14.5441 28.0934 14.1147 28.2009 13.714 28.282C12.4746 25.8698 11.1333 23.5225 9.71015 21.307C10.4167 17.9196 12.0037 13.7484 14.6337 9.51408C19.2152 2.13785 27.8284 0.653331 33.8286 4.05826C35.1267 4.79486 35.6765 5.71828 35.8254 6.75415C35.987 7.87842 35.6971 9.31408 34.9121 10.9971C33.3438 14.3594 30.076 18.12 26.5134 21.1061C21.872 24.9964 17.9405 27.0718 15.0018 27.9558ZM9.38797 26.5806C9.69243 27.118 9.99219 27.6613 10.2869 28.2095C10.1259 28.1359 10.0126 28.0576 9.93769 27.9886C9.78426 27.8472 9.53357 27.44 9.38797 26.5806Z" fill="#E5D6C5" stroke="#E5D6C5" stroke-width="3"/>
</svg>
