<svg width="278" height="348" viewBox="0 0 278 348" fill="none" xmlns="http://www.w3.org/2000/svg">
<path d="M263.762 81.0106C250.824 104.064 237.613 110.962 231.9 108.662C225.685 106.16 220.92 87.3394 225.375 64.6682C229.284 44.7762 246.975 34.2203 263.187 36.743C279.399 39.2657 273.718 63.2711 263.762 81.0106Z" fill="#8D8EB4"/>
<path d="M238.769 23.3809C244.161 37.6934 241.281 46.8881 237.374 49.144C233.123 51.5983 221.346 47.9757 212.065 38.2501C203.921 29.7167 207.114 16.9738 216.185 9.26833C225.256 1.56284 234.62 12.3677 238.769 23.3809Z" fill="#8D8EB4"/>
<path d="M209.544 10.2289C212.008 12.0041 213.095 14.7083 211.971 16.2689C210.848 17.8294 207.938 17.6554 205.473 15.8802C203.009 14.105 200.733 13.0512 203.045 9.84025C205.358 6.62929 207.079 8.45369 209.544 10.2289Z" fill="#8D8EB4"/>
<path d="M216.859 6.59366C218.537 9.12526 218.599 12.0391 216.996 13.1019C215.393 14.1647 212.733 12.974 211.054 10.4424C209.376 7.91076 207.619 6.12091 210.917 3.93414C214.215 1.74738 215.18 4.06206 216.859 6.59366Z" fill="#8D8EB4"/>
<path d="M274.964 39.2724C273.434 41.8962 270.847 43.2378 269.185 42.2688C267.524 41.2998 267.418 38.3872 268.949 35.7634C270.479 33.1396 271.31 30.7733 274.728 32.767C278.146 34.7608 276.495 36.6486 274.964 39.2724Z" fill="#8D8EB4"/>
<path d="M261.345 35.3198C260.646 38.2758 258.562 40.3131 256.69 39.8703C254.819 39.4275 253.869 36.6723 254.568 33.7164C255.267 30.7604 255.372 28.2548 259.223 29.1658C263.074 30.0769 262.045 32.3639 261.345 35.3198Z" fill="#8D8EB4"/>
<path d="M226.605 6.31678C226.232 9.33131 224.382 11.5834 222.473 11.347C220.565 11.1106 219.32 8.47515 219.694 5.46063C220.067 2.4461 219.899 -0.0560307 223.826 0.430421C227.753 0.916871 226.979 3.30225 226.605 6.31678Z" fill="#8D8EB4"/>
</svg>
