<svg width="64" height="141" viewBox="0 0 64 141" fill="none" xmlns="http://www.w3.org/2000/svg">
<path d="M12.7101 28.4385L10.5597 28.665L11.525 30.5999C12.8325 33.2204 14.018 35.9162 15.0524 38.5976C21.6756 55.767 22.106 67.8068 20.1315 74.343L19.1706 77.5239L22.1918 76.1406C33.769 70.84 47.0176 71.9354 56.9886 78.4559C60.5559 80.7887 62.1493 83.7063 62.4098 86.966C62.6775 90.3147 61.5494 94.201 59.2762 98.368C54.7317 106.698 45.924 115.579 36.649 122.407C24.5835 131.29 14.4229 135.902 6.76576 137.688C2.93615 138.582 -0.223225 138.758 -2.66174 138.442C-5.11555 138.123 -6.72441 137.323 -7.62724 136.38C-8.57594 135.388 -9.29234 133.432 -9.42597 130.396C-9.55709 127.418 -9.11477 123.644 -8.02322 119.314C-5.84204 110.661 -1.11726 99.9803 6.45092 89.3519C8.3414 86.697 10.4315 84.3788 12.6676 82.3848L14.9403 80.3581L11.9484 79.7914C8.14013 79.0701 2.99275 76.7484 -2.66525 72.8152C-8.30024 68.8981 -14.3585 63.4399 -19.9947 56.5493C-32.4999 41.2605 -29.4014 21.5137 -17.5349 10.9957C-15.5481 9.23481 -13.5684 8.40935 -11.6324 8.2458C-9.68222 8.08105 -7.64162 8.57706 -5.53377 9.68739C-1.27397 11.9313 3.02437 16.5622 6.86627 22.4351L8.91905 25.5731L9.59683 21.8851C10.2372 18.4008 11.8521 13.9929 14.6339 9.51408C19.2153 2.13785 27.8286 0.653332 33.8288 4.05826C35.1268 4.79486 35.6767 5.71828 35.8256 6.75415C35.9872 7.87842 35.6972 9.31408 34.9123 10.9971C33.344 14.3594 30.0762 18.12 26.5135 21.1061C20.4863 26.1579 15.6874 28.1249 12.7101 28.4385Z" fill="#8D8EB4" stroke="#8D8EB4" stroke-width="3"/>
</svg>
