<svg width="62" height="31" viewBox="0 0 62 31" fill="none" xmlns="http://www.w3.org/2000/svg">
<path fill-rule="evenodd" clip-rule="evenodd" d="M60.0729 0.411395C60.0748 0.274505 60.0758 0.137372 60.0758 5.00679e-06L61.0758 5.48363e-06C61.0758 16.9973 47.4163 30.7993 30.5381 30.7993C13.6599 30.7993 0.000364725 16.9973 0.000366211 0L1.00037 2.38419e-07C1.00037 0.165064 1.00179 0.329787 1.00463 0.494162C1.13312 7.86248 6.14146 13.0706 10.8846 16.5025C15.799 20.0583 22.7117 21.7993 30.5381 21.7993C38.3645 21.7993 45.2772 20.0583 50.1916 16.5025C54.9525 13.0577 59.9655 7.8235 60.0729 0.411395Z" fill="#C4C6FC"/>
<circle cx="14.1439" cy="9.49951" r="4.5" fill="#C4C6FC"/>
<circle cx="28.6439" cy="15.9995" r="3" fill="#C4C6FC"/>
<circle cx="22.6439" cy="5.99951" r="2" fill="#C4C6FC"/>
</svg>
