<svg width="131" height="58" viewBox="0 0 131 58" fill="none" xmlns="http://www.w3.org/2000/svg">
<path d="M115.41 38.8746V44.2973H131V38.8746H126.425V0.915039H115.41V6.33783H120.832V38.8746H115.41Z" fill="#3F2B46"/>
<path fill-rule="evenodd" clip-rule="evenodd" d="M115.577 44.2977H105.748V40.4C104.054 41.5863 99.2072 44.6366 94.7334 44.6366C89.1412 44.6366 85.9214 40.5695 85.9214 35.4856C85.9214 30.4018 89.1412 25.6568 96.0891 25.6568C101.173 25.6568 104.732 27.6904 105.41 28.3682V23.2843C105.071 21.7027 103.512 18.5394 98.631 18.5394C93.7505 18.5394 92.3609 20.9119 91.8526 21.9286L86.4298 20.4035C87.4465 18.144 91.412 13.625 99.1394 13.625C106.867 13.625 110.041 18.3699 110.663 20.9119V38.8749H115.577V44.2977ZM105.309 34.2268C105.29 35.4804 103.559 37.5225 99.0596 38.4857C95.5973 39.2268 91.6875 39.3417 91.7439 35.6532C91.8003 31.9647 94.3486 30.1464 98.3439 30.637C102.339 31.1277 105.328 32.9732 105.309 34.2268Z" fill="#3F2B46"/>
<path fill-rule="evenodd" clip-rule="evenodd" d="M50.1211 57.854V52.4313H55.5439V19.5556H50.46V14.4717H61.3056V18.8778C62.6048 17.0702 66.4911 14.1328 71.6428 14.1328C78.0823 14.1328 86.2165 18.1999 86.2165 29.2149C86.2165 40.23 78.2518 44.9749 71.6428 44.9749C66.3556 44.9749 62.5483 42.0376 61.3056 40.5689V52.4313H66.7284V57.854H50.1211ZM70.7952 39.8913C76.1299 39.8913 80.4545 35.2632 80.4545 29.5541C80.4545 23.8451 76.1299 19.2169 70.7952 19.2169C65.4605 19.2169 61.1359 23.8451 61.1359 29.5541C61.1359 35.2632 65.4605 39.8913 70.7952 39.8913Z" fill="#3F2B46"/>
<path d="M44.3118 44.481C40.2003 44.2629 38.3263 42.8933 38.2538 41.9369C38.1748 40.8964 40.475 38.9337 43.9484 37.9932C46.996 37.168 49.6897 38.9114 50.4548 41.3494C51.2198 43.7875 47.4756 44.6488 44.3118 44.481Z" fill="#5DA06D"/>
<path fill-rule="evenodd" clip-rule="evenodd" d="M40.5459 37.1797C46.9101 37.1797 52.0693 32.0204 52.0693 25.6562C52.0693 19.292 46.9101 14.1328 40.5459 14.1328C34.1817 14.1328 29.0225 19.292 29.0225 25.6562C29.0225 32.0204 34.1817 37.1797 40.5459 37.1797ZM40.5457 31.7572C43.915 31.7572 46.6464 29.0258 46.6464 25.6566C46.6464 22.2873 43.915 19.5559 40.5457 19.5559C37.1764 19.5559 34.4451 22.2873 34.4451 25.6566C34.4451 29.0258 37.1764 31.7572 40.5457 31.7572Z" fill="#3F2B46"/>
<path d="M0.000488281 38.8743V44.2971H15.7605V38.8743H10.8461V23.1144C11.5239 22.2671 15.7605 19.5557 19.4886 19.5557C22.4712 19.5557 23.0473 21.5892 23.0473 23.1144L23.2168 44.2971H33.8929V38.8743H28.4701V19.8946C28.4701 17.6916 25.9282 13.7939 21.0138 13.7939C17.0823 13.7939 12.4842 16.8443 10.8461 18.0305V14.4718H0.000488281V19.5557H4.91489V38.8743H0.000488281Z" fill="#3F2B46"/>
</svg>
