<svg width="131" height="57" viewBox="0 0 131 57" fill="none" xmlns="http://www.w3.org/2000/svg">
<path d="M115.409 37.9595V43.3823H131V37.9595H126.424V0H115.409V5.42279H120.832V37.9595H115.409Z" fill="white"/>
<path fill-rule="evenodd" clip-rule="evenodd" d="M115.577 43.3826H105.748V39.485C104.053 40.6712 99.2067 43.7215 94.7329 43.7215C89.1407 43.7215 85.9209 39.6544 85.9209 34.5706C85.9209 29.4867 89.1407 24.7418 96.0886 24.7418C101.172 24.7418 104.731 26.7753 105.409 27.4532V22.3693C105.07 20.7877 103.511 17.6244 98.6306 17.6244C93.7501 17.6244 92.3605 19.9968 91.8521 21.0136L86.4293 19.4884C87.4461 17.229 91.4115 12.71 99.1389 12.71C106.866 12.71 110.041 17.4549 110.662 19.9968V37.9598H115.577V43.3826ZM105.309 33.3117C105.289 34.5653 103.559 36.6075 99.0591 37.5706C95.5968 38.3118 91.687 38.4266 91.7434 34.7382C91.7998 31.0497 94.3481 29.2313 98.3434 29.722C102.339 30.2126 105.328 32.0581 105.309 33.3117Z" fill="white"/>
<path fill-rule="evenodd" clip-rule="evenodd" d="M50.1206 56.939V51.5162H55.5434V18.6406H50.4595V13.5567H61.3051V17.9627C62.6043 16.1551 66.4907 13.2178 71.6423 13.2178C78.0819 13.2178 86.216 17.2849 86.216 28.2999C86.216 39.3149 78.2513 44.0599 71.6423 44.0599C66.3551 44.0599 62.5478 41.1225 61.3051 39.6539V51.5162H66.7279V56.939H50.1206ZM70.7947 38.9763C76.1294 38.9763 80.4541 34.3482 80.4541 28.6391C80.4541 22.93 76.1294 18.3019 70.7947 18.3019C65.46 18.3019 61.1354 22.93 61.1354 28.6391C61.1354 34.3482 65.46 38.9763 70.7947 38.9763Z" fill="white"/>
<path d="M44.3113 43.5659C40.1998 43.3479 38.3259 41.9782 38.2533 41.0219C38.1743 39.9814 40.4745 38.0187 43.9479 37.0782C46.9955 36.253 49.6892 37.9963 50.4543 40.4344C51.2194 42.8725 47.4751 43.7337 44.3113 43.5659Z" fill="#5DA06D"/>
<path fill-rule="evenodd" clip-rule="evenodd" d="M40.5454 36.2646C46.9096 36.2646 52.0688 31.1054 52.0688 24.7412C52.0688 18.377 46.9096 13.2178 40.5454 13.2178C34.1812 13.2178 29.022 18.377 29.022 24.7412C29.022 31.1054 34.1812 36.2646 40.5454 36.2646ZM40.5452 30.8422C43.9145 30.8422 46.6459 28.1108 46.6459 24.7415C46.6459 21.3722 43.9145 18.6409 40.5452 18.6409C37.1759 18.6409 34.4446 21.3722 34.4446 24.7415C34.4446 28.1108 37.1759 30.8422 40.5452 30.8422Z" fill="white"/>
<path d="M0 37.9593V43.3821H15.76V37.9593H10.8456V22.1993C11.5234 21.352 15.76 18.6406 19.4881 18.6406C22.4707 18.6406 23.0469 20.6742 23.0469 22.1993L23.2163 43.3821H33.8924V37.9593H28.4696V18.9795C28.4696 16.7765 25.9277 12.8789 21.0133 12.8789C17.0818 12.8789 12.4837 15.9292 10.8456 17.1155V13.5568H0V18.6406H4.9144V37.9593H0Z" fill="white"/>
</svg>
