<svg width="143" height="70" viewBox="0 0 143 70" fill="none" xmlns="http://www.w3.org/2000/svg">
<path d="M41.8564 -2.05743e-05C41.8564 16.1816 54.8571 29.2993 70.8942 29.2993C86.9312 29.2993 99.9319 16.1816 99.9319 -1.54972e-05" stroke="#FCF0C4" stroke-width="3"/>
<line x1="142.834" y1="1.5" x2="105.164" y2="1.5" stroke="#FCF0C4" stroke-width="3"/>
<line x1="129.04" y1="19.6877" x2="101.993" y2="12.4077" stroke="#FCF0C4" stroke-width="3"/>
<line x1="130.218" y1="39.9743" x2="97.6762" y2="21.1861" stroke="#FCF0C4" stroke-width="3"/>
<line x1="118.926" y1="57.3215" x2="89.2699" y2="27.9948" stroke="#FCF0C4" stroke-width="3"/>
<line x1="90.0602" y1="53.6042" x2="79.7414" y2="31.9686" stroke="#FCF0C4" stroke-width="3"/>
<line y1="-1.5" x2="37.6706" y2="-1.5" transform="matrix(1 8.74228e-08 8.74228e-08 -1 0.000244141 0)" stroke="#FCF0C4" stroke-width="3"/>
<line y1="-1.5" x2="28.0181" y2="-1.5" transform="matrix(0.965654 -0.259831 -0.259975 -0.965615 13.4087 18.2393)" stroke="#FCF0C4" stroke-width="3"/>
<line y1="-1.5" x2="37.5848" y2="-1.5" transform="matrix(0.86609 -0.499888 -0.500112 -0.865961 11.8699 38.6753)" stroke="#FCF0C4" stroke-width="3"/>
<line y1="-1.5" x2="41.7142" y2="-1.5" transform="matrix(0.711153 -0.703037 -0.70325 -0.710943 22.8606 56.2549)" stroke="#FCF0C4" stroke-width="3"/>
<line y1="-1.5" x2="23.9716" y2="-1.5" transform="matrix(0.430587 -0.902549 -0.902649 -0.430377 51.436 52.9585)" stroke="#FCF0C4" stroke-width="3"/>
<line x1="69.9173" y1="69.0182" x2="69.4779" y2="32.7603" stroke="#FCF0C4" stroke-width="3"/>
</svg>
