<svg width="448" height="128" viewBox="0 0 448 128" fill="none" xmlns="http://www.w3.org/2000/svg">
<path d="M182.737 25.8246L315.368 0L448 25.8246V30.1287H421.053V77.4737H209.684V30.1287H182.737V25.8246Z" fill="#8D8EB4"/>
<path d="M44.6316 37.0523L96 16.8418L147.368 37.0523V40.4207H136.932V77.4734H55.0684V40.4207H44.6316V37.0523Z" fill="#8D8EB4"/>
<rect x="139.421" y="70.7373" width="68" height="6.73684" fill="#8D8EB4"/>
<path d="M151.579 106.667L280.842 128L421.053 106.667V103.111H394.105L421.053 77.4736H209.684L178.526 103.111H151.579V106.667Z" fill="#6D6E99"/>
<path d="M0 97.1228L48 113.684L116.211 97.1228V94.3625H105.774L136.932 77.4736H55.0683L10.4368 94.3625H0V97.1228Z" fill="#6D6E99"/>
<path d="M122.947 83.3684H210.526V77.4736H136.421L122.947 83.3684Z" fill="#6D6E99"/>
</svg>
