<svg width="172" height="53" viewBox="0 0 172 53" fill="none" xmlns="http://www.w3.org/2000/svg">
<path d="M4.552 10.3738L4.4119 9.65495L5.8842 9.36802L6.39529 11.9906L4.92299 12.2775C4.77945 11.8677 4.57978 11.5783 4.32397 11.4092C4.07125 11.2356 3.77619 11.1817 3.43879 11.2474C3.20107 11.2938 3.01094 11.4005 2.86839 11.5675C2.72584 11.7346 2.67437 11.9198 2.71397 12.123C2.74909 12.3032 2.83303 12.448 2.96579 12.5574C3.09855 12.6669 3.25825 12.7512 3.44488 12.8103C3.63077 12.8656 3.90699 12.9351 4.27353 13.0189L4.65349 13.1001C5.48074 13.2811 6.13133 13.5563 6.60525 13.9256C7.08301 14.2941 7.38689 14.812 7.51691 15.4791C7.67158 16.2728 7.566 16.946 7.20015 17.4989C6.83355 18.0479 6.26493 18.3975 5.49427 18.5477C4.74278 18.6941 4.10316 18.5263 3.5754 18.0441L3.71999 18.786L2.24769 19.0729L1.67383 16.1283L3.14613 15.8414C3.27618 16.3453 3.48238 16.7091 3.76473 16.9327C4.05017 17.1516 4.39035 17.2226 4.78526 17.1457C5.04982 17.0941 5.25464 16.9607 5.39972 16.7454C5.54864 16.5293 5.59807 16.2928 5.548 16.0359C5.49719 15.7752 5.34543 15.558 5.09271 15.3844C4.84307 15.2062 4.44583 15.0568 3.90097 14.9361C2.97273 14.727 2.27277 14.4436 1.80109 14.0858C1.33324 13.7273 1.0444 13.2662 0.93456 12.7026C0.848631 12.2616 0.871777 11.8393 1.004 11.4354C1.13622 11.0316 1.36045 10.6914 1.67667 10.4148C1.99598 10.1337 2.36651 9.95208 2.78826 9.86988C3.12567 9.80413 3.44585 9.81337 3.7488 9.8976C4.05176 9.98182 4.31949 10.1406 4.552 10.3738Z" fill="#A63B31"/>
<path d="M14.0029 14.0658L9.49398 14.9445C9.6304 15.3995 9.86125 15.7366 10.1865 15.9557C10.5149 16.1703 10.8957 16.2354 11.3289 16.151C11.8082 16.0576 12.2296 15.7287 12.5933 15.1644L14.1827 15.356C13.9494 15.9149 13.6135 16.3664 13.1751 16.7105C12.736 17.0508 12.1829 17.2859 11.5158 17.4159C10.8486 17.546 10.2339 17.5364 9.67156 17.3873C9.11231 17.2337 8.64599 16.9544 8.27259 16.5496C7.90304 16.1441 7.65774 15.6307 7.53669 15.0096C7.41713 14.3961 7.45448 13.8118 7.64874 13.2566C7.84683 12.7006 8.16782 12.2341 8.61171 11.8571C9.05868 11.4755 9.57548 11.2275 10.1621 11.1132C10.7986 10.9891 11.3814 11.0288 11.9105 11.2321C12.4389 11.4316 12.8823 11.777 13.2407 12.2683C13.6022 12.755 13.8563 13.3542 14.0029 14.0658ZM10.32 12.4136C9.97495 12.4809 9.71641 12.6347 9.54438 12.8752C9.3762 13.1149 9.30524 13.4452 9.33152 13.8659L11.8505 13.3749C11.7266 13.025 11.5222 12.7624 11.2373 12.5871C10.9555 12.4072 10.6498 12.3494 10.32 12.4136Z" fill="#A63B31"/>
<path d="M20.3559 12.8277L15.847 13.7064C15.9834 14.1614 16.2142 14.4985 16.5395 14.7176C16.8679 14.9322 17.2487 14.9973 17.6819 14.9129C18.1612 14.8195 18.5826 14.4906 18.9462 13.9262L20.5357 14.1179C20.3023 14.6768 19.9665 15.1283 19.5281 15.4724C19.089 15.8127 18.5359 16.0478 17.8688 16.1778C17.2016 16.3079 16.5869 16.2983 16.0245 16.1492C15.4653 15.9956 14.999 15.7163 14.6256 15.3115C14.256 14.906 14.0107 14.3926 13.8897 13.7715C13.7701 13.158 13.8075 12.5737 14.0017 12.0185C14.1998 11.4625 14.5208 10.996 14.9647 10.619C15.4117 10.2374 15.9285 9.9894 16.5151 9.87508C17.1515 9.75104 17.7343 9.79068 18.2635 9.994C18.7919 10.1935 19.2353 10.5389 19.5937 11.0302C19.9552 11.5169 20.2092 12.1161 20.3559 12.8277ZM16.673 11.1755C16.3279 11.2428 16.0694 11.3966 15.8974 11.6371C15.7292 11.8768 15.6582 12.207 15.6845 12.6278L18.2035 12.1368C18.0796 11.7869 17.8752 11.5243 17.5903 11.349C17.3085 11.1691 17.0027 11.1113 16.673 11.1755Z" fill="#A63B31"/>
<path d="M27.8045 12.6476L28.0758 14.0394L25.1714 14.6054L25.0313 13.8865C24.5846 14.5347 24.0506 14.9194 23.4295 15.0404C22.9196 15.1398 22.4425 15.0915 21.9984 14.8955C21.5535 14.6956 21.1732 14.3777 20.8574 13.9418C20.5454 13.5051 20.3323 12.9935 20.218 12.4069C20.0999 11.8011 20.1038 11.2392 20.2297 10.7212C20.3595 10.2024 20.5998 9.7715 20.9509 9.42848C21.3011 9.08164 21.7236 8.86002 22.2182 8.76363C22.9275 8.6254 23.5637 8.78596 24.1268 9.24532L23.7525 7.32443L22.7978 7.51048L22.5276 6.12445L25.3975 5.56516L26.8153 12.8404L27.8045 12.6476ZM23.703 13.4111C24.0787 13.3379 24.3432 13.1331 24.4966 12.7968C24.653 12.4559 24.6853 12.0497 24.5934 11.5781C24.5015 11.1065 24.3171 10.7424 24.0403 10.486C23.7673 10.2287 23.4429 10.1367 23.0672 10.21C22.7029 10.281 22.4426 10.4869 22.2862 10.8278C22.1297 11.1687 22.0967 11.5711 22.1871 12.0351C22.2783 12.5028 22.4607 12.8672 22.7345 13.1283C23.0082 13.3893 23.331 13.4836 23.703 13.4111Z" fill="#A63B31"/>
<path d="M37.5861 4.71799L36.4704 4.93543L36.1835 3.46312L40.054 2.70881L40.3409 4.18111L39.1332 4.41649L40.5466 11.6687L38.6257 12.0431L33.6228 6.34403L34.5778 11.244L35.6647 11.0322L35.9517 12.5045L32.1559 13.2442L31.8689 11.7719L33.0364 11.5444L31.9212 5.822L30.7537 6.04952L30.4668 4.57722L34.1073 3.86774L38.355 8.66329L37.5861 4.71799Z" fill="#A63B31"/>
<path d="M46.3135 7.34512C46.4308 7.94707 46.3947 8.51725 46.2051 9.05564C46.0155 9.59403 45.7057 10.0464 45.2757 10.4128C44.8456 10.7792 44.3411 11.0188 43.7622 11.1316C43.1487 11.2511 42.5739 11.2219 42.0378 11.0438C41.5016 10.8657 41.0503 10.5617 40.684 10.1316C40.3214 9.70083 40.0815 9.18446 39.9642 8.5825C39.8476 7.98438 39.8807 7.41879 40.0633 6.88572C40.2498 6.35191 40.56 5.90145 40.9939 5.53433C41.427 5.16338 41.9388 4.92036 42.5293 4.80529C43.1312 4.68798 43.7006 4.72028 44.2375 4.90218C44.7737 5.08026 45.2246 5.3824 45.5902 5.80861C45.9558 6.23483 46.1969 6.74699 46.3135 7.34512ZM43.4581 9.63277C43.8339 9.55954 44.0988 9.35669 44.2529 9.0242C44.4101 8.68713 44.4352 8.24445 44.3284 7.69617C44.2282 7.1824 44.0428 6.80266 43.772 6.55694C43.5044 6.30665 43.1788 6.21886 42.7954 6.29358C42.4082 6.36905 42.1429 6.56999 41.9996 6.8964C41.8555 7.21898 41.8395 7.66783 41.9516 8.24295C42.0465 8.72988 42.2304 9.10196 42.5034 9.35917C42.7795 9.61181 43.0977 9.70301 43.4581 9.63277Z" fill="#A63B31"/>
<path d="M46.9157 10.3678L46.5066 8.26859L48.6 7.86061L49.0091 9.95979L46.9157 10.3678Z" fill="#A63B31"/>
<path d="M54.7253 7.30562L55.0145 8.78943L50.5976 9.65022L50.3084 8.16642L51.4989 7.9344L50.3882 2.23499L49.1172 2.48269L48.828 0.998887L52.2097 0.339844L53.6096 7.52306L54.7253 7.30562Z" fill="#A63B31"/>
<path d="M1.4491 19.1796L86.4162 2.63574L171.383 19.1796V21.9369L154.12 27.1357V52.2673H18.7123V27.1357L1.4491 21.9369V19.1796Z" fill="#FCF0C4"/>
<path d="M1.44922 19.1796L86.4163 2.63574L171.383 19.1796V21.9369H154.12V52.2673H18.7124V21.9369H1.44922V19.1796Z" fill="#FFEAA4"/>
</svg>
