<svg width="155" height="116" viewBox="0 0 155 116" fill="none" xmlns="http://www.w3.org/2000/svg">
<path d="M76 2C76 0.89543 76.8954 0 78 0H121C122.105 0 123 0.89543 123 2V94H76V2Z" fill="#6D6E99"/>
<path d="M13.8337 98.9079C11.531 99.0897 11.3188 102.383 13.5791 102.859L75.3457 115.862C75.7703 115.952 76.2126 115.901 76.6056 115.717L123 94H76L13.8337 98.9079Z" fill="#8D8EB4"/>
<path d="M97.4883 64.9023V64.1699H98.9883V66.8418H97.4883C97.4258 66.4121 97.2852 66.0898 97.0664 65.875C96.8516 65.6562 96.5723 65.5469 96.2285 65.5469C95.9863 65.5469 95.7793 65.6152 95.6074 65.752C95.4355 65.8887 95.3496 66.0605 95.3496 66.2676C95.3496 66.4512 95.4043 66.6094 95.5137 66.7422C95.623 66.875 95.7637 66.9883 95.9355 67.082C96.1074 67.1719 96.3652 67.293 96.709 67.4453L97.0664 67.5977C97.8438 67.9336 98.4297 68.3281 98.8242 68.7813C99.2227 69.2344 99.4219 69.8008 99.4219 70.4805C99.4219 71.2891 99.1895 71.9297 98.7246 72.4023C98.2598 72.8711 97.6348 73.1055 96.8496 73.1055C96.084 73.1055 95.4883 72.8184 95.0625 72.2441V73H93.5625V70H95.0625C95.0937 70.5195 95.2266 70.916 95.4609 71.1895C95.6992 71.459 96.0195 71.5938 96.4219 71.5938C96.6914 71.5938 96.918 71.502 97.1016 71.3184C97.2891 71.1348 97.3828 70.9121 97.3828 70.6504C97.3828 70.3848 97.2754 70.1426 97.0605 69.9238C96.8496 69.7012 96.4883 69.4785 95.9766 69.2559C95.1055 68.873 94.4727 68.4609 94.0781 68.0195C93.6875 67.5781 93.4922 67.0703 93.4922 66.4961C93.4922 66.0469 93.5957 65.6367 93.8027 65.2656C94.0098 64.8945 94.2949 64.6035 94.6582 64.3926C95.0254 64.1777 95.4238 64.0703 95.8535 64.0703C96.1973 64.0703 96.5098 64.1406 96.791 64.2812C97.0723 64.4219 97.3047 64.6289 97.4883 64.9023ZM106.898 70.334L102.305 70.334C102.352 70.8066 102.514 71.1816 102.791 71.459C103.072 71.7324 103.434 71.8691 103.875 71.8691C104.363 71.8691 104.84 71.627 105.305 71.1426L106.828 71.6348C106.492 72.1387 106.076 72.5176 105.58 72.7715C105.084 73.0215 104.496 73.1465 103.816 73.1465C103.137 73.1465 102.535 73.0195 102.012 72.7656C101.492 72.5078 101.088 72.1445 100.799 71.6758C100.514 71.207 100.371 70.6563 100.371 70.0234C100.371 69.3984 100.52 68.832 100.816 68.3242C101.117 67.8164 101.521 67.4199 102.029 67.1348C102.541 66.8457 103.096 66.7012 103.693 66.7012C104.342 66.7012 104.906 66.8516 105.387 67.1523C105.867 67.4492 106.236 67.873 106.494 68.4238C106.756 68.9707 106.891 69.6074 106.898 70.334ZM103.6 68.0078C103.248 68.0078 102.965 68.1094 102.75 68.3125C102.539 68.5156 102.406 68.8262 102.352 69.2441H104.918C104.863 68.877 104.713 68.5801 104.467 68.3535C104.225 68.123 103.936 68.0078 103.6 68.0078ZM114.211 70.334L109.617 70.334C109.664 70.8066 109.826 71.1816 110.104 71.459C110.385 71.7324 110.746 71.8691 111.187 71.8691C111.676 71.8691 112.152 71.627 112.617 71.1426L114.141 71.6348C113.805 72.1387 113.389 72.5176 112.893 72.7715C112.396 73.0215 111.809 73.1465 111.129 73.1465C110.449 73.1465 109.848 73.0195 109.324 72.7656C108.805 72.5078 108.4 72.1445 108.111 71.6758C107.826 71.207 107.684 70.6563 107.684 70.0234C107.684 69.3984 107.832 68.832 108.129 68.3242C108.43 67.8164 108.834 67.4199 109.342 67.1348C109.854 66.8457 110.408 66.7012 111.006 66.7012C111.654 66.7012 112.219 66.8516 112.699 67.1523C113.18 67.4492 113.549 67.873 113.807 68.4238C114.068 68.9707 114.203 69.6074 114.211 70.334ZM110.912 68.0078C110.561 68.0078 110.277 68.1094 110.062 68.3125C109.852 68.5156 109.719 68.8262 109.664 69.2441H112.23C112.176 68.877 112.025 68.5801 111.779 68.3535C111.537 68.123 111.248 68.0078 110.912 68.0078ZM122.396 71.582V73L119.437 73V72.2676C118.875 72.8184 118.277 73.0938 117.645 73.0938C117.125 73.0938 116.666 72.9551 116.268 72.6777C115.869 72.3965 115.557 72.0117 115.33 71.5234C115.107 71.0352 114.996 70.4922 114.996 69.8945C114.996 69.2773 115.107 68.7266 115.33 68.2422C115.557 67.7578 115.875 67.3809 116.285 67.1113C116.695 66.8379 117.152 66.7012 117.656 66.7012C118.379 66.7012 118.973 66.9805 119.438 67.5391V65.582H118.465V64.1699H121.389L121.389 71.582L122.396 71.582ZM118.225 71.5469C118.607 71.5469 118.906 71.3965 119.121 71.0957C119.34 70.791 119.449 70.3984 119.449 69.918C119.449 69.4375 119.338 69.0449 119.115 68.7402C118.896 68.4355 118.596 68.2832 118.213 68.2832C117.842 68.2832 117.547 68.4355 117.328 68.7402C117.109 69.0449 117 69.4336 117 69.9063C117 70.3828 117.109 70.7754 117.328 71.084C117.547 71.3926 117.846 71.5469 118.225 71.5469Z" fill="#F6C8C3"/>
<path d="M133.154 65.6699H132.018V64.1699H135.961V65.6699H134.73V73.0586H132.773L128.953 66.5078V71.5H130.061V73H126.193V71.5H127.383L127.383 65.6699H126.193V64.1699H129.902L133.154 69.6895V65.6699ZM142.418 69.918C142.418 70.5313 142.273 71.084 141.984 71.5762C141.695 72.0684 141.305 72.4531 140.812 72.7305C140.32 73.0078 139.779 73.1465 139.189 73.1465C138.564 73.1465 138.006 73.0078 137.514 72.7305C137.021 72.4531 136.637 72.0684 136.359 71.5762C136.086 71.084 135.949 70.5313 135.949 69.918C135.949 69.3086 136.09 68.7598 136.371 68.2715C136.656 67.7832 137.047 67.4004 137.543 67.123C138.039 66.8418 138.588 66.7012 139.189 66.7012C139.803 66.7012 140.355 66.8418 140.848 67.123C141.34 67.4004 141.725 67.7832 142.002 68.2715C142.279 68.7598 142.418 69.3086 142.418 69.918ZM139.178 71.6172C139.561 71.6172 139.859 71.4688 140.074 71.1719C140.293 70.8711 140.402 70.4414 140.402 69.8828C140.402 69.3594 140.293 68.9512 140.074 68.6582C139.859 68.3613 139.557 68.2129 139.166 68.2129C138.771 68.2129 138.473 68.3594 138.27 68.6523C138.066 68.9414 137.965 69.3789 137.965 69.9648C137.965 70.4609 138.074 70.8613 138.293 71.166C138.516 71.4668 138.811 71.6172 139.178 71.6172ZM143.631 73V70.8613H145.764V73H143.631ZM153.744 66.3789C153.744 67.2656 153.301 67.916 152.414 68.3301C153.523 68.709 154.078 69.4102 154.078 70.4336C154.078 70.9609 153.936 71.4297 153.65 71.8398C153.369 72.2461 152.977 72.5605 152.473 72.7832C151.969 73.0059 151.4 73.1172 150.768 73.1172C148.654 73.1172 147.521 72.1543 147.369 70.2285L149.291 70.0703C149.299 71.1016 149.723 71.6172 150.562 71.6172C150.949 71.6172 151.264 71.4961 151.506 71.2539C151.748 71.0117 151.869 70.7129 151.869 70.3574C151.869 69.9902 151.74 69.6934 151.482 69.4668C151.229 69.2363 150.867 69.1211 150.398 69.1211C150.324 69.1211 150.16 69.1309 149.906 69.1504V67.5391C150.449 67.5313 150.873 67.4355 151.178 67.252C151.482 67.0684 151.635 66.8047 151.635 66.4609C151.635 66.1875 151.531 65.9648 151.324 65.793C151.121 65.6211 150.863 65.5352 150.551 65.5352C149.848 65.5352 149.496 65.9277 149.496 66.7129L147.639 66.5547C147.701 65.7539 148.002 65.1309 148.541 64.6855C149.08 64.2363 149.791 64.0117 150.674 64.0117C151.607 64.0117 152.352 64.2246 152.906 64.6504C153.465 65.0723 153.744 65.6484 153.744 66.3789Z" fill="#EFDFDE"/>
<path d="M70.4375 82.9766C70.4375 83.9375 70.1367 84.6465 69.5352 85.1035C68.9375 85.5566 68.0059 85.7832 66.7402 85.7832L65.8145 85.7832V87.5L67.0508 87.5V89L62.3984 89V87.5H63.5117L63.5117 81.6699H62.3984V80.1699L66.6934 80.1699C67.9551 80.1699 68.8945 80.4004 69.5117 80.8613C70.1289 81.3184 70.4375 82.0234 70.4375 82.9766ZM68.0117 82.9766C68.0117 82.6094 67.9375 82.3301 67.7891 82.1387C67.6406 81.9434 67.4258 81.8164 67.1445 81.7578C66.8672 81.6992 66.5449 81.6699 66.1777 81.6699H65.8145L65.8145 84.3184H66.1777C66.666 84.3184 67.043 84.2695 67.3086 84.1719C67.5781 84.0703 67.7617 83.9238 67.8594 83.7324C67.9609 83.541 68.0117 83.2891 68.0117 82.9766ZM76.3262 82.7715V84.6172C75.7871 84.6523 75.3574 84.7383 75.0371 84.875C74.7207 85.0078 74.4746 85.2383 74.2988 85.5664C74.127 85.8945 74.041 86.3633 74.041 86.9727V87.582L75.2656 87.582V89L70.9473 89V87.582H72.0781L72.0781 84.2832H71.0059V82.8418H73.877V84.4063C74.0215 83.9336 74.2891 83.541 74.6797 83.2285C75.0703 82.916 75.5547 82.7598 76.1328 82.7598C76.2188 82.7598 76.2832 82.7637 76.3262 82.7715ZM83.0937 85.918C83.0937 86.5313 82.9492 87.084 82.6602 87.5762C82.3711 88.0684 81.9805 88.4531 81.4883 88.7305C80.9961 89.0078 80.4551 89.1465 79.8652 89.1465C79.2402 89.1465 78.6816 89.0078 78.1895 88.7305C77.6973 88.4531 77.3125 88.0684 77.0352 87.5762C76.7617 87.084 76.625 86.5313 76.625 85.918C76.625 85.3086 76.7656 84.7598 77.0469 84.2715C77.332 83.7832 77.7227 83.4004 78.2188 83.123C78.7148 82.8418 79.2637 82.7012 79.8652 82.7012C80.4785 82.7012 81.0312 82.8418 81.5234 83.123C82.0156 83.4004 82.4004 83.7832 82.6777 84.2715C82.9551 84.7598 83.0937 85.3086 83.0937 85.918ZM79.8535 87.6172C80.2363 87.6172 80.5352 87.4688 80.75 87.1719C80.9687 86.8711 81.0781 86.4414 81.0781 85.8828C81.0781 85.3594 80.9688 84.9512 80.75 84.6582C80.5352 84.3613 80.2324 84.2129 79.8418 84.2129C79.4473 84.2129 79.1484 84.3594 78.9453 84.6523C78.7422 84.9414 78.6406 85.3789 78.6406 85.9648C78.6406 86.4609 78.75 86.8613 78.9687 87.166C79.1914 87.4668 79.4863 87.6172 79.8535 87.6172ZM87.5527 82.8418V84.2832H86.416L86.416 86.9727C86.416 87.1641 86.4531 87.3086 86.5273 87.4063C86.6016 87.5 86.7402 87.5469 86.9434 87.5469C87.1113 87.5469 87.3145 87.5039 87.5527 87.418V88.7832C87.0254 88.9902 86.5293 89.0938 86.0645 89.0938C85.5293 89.0938 85.127 88.959 84.8574 88.6895C84.5918 88.416 84.459 88.0313 84.459 87.5352L84.459 84.2832H83.6797V82.8418H84.459V81.8867L86.416 80.4805V82.8418H87.5527ZM94.7305 85.918C94.7305 86.5313 94.5859 87.084 94.2969 87.5762C94.0078 88.0684 93.6172 88.4531 93.125 88.7305C92.6328 89.0078 92.0918 89.1465 91.502 89.1465C90.877 89.1465 90.3184 89.0078 89.8262 88.7305C89.334 88.4531 88.9492 88.0684 88.6719 87.5762C88.3984 87.084 88.2617 86.5313 88.2617 85.918C88.2617 85.3086 88.4023 84.7598 88.6836 84.2715C88.9688 83.7832 89.3594 83.4004 89.8555 83.123C90.3516 82.8418 90.9004 82.7012 91.502 82.7012C92.1152 82.7012 92.668 82.8418 93.1602 83.123C93.6523 83.4004 94.0371 83.7832 94.3145 84.2715C94.5918 84.7598 94.7305 85.3086 94.7305 85.918ZM91.4902 87.6172C91.873 87.6172 92.1719 87.4688 92.3867 87.1719C92.6055 86.8711 92.7148 86.4414 92.7148 85.8828C92.7148 85.3594 92.6055 84.9512 92.3867 84.6582C92.1719 84.3613 91.8691 84.2129 91.4785 84.2129C91.084 84.2129 90.7852 84.3594 90.582 84.6523C90.3789 84.9414 90.2773 85.3789 90.2773 85.9648C90.2773 86.4609 90.3867 86.8613 90.6055 87.166C90.8281 87.4668 91.123 87.6172 91.4902 87.6172ZM99.1895 82.8418V84.2832H98.0527L98.0527 86.9727C98.0527 87.1641 98.0898 87.3086 98.1641 87.4063C98.2383 87.5 98.377 87.5469 98.5801 87.5469C98.748 87.5469 98.9512 87.5039 99.1895 87.418V88.7832C98.6621 88.9902 98.166 89.0938 97.7012 89.0938C97.166 89.0938 96.7637 88.959 96.4941 88.6895C96.2285 88.416 96.0957 88.0313 96.0957 87.5352L96.0957 84.2832H95.3164V82.8418H96.0957V81.8867L98.0527 80.4805V82.8418H99.1895ZM102.74 84.2832L103.771 87.0313L104.861 84.2832H104.059V82.8418H107.299V84.2832H106.408L103.473 91.7715H101.322L101.322 90.3535H102.5L102.904 89.2637L100.672 84.2832H99.7754V82.8418H103.473V84.2832H102.74ZM115.074 85.9883C115.074 86.5898 114.967 87.1309 114.752 87.6113C114.537 88.0879 114.227 88.4629 113.82 88.7363C113.418 89.0098 112.953 89.1465 112.426 89.1465C111.777 89.1465 111.178 88.8906 110.627 88.3789V90.3535H111.846L111.846 91.7715H107.627L107.627 90.3535H108.67L108.67 84.2832H107.791V82.8418H110.627V83.6094C111.17 83.043 111.777 82.7598 112.449 82.7598C112.992 82.7598 113.461 82.9023 113.855 83.1875C114.254 83.4688 114.557 83.8535 114.764 84.3418C114.971 84.8301 115.074 85.3789 115.074 85.9883ZM111.857 87.5938C112.244 87.5938 112.541 87.4512 112.748 87.166C112.955 86.877 113.059 86.4688 113.059 85.9414C113.059 85.4375 112.953 85.0449 112.742 84.7637C112.531 84.4824 112.229 84.3418 111.834 84.3418C111.459 84.3418 111.158 84.4883 110.932 84.7813C110.709 85.0742 110.598 85.4688 110.598 85.9648C110.598 86.4297 110.713 86.8184 110.943 87.1309C111.178 87.4395 111.482 87.5938 111.857 87.5938ZM122.516 86.334H117.922C117.969 86.8066 118.131 87.1816 118.408 87.459C118.689 87.7324 119.051 87.8691 119.492 87.8691C119.98 87.8691 120.457 87.627 120.922 87.1426L122.445 87.6348C122.109 88.1387 121.693 88.5176 121.197 88.7715C120.701 89.0215 120.113 89.1465 119.434 89.1465C118.754 89.1465 118.152 89.0195 117.629 88.7656C117.109 88.5078 116.705 88.1445 116.416 87.6758C116.131 87.207 115.988 86.6563 115.988 86.0234C115.988 85.3984 116.137 84.832 116.434 84.3242C116.734 83.8164 117.139 83.4199 117.646 83.1348C118.158 82.8457 118.713 82.7012 119.311 82.7012C119.959 82.7012 120.523 82.8516 121.004 83.1523C121.484 83.4492 121.854 83.873 122.111 84.4238C122.373 84.9707 122.508 85.6074 122.516 86.334ZM119.217 84.0078C118.865 84.0078 118.582 84.1094 118.367 84.3125C118.156 84.5156 118.023 84.8262 117.969 85.2441H120.535C120.48 84.877 120.33 84.5801 120.084 84.3535C119.842 84.123 119.553 84.0078 119.217 84.0078Z" fill="#F6C8C3"/>
<path d="M133.408 81.6699L132.271 81.6699V80.1699L136.215 80.1699V81.6699H134.984V89.0586H133.027L129.207 82.5078V87.5H130.314V89H126.447V87.5H127.637L127.637 81.6699H126.447V80.1699H130.156L133.408 85.6895V81.6699ZM142.672 85.918C142.672 86.5313 142.527 87.084 142.238 87.5762C141.949 88.0684 141.559 88.4531 141.066 88.7305C140.574 89.0078 140.033 89.1465 139.443 89.1465C138.818 89.1465 138.26 89.0078 137.768 88.7305C137.275 88.4531 136.891 88.0684 136.613 87.5762C136.34 87.084 136.203 86.5313 136.203 85.918C136.203 85.3086 136.344 84.7598 136.625 84.2715C136.91 83.7832 137.301 83.4004 137.797 83.123C138.293 82.8418 138.842 82.7012 139.443 82.7012C140.057 82.7012 140.609 82.8418 141.102 83.123C141.594 83.4004 141.979 83.7832 142.256 84.2715C142.533 84.7598 142.672 85.3086 142.672 85.918ZM139.432 87.6172C139.814 87.6172 140.113 87.4688 140.328 87.1719C140.547 86.8711 140.656 86.4414 140.656 85.8828C140.656 85.3594 140.547 84.9512 140.328 84.6582C140.113 84.3613 139.811 84.2129 139.42 84.2129C139.025 84.2129 138.727 84.3594 138.523 84.6523C138.32 84.9414 138.219 85.3789 138.219 85.9648C138.219 86.4609 138.328 86.8613 138.547 87.166C138.77 87.4668 139.064 87.6172 139.432 87.6172ZM143.885 89V86.8613H146.018V89H143.885ZM154.215 82.4961C154.215 82.9453 154.113 83.3359 153.91 83.668C153.711 84 153.441 84.3027 153.102 84.5762C152.762 84.8457 152.268 85.1758 151.619 85.5664C150.564 86.2148 149.98 86.8555 149.867 87.4883H152.533V86.3457H154.32L154.215 89L147.781 89C147.781 88.2148 147.875 87.5684 148.062 87.0605C148.25 86.5527 148.545 86.0879 148.947 85.666C149.354 85.2402 149.949 84.7363 150.734 84.1543C151.148 83.8496 151.463 83.5547 151.678 83.2695C151.896 82.9844 152.006 82.6914 152.006 82.3906C152.006 82.0938 151.92 81.8691 151.748 81.7168C151.576 81.5645 151.33 81.4883 151.01 81.4883C150.596 81.4883 150.287 81.6328 150.084 81.9219C149.885 82.207 149.766 82.6738 149.727 83.3223L147.893 83.252C147.916 82.1621 148.195 81.3496 148.73 80.8145C149.266 80.2793 150.066 80.0117 151.133 80.0117C152.09 80.0117 152.842 80.2324 153.389 80.6738C153.939 81.1113 154.215 81.7188 154.215 82.4961Z" fill="#EFDFDE"/>
</svg>
