<svg width="171" height="52" viewBox="0 0 171 52" fill="none" xmlns="http://www.w3.org/2000/svg">
<path d="M3.66821 10.034L3.52811 9.3151L5.00041 9.02817L5.5115 11.6507L4.0392 11.9376C3.89566 11.5278 3.69599 11.2384 3.44018 11.0694C3.18746 10.8958 2.8924 10.8419 2.555 10.9076C2.31728 10.9539 2.12715 11.0606 1.9846 11.2277C1.84205 11.3948 1.79058 11.5799 1.83018 11.7831C1.8653 11.9633 1.94924 12.1081 2.082 12.2176C2.21476 12.327 2.37446 12.4113 2.56109 12.4705C2.74698 12.5258 3.0232 12.5953 3.38974 12.6791L3.7697 12.7602C4.59695 12.9413 5.24754 13.2164 5.72146 13.5857C6.19922 13.9543 6.50311 14.4721 6.63312 15.1392C6.78779 15.9329 6.68221 16.6062 6.31636 17.159C5.94977 17.708 5.38114 18.0576 4.61048 18.2078C3.859 18.3543 3.21937 18.1864 2.69161 17.7042L2.8362 18.4461L1.3639 18.7331L0.790036 15.7885L2.26234 15.5015C2.39239 16.0055 2.59859 16.3693 2.88094 16.5928C3.16638 16.8118 3.50656 16.8828 3.90147 16.8058C4.16603 16.7543 4.37085 16.6208 4.51593 16.4055C4.66485 16.1894 4.71428 15.953 4.66422 15.6961C4.6134 15.4354 4.46164 15.2182 4.20892 15.0446C3.95928 14.8664 3.56204 14.717 3.01718 14.5963C2.08894 14.3872 1.38898 14.1037 0.917302 13.7459C0.449455 13.3874 0.160612 12.9263 0.0507711 12.3627C-0.0351585 11.9218 -0.0120119 11.4994 0.120211 11.0956C0.252434 10.6917 0.476657 10.3515 0.79288 10.075C1.11219 9.79389 1.48272 9.61223 1.90448 9.53004C2.24188 9.46429 2.56206 9.47352 2.86501 9.55775C3.16797 9.64198 3.4357 9.80073 3.66821 10.034Z" fill="#F6C8C3"/>
<path d="M13.1191 13.726L8.61019 14.6047C8.74661 15.0597 8.97746 15.3967 9.30274 15.6159C9.6311 15.8305 10.0119 15.8956 10.4452 15.8111C10.9244 15.7177 11.3459 15.3889 11.7095 14.8245L13.2989 15.0162C13.0656 15.5751 12.7297 16.0265 12.2914 16.3707C11.8522 16.7109 11.2991 16.9461 10.632 17.0761C9.96485 17.2061 9.35011 17.1966 8.78777 17.0475C8.22852 16.8938 7.7622 16.6146 7.38881 16.2098C7.01925 15.8042 6.77395 15.2909 6.6529 14.6698C6.53334 14.0563 6.57069 13.472 6.76495 12.9167C6.96304 12.3608 7.28403 11.8943 7.72792 11.5172C8.17489 11.1356 8.69169 10.8877 9.27831 10.7733C9.91477 10.6493 10.4976 10.6889 11.0267 10.8923C11.5551 11.0917 11.9985 11.4371 12.3569 11.9284C12.7184 12.4151 12.9725 13.0143 13.1191 13.726ZM9.43623 12.0738C9.09116 12.141 8.83262 12.2949 8.6606 12.5354C8.49241 12.7751 8.42145 13.1053 8.44773 13.526L10.9667 13.0351C10.8428 12.6852 10.6384 12.4225 10.3535 12.2472C10.0717 12.0673 9.76597 12.0095 9.43623 12.0738Z" fill="#F6C8C3"/>
<path d="M19.4721 12.4879L14.9632 13.3666C15.0996 13.8216 15.3304 14.1586 15.6557 14.3778C15.9841 14.5924 16.3649 14.6575 16.7981 14.573C17.2774 14.4796 17.6988 14.1508 18.0624 13.5864L19.6519 13.7781C19.4186 14.337 19.0827 14.7884 18.6443 15.1326C18.2052 15.4728 17.6521 15.708 16.985 15.838C16.3178 15.968 15.7031 15.9585 15.1408 15.8094C14.5815 15.6557 14.1152 15.3765 13.7418 14.9717C13.3722 14.5661 13.1269 14.0528 13.0059 13.4317C12.8863 12.8182 12.9237 12.2339 13.1179 11.6786C13.316 11.1227 13.637 10.6562 14.0809 10.2791C14.5279 9.89753 15.0447 9.64956 15.6313 9.53524C16.2678 9.4112 16.8506 9.45084 17.3797 9.65416C17.9081 9.85365 18.3515 10.199 18.7099 10.6903C19.0714 11.177 19.3254 11.7762 19.4721 12.4879ZM15.7892 10.8357C15.4441 10.9029 15.1856 11.0568 15.0136 11.2973C14.8454 11.537 14.7744 11.8672 14.8007 12.2879L17.3197 11.797C17.1958 11.4471 16.9914 11.1844 16.7065 11.0091C16.4247 10.8292 16.1189 10.7714 15.7892 10.8357Z" fill="#F6C8C3"/>
<path d="M26.9207 12.3078L27.192 13.6996L24.2876 14.2656L24.1475 13.5467C23.7008 14.1949 23.1668 14.5795 22.5457 14.7006C22.0358 14.7999 21.5587 14.7516 21.1146 14.5556C20.6697 14.3558 20.2894 14.0379 19.9736 13.602C19.6617 13.1653 19.4485 12.6536 19.3342 12.067C19.2161 11.4612 19.2201 10.8993 19.3459 10.3813C19.4757 9.86254 19.716 9.43165 20.0671 9.08864C20.4173 8.74179 20.8398 8.52018 21.3344 8.42379C22.0437 8.28555 22.6799 8.44611 23.243 8.90547L22.8687 6.98458L21.914 7.17064L21.6439 5.7846L24.5137 5.22531L25.9315 12.5006L26.9207 12.3078ZM22.8192 13.0713C23.1949 12.9981 23.4595 12.7933 23.6128 12.457C23.7692 12.1161 23.8015 11.7098 23.7096 11.2382C23.6177 10.7666 23.4333 10.4026 23.1565 10.1461C22.8835 9.88889 22.5591 9.7969 22.1834 9.87013C21.8191 9.94111 21.5588 10.1471 21.4024 10.488C21.2459 10.8289 21.2129 11.2313 21.3033 11.6952C21.3945 12.163 21.577 12.5274 21.8507 12.7884C22.1244 13.0495 22.4473 13.1438 22.8192 13.0713Z" fill="#F6C8C3"/>
<path d="M36.7023 4.37814L35.5866 4.59558L35.2997 3.12328L39.1702 2.36897L39.4572 3.84127L38.2494 4.07664L39.6628 11.3289L37.7419 11.7032L32.739 6.00419L33.694 10.9042L34.7809 10.6924L35.0679 12.1647L31.2721 12.9044L30.9852 11.4321L32.1526 11.2046L31.0374 5.48215L29.8699 5.70968L29.583 4.23738L33.2235 3.5279L37.4712 8.32345L36.7023 4.37814Z" fill="#F6C8C3"/>
<path d="M45.4297 7.00527C45.547 7.60723 45.5109 8.1774 45.3213 8.7158C45.1317 9.25419 44.8219 9.70657 44.3919 10.0729C43.9618 10.4393 43.4573 10.6789 42.8784 10.7917C42.2649 10.9113 41.6901 10.882 41.154 10.704C40.6178 10.5259 40.1665 10.2218 39.8002 9.79178C39.4376 9.36099 39.1977 8.84462 39.0804 8.24266C38.9638 7.64454 38.9969 7.07894 39.1795 6.54588C39.366 6.01207 39.6762 5.5616 40.1101 5.19448C40.5432 4.82353 41.055 4.58052 41.6455 4.46545C42.2474 4.34814 42.8169 4.38043 43.3538 4.56234C43.8899 4.74041 44.3408 5.04256 44.7064 5.46877C45.072 5.89498 45.3131 6.40715 45.4297 7.00527ZM42.5743 9.29293C42.9501 9.2197 43.215 9.01684 43.3691 8.68435C43.5263 8.34728 43.5514 7.90461 43.4446 7.35633C43.3444 6.84256 43.159 6.46281 42.8883 6.2171C42.6206 5.9668 42.2951 5.87901 41.9116 5.95374C41.5244 6.0292 41.2591 6.23015 41.1158 6.55656C40.9717 6.87914 40.9557 7.32799 41.0678 7.90311C41.1627 8.39004 41.3466 8.76211 41.6196 9.01933C41.8957 9.27197 42.2139 9.36317 42.5743 9.29293Z" fill="#F6C8C3"/>
<path d="M46.0319 10.0279L45.6228 7.92875L47.7162 7.52077L48.1253 9.61995L46.0319 10.0279Z" fill="#F6C8C3"/>
<path d="M53.8415 6.96578L54.1307 8.44958L49.7138 9.31038L49.4246 7.82657L50.6151 7.59456L49.5044 1.89515L48.2334 2.14285L47.9442 0.659043L51.3259 0L52.7258 7.18322L53.8415 6.96578Z" fill="#F6C8C3"/>
<path d="M0.565308 18.8398L85.5324 2.2959L170.5 18.8398V21.5971L153.236 26.7959V51.9275H17.8285V26.7959L0.565308 21.5971V18.8398Z" fill="#6D6E99"/>
<path d="M0.56543 18.8398L85.5325 2.2959L170.5 18.8398V21.5971H153.236V51.9275H17.8286V21.5971H0.56543V18.8398Z" fill="#8D8EB4"/>
</svg>
