<svg width="289" height="148" viewBox="0 0 289 148" fill="none" xmlns="http://www.w3.org/2000/svg">
<path d="M235.264 118.37C234.36 121.635 213.462 140.355 190.559 135.92C175.658 133.034 157.578 128.759 138.243 123.404C118.908 118.05 101.204 112.417 86.9413 107.226C65.0197 99.2483 56.7286 72.4451 57.6327 69.1801C59.1251 63.7908 100.099 70.4333 149.15 84.0167C198.202 97.6 236.756 112.98 235.264 118.37Z" fill="#FCF0C4"/>
<ellipse cx="146.477" cy="93.6705" rx="86.5484" ry="10.0172" transform="rotate(15.4785 146.477 93.6705)" fill="#FFEAA4"/>
<path d="M9.19629 51.9131L61.9168 66.5124L64.7674 79.4495C64.7674 79.4495 57.7778 74.7314 52.7199 73.0763C37.6262 68.1374 4.70506 68.1316 4.70506 68.1316L9.19629 51.9131Z" fill="#FCF0C4"/>
<path d="M6.85595 60.3642L57.5547 69.462C57.5547 69.462 56.2837 74.0517 53.2612 73.2147C37.9883 68.2251 4.70507 68.1314 4.70507 68.1314L6.85595 60.3642Z" fill="#FFEAA4"/>
<path d="M94.3251 50.8722C97.1315 50.5221 98.4964 48.4623 98.0863 45.1752L96.3028 30.8798L100.039 30.4136L101.85 44.9261C102.502 50.1512 99.8634 53.6139 94.7468 54.2522C89.6302 54.8906 86.2219 52.1823 85.57 46.9572L83.7594 32.4447L87.4961 31.9785L89.2796 46.2739C89.6896 49.561 91.5188 51.2223 94.3251 50.8722ZM113.092 51.5069L109.805 51.917L107.014 29.5436L110.425 29.118L120.848 44.0047L121.096 43.9737L119.107 28.0348L122.394 27.6247L125.186 49.9981L121.79 50.4218L111.344 35.475L111.096 35.506L113.092 51.5069ZM99.5256 88.518C102.115 88.1949 103.518 86.3192 103.225 83.5846L107.023 83.1107C107.617 87.8707 104.847 91.2868 99.9628 91.8961C94.5361 92.5731 90.9224 89.4811 90.1757 83.4962L89.6361 79.1704C88.8894 73.1855 91.6327 69.3004 97.0593 68.6234C102.036 68.0024 105.402 70.6215 106.097 75.6839L102.298 76.1578C101.884 73.3437 99.9308 71.6978 97.419 72.0112C94.3646 72.3922 93.0132 74.6865 93.5123 78.6868L94.0519 83.0126C94.551 87.0129 96.4246 88.9048 99.5256 88.518ZM129.472 78.1686C130.247 84.386 127.512 88.4591 122.256 89.1149C116.999 89.7706 113.347 86.4945 112.571 80.277L112.136 76.7885C111.36 70.571 114.096 66.4979 119.352 65.8422C124.608 65.1864 128.261 68.4626 129.036 74.68L129.472 78.1686ZM121.838 85.7658C124.815 85.3945 126.207 82.9218 125.669 78.6115L125.242 75.1849C124.704 70.8746 122.747 68.8198 119.77 69.1912C116.793 69.5626 115.401 72.0352 115.939 76.3456L116.366 79.7721C116.904 84.0824 118.861 86.1372 121.838 85.7658ZM152.276 75.3236C153.052 81.541 150.316 85.6141 145.06 86.2699C139.804 86.9256 136.152 83.6494 135.376 77.432L134.941 73.9434C134.165 67.726 136.9 63.6529 142.157 62.9971C147.413 62.3414 151.065 65.6176 151.841 71.835L152.276 75.3236ZM144.642 82.9208C147.619 82.5494 149.011 80.0768 148.474 75.7665L148.046 72.3399C147.508 68.0296 145.551 65.9748 142.574 66.3462C139.598 66.7176 138.205 69.1902 138.743 73.5005L139.171 76.9271C139.708 81.2374 141.665 83.2922 144.642 82.9208ZM164.382 83.4027L160.8 83.8495L158.009 61.4761L161.591 61.0292L162.91 71.6035L163.142 71.5745L170.134 59.9634L174.212 59.4547L167.505 70.3216L177.623 81.7507L173.173 82.3059L165.287 73.3696L163.49 76.255L164.382 83.4027ZM197.414 75.9592L197.823 79.2307L184.07 80.9464L181.279 58.573L195.031 56.8572L195.44 60.1288L185.439 61.3764L186.217 67.6093L195.643 66.4333L196.025 69.4877L186.598 70.6638L187.414 77.2068L197.414 75.9592ZM202.92 55.8731L209.742 55.0219C216.037 54.2366 219.748 57.6 220.659 64.9028C221.593 72.3916 218.86 76.6062 212.534 77.3954L205.711 78.2465L202.92 55.8731ZM207.081 58.6765L209.055 74.5069L211.66 74.1819C215.878 73.6558 217.52 70.9158 216.837 65.4426C216.173 60.1244 213.872 57.8292 209.685 58.3515L207.081 58.6765Z" fill="#A63B31"/>
</svg>
