<svg width="474" height="615" viewBox="0 0 474 615" fill="none" xmlns="http://www.w3.org/2000/svg">
<rect x="9" y="96" width="211" height="447" fill="#494A72"/>
<path d="M55.6911 503.738C56.2387 501.295 55.9467 498.987 55.6644 496.754C55.4231 494.847 55.1956 493.047 55.5397 491.375C56.3556 487.411 53.8258 483.061 51.5305 479.713C48.97 475.979 46.1992 475.45 42.564 475.109C42.3675 475.091 42.1668 475.081 41.9675 475.081C39.5282 475.081 37.4906 476.446 36.3957 477.18C36.1117 477.37 35.8182 477.567 35.7321 477.584C35.5959 477.611 35.2771 477.615 34.8737 477.621C33.7903 477.635 31.9772 477.659 29.8184 478.122C27.7148 478.573 26.0291 479.644 26.0605 480.51C26.0723 480.838 26.3123 481.261 27.3885 481.412C29.6435 481.727 31.6373 482.338 33.2393 482.828C33.556 482.925 33.8531 483.016 34.1287 483.098C35.862 483.609 37.4632 484.308 38.0114 487.207C38.3929 489.222 34.9275 491.535 31.8703 493.575C30.6022 494.421 29.4046 495.221 28.4399 496.005C25.0757 498.738 18.6611 504.278 16.6062 506.225C8.99981 512 6.32673 526.441 6.32666 529.91C7.06617 529.91 13.0407 529.474 16.8091 528.397C17.649 528.157 18.5462 528.036 19.4759 528.036C21.7362 528.036 23.9181 528.739 25.7874 529.437C25.7758 529.892 25.7644 530.449 25.7526 531.134C25.7208 533.011 25.7067 534.956 25.7113 535.47C25.7174 536.188 27.0729 537.455 28.9869 539.166C29.7743 539.869 30.7407 540.734 30.9182 541.044C30.5975 541.244 30.1058 541.25 29.4959 541.257C28.4306 541.27 26.9719 541.288 25.4587 542.441C22.6975 544.547 25.6611 543.715 26.7074 543.317C27.5465 542.998 28.1628 542.868 28.8355 542.868C29.7186 542.868 30.7624 543.095 32.3793 543.514C33.3696 543.77 34.2512 543.514 35 543.514C35.974 543.514 36.645 543.689 37.3936 543.471C38.2647 543.217 39.1651 542.954 40.6373 542.954C40.9108 542.954 41.1993 542.963 41.4949 542.982C41.9629 543.011 44.5512 543.659 45.4795 543.659C44.7381 542.825 44.0443 542.314 43.3738 541.984C43.7837 541.904 44.1622 541.795 44.5512 541.681C45.4223 541.427 46.3227 541.165 47.7948 541.165C48.0683 541.165 48.3568 541.174 48.6524 541.193C50.2653 541.294 51.7106 542.134 52.405 542.537C52.7042 542.711 52.7947 542.763 52.8925 542.763L53.0414 542.757L53.0972 542.633C53.1704 542.47 53.0785 542.367 52.6371 541.87C51.0674 540.102 49.7084 539.776 48.3393 539.577C47.8015 539.498 47.395 539.318 47.3507 539.138C47.3142 538.99 47.5139 538.741 47.8851 538.47C48.5434 537.991 49.2055 537.748 49.8531 537.748C51.0004 537.748 51.7142 538.501 51.7918 538.787C51.8268 538.917 51.9295 538.963 52.0071 538.963C52.0861 538.963 52.1905 538.915 52.2243 538.78C52.2877 538.528 52.2116 537.423 51.2781 536.923C50.8119 536.673 50.0903 536.535 49.2462 536.535C47.2522 536.535 45.0828 537.237 43.2953 538.436C42.9392 538.363 42.5316 538.325 42.0887 538.325C41.9658 538.325 41.842 538.328 41.718 538.334C40.1911 537.113 37.5043 534.272 37.3495 533.306C37.2476 532.669 37.1882 530.656 37.1882 528.71C37.1882 528.703 37.1882 528.696 37.1882 528.688C38.4534 528.059 39.7378 527.318 41.2273 526.441C48.6836 522.056 54.6804 508.246 55.6911 503.738ZM32.8888 530.807C32.8721 532.142 32.8654 533.301 32.8688 533.681C32.8751 534.398 34.2303 535.665 36.1442 537.376C36.8885 538.041 37.7917 538.849 38.0386 539.198C37.8712 539.27 37.705 539.344 37.5405 539.424C37.2858 539.459 36.9883 539.464 36.6536 539.468C35.9639 539.476 35.109 539.488 34.1814 539.808C32.6311 538.468 30.3613 535.986 30.2186 535.096C30.1414 534.614 30.1132 533.34 30.0971 531.905C30.7129 531.694 31.6299 531.357 32.8888 530.807Z" fill="#3F2B46"/>
<path d="M4.00006 543.745L227 544.05" stroke="#BEBEBE"/>
<path d="M2.87598 72H227.124V544.31H210.233V110.721H14.8062V544.31H2.87598V72Z" fill="#B1B1B1"/>
<path d="M2.87598 72H227.124V544.31H213.233V107.721H11.8062V544.31H2.87598V72Z" fill="#C7C7C7"/>
<line x1="20.5" y1="107" x2="20.5" y2="72" stroke="#AAAAAA"/>
<line x1="43.5" y1="107" x2="43.5" y2="72" stroke="#AAAAAA"/>
<line x1="66.5" y1="107" x2="66.5" y2="72" stroke="#AAAAAA"/>
<line x1="89.5" y1="107" x2="89.5" y2="72" stroke="#AAAAAA"/>
<line x1="112.5" y1="107" x2="112.5" y2="72" stroke="#AAAAAA"/>
<line x1="135.5" y1="107" x2="135.5" y2="72" stroke="#AAAAAA"/>
<line x1="158.5" y1="107" x2="158.5" y2="72" stroke="#AAAAAA"/>
<line x1="181.5" y1="107" x2="181.5" y2="72" stroke="#AAAAAA"/>
<line x1="204.5" y1="107" x2="204.5" y2="72" stroke="#AAAAAA"/>
<path d="M213.233 107.721V544.31L110.039 560.186V91.8447L213.233 107.721Z" fill="#F4F4F4"/>
<path d="M111.031 91.8447L103.093 92.837L99.5969 98.0153L99.3489 554.604L102.101 559.194L110.039 560.186L111.031 91.8447Z" fill="#E8E8E8"/>
<path d="M117.938 92.8291L117.938 558.829" stroke="#E3E3E3"/>
<path d="M130 95L130 557" stroke="#E3E3E3"/>
<path d="M142 97L142 555.419" stroke="#E3E3E3"/>
<path d="M154 98.79L154 553.24" stroke="#E3E3E3"/>
<path d="M166 100.79L166 551.79" stroke="#E3E3E3"/>
<path d="M178 102.768L178 549.768" stroke="#E3E3E3"/>
<path d="M190 104.752L190 547.752" stroke="#E3E3E3"/>
<path d="M202 106.729L202 545.729" stroke="#E3E3E3"/>
<path d="M209 107L209 545" stroke="#E3E3E3"/>
<path d="M133.853 369.674C133.853 383.923 126.745 395.473 117.977 395.473V343.876C126.745 343.876 133.853 355.426 133.853 369.674Z" fill="#FEC70B"/>
<line x1="100.5" y1="556" x2="100.5" y2="97" stroke="#919191"/>
<line x1="103.5" y1="559" x2="103.5" y2="93" stroke="#919191"/>
<path d="M5.67773 594.08V593.213H6.59766C7.54688 593.213 8.20898 592.592 8.20898 591.707C8.20898 590.846 7.57617 590.277 6.62109 590.277C5.67188 590.277 5.03906 590.834 4.95703 591.742H3.9668C4.06641 590.277 5.09766 589.369 6.66211 589.369C8.17383 589.369 9.25195 590.277 9.25195 591.561C9.25195 592.58 8.71875 593.307 7.81055 593.529V593.623C8.93555 593.77 9.60352 594.561 9.60352 595.715C9.60352 597.15 8.39648 598.176 6.70898 598.176C5.03906 598.176 3.87891 597.215 3.80273 595.756H4.78125C4.875 596.658 5.625 597.244 6.67969 597.244C7.83984 597.244 8.56055 596.646 8.56055 595.691C8.56055 594.707 7.81641 594.08 6.64453 594.08H5.67773ZM23.5547 595.41V594.584H21.6035V593.699H24.5977V595.498C24.5977 597.086 23.4023 598.176 21.6973 598.176C19.7109 598.176 18.5625 596.84 18.5625 594.525V593.02C18.5625 590.705 19.7109 589.369 21.6973 589.369C23.4551 589.369 24.5566 590.441 24.5977 592.193H23.5547C23.5078 591.092 22.7578 590.348 21.6797 590.348C20.3145 590.348 19.6055 591.268 19.6055 593.02V594.525C19.6055 596.277 20.3203 597.197 21.6855 597.197C22.8398 597.197 23.5547 596.518 23.5547 595.41ZM28.3184 598.111C27.1055 598.111 26.2969 597.35 26.2969 596.195C26.2969 595.07 27.1055 594.402 28.5527 594.326L30.2988 594.238V593.664C30.2988 592.867 29.8125 592.428 28.9277 592.428C28.1953 592.428 27.6797 592.738 27.5156 593.283H26.5371C26.6543 592.264 27.6387 591.566 28.9395 591.566C30.4336 591.566 31.2891 592.328 31.2891 593.652V598.006H30.3398V597.051H30.2402C29.9355 597.73 29.2441 598.111 28.3184 598.111ZM28.6055 597.238C29.5664 597.238 30.2988 596.6 30.2988 595.75V595L28.6641 595.076C27.7734 595.117 27.3047 595.498 27.3047 596.16C27.3047 596.828 27.8027 597.238 28.6055 597.238ZM34.0664 593.359C34.0664 592.258 35.0039 591.52 36.4043 591.52C37.7285 591.52 38.625 592.182 38.7422 593.242H37.7812C37.6641 592.686 37.1309 592.346 36.3867 592.346C35.5781 592.346 35.0566 592.721 35.0566 593.301C35.0566 593.787 35.3848 594.062 36.1816 594.238L37.0781 594.443C38.3145 594.725 38.877 595.264 38.877 596.184C38.877 597.355 37.8984 598.117 36.3926 598.117C34.9512 598.117 33.9961 597.443 33.8848 596.354H34.8984C35.0449 596.939 35.6074 597.279 36.4277 597.279C37.2949 597.279 37.8457 596.887 37.8457 596.277C37.8457 595.773 37.5352 595.504 36.7266 595.322L35.7832 595.105C34.6348 594.842 34.0664 594.262 34.0664 593.359ZM42.7383 594.496L45.5098 591.643H46.7168L44.25 594.162L46.8926 598H45.709L43.541 594.842L42.6621 595.686V598H41.666V589.146H42.6621V594.496H42.7383ZM52.9336 596.359H53.9004C53.707 597.408 52.6992 598.117 51.3633 598.117C49.6172 598.117 48.6035 597.068 48.6035 595.258V594.303C48.6035 592.627 49.6758 591.525 51.293 591.525C52.9453 591.525 53.918 592.621 53.918 594.461V595.082H49.5879V595.34C49.5879 596.506 50.2793 597.256 51.3633 597.256C52.166 597.256 52.7578 596.916 52.9336 596.359ZM51.2871 592.381C50.2266 592.381 49.5879 593.107 49.5879 594.326H52.9336C52.9336 593.113 52.3125 592.381 51.2871 592.381ZM57.5508 589.938H58.5352V591.66H61.1133V592.51H58.5469V596.096C58.5469 596.787 59.0332 597.162 59.9297 597.162C60.2871 597.162 60.9258 597.145 61.0957 597.127V597.971C60.9375 598 60.1641 598.029 59.8594 598.029C58.2832 598.029 57.5508 597.432 57.5508 596.107V592.51H55.8574V591.66H57.5508V589.938ZM63.7383 593.359C63.7383 592.258 64.6758 591.52 66.0762 591.52C67.4004 591.52 68.2969 592.182 68.4141 593.242H67.4531C67.3359 592.686 66.8027 592.346 66.0586 592.346C65.25 592.346 64.7285 592.721 64.7285 593.301C64.7285 593.787 65.0566 594.062 65.8535 594.238L66.75 594.443C67.9863 594.725 68.5488 595.264 68.5488 596.184C68.5488 597.355 67.5703 598.117 66.0645 598.117C64.623 598.117 63.668 597.443 63.5566 596.354H64.5703C64.7168 596.939 65.2793 597.279 66.0996 597.279C66.9668 597.279 67.5176 596.887 67.5176 596.277C67.5176 595.773 67.207 595.504 66.3984 595.322L65.4551 595.105C64.3066 594.842 63.7383 594.262 63.7383 593.359ZM79.9512 598V592.51H78.2461V591.66H79.9512V591.021C79.9512 589.791 80.7129 589.217 82.2773 589.217C82.6465 589.217 83.5312 589.246 83.7422 589.275V590.09C83.4668 590.061 82.6465 590.037 82.2891 590.037C81.4043 590.037 80.9355 590.365 80.9355 591.004V591.66H83.7422V592.51H80.9473V598H79.9512ZM88.3066 598.117C86.625 598.117 85.5527 597.021 85.5527 595.305V594.344C85.5527 592.627 86.625 591.531 88.3066 591.531C89.9883 591.531 91.0605 592.627 91.0605 594.344V595.305C91.0605 597.021 89.9883 598.117 88.3066 598.117ZM88.3066 592.41C87.2168 592.41 86.5371 593.184 86.5371 594.432V595.211C86.5371 596.465 87.2168 597.232 88.3066 597.232C89.3965 597.232 90.0762 596.465 90.0762 595.211V594.432C90.0762 593.184 89.3965 592.41 88.3066 592.41ZM95.4727 595.152V597.203H97.4414V598H93.2168V597.203H94.5V592.439H93.0879V591.643H95.4609V593.266H95.5898C95.8242 592.088 96.6152 591.479 97.8398 591.479C98.2031 591.479 98.5488 591.531 98.7598 591.619V592.738C98.4668 592.633 98.0566 592.562 97.7109 592.562C96.3047 592.562 95.4727 593.535 95.4727 595.152ZM7.10742 605.537C8.57812 605.537 9.53906 606.598 9.53906 608.232V609.416C9.53906 611.045 8.57812 612.105 7.10742 612.105C6.1875 612.105 5.51367 611.713 5.23828 611.016H5.12695V614.145H4.11328V605.643H5.09766V606.615H5.20312C5.53711 605.912 6.19922 605.537 7.10742 605.537ZM6.82031 606.451C5.77148 606.451 5.10352 607.201 5.10352 608.373V609.287C5.10352 610.465 5.77148 611.215 6.82031 611.215C7.86914 611.215 8.53711 610.459 8.53711 609.287V608.373C8.53711 607.201 7.86914 606.451 6.82031 606.451ZM13.875 609.152V611.203H15.8438V612H11.6191V611.203H12.9023V606.439H11.4902V605.643H13.8633V607.266H13.9922C14.2266 606.088 15.0176 605.479 16.2422 605.479C16.6055 605.479 16.9512 605.531 17.1621 605.619V606.738C16.8691 606.633 16.459 606.562 16.1133 606.562C14.707 606.562 13.875 607.535 13.875 609.152ZM21.5449 612.117C19.8633 612.117 18.791 611.021 18.791 609.305V608.344C18.791 606.627 19.8633 605.531 21.5449 605.531C23.2266 605.531 24.2988 606.627 24.2988 608.344V609.305C24.2988 611.021 23.2266 612.117 21.5449 612.117ZM21.5449 606.41C20.4551 606.41 19.7754 607.184 19.7754 608.432V609.211C19.7754 610.465 20.4551 611.232 21.5449 611.232C22.6348 611.232 23.3145 610.465 23.3145 609.211V608.432C23.3145 607.184 22.6348 606.41 21.5449 606.41ZM29.3613 605.537C30.832 605.537 31.793 606.598 31.793 608.232V609.416C31.793 611.045 30.832 612.105 29.3613 612.105C28.4414 612.105 27.7676 611.713 27.4922 611.016H27.3809V614.145H26.3672V605.643H27.3516V606.615H27.457C27.791 605.912 28.4531 605.537 29.3613 605.537ZM29.0742 606.451C28.0254 606.451 27.3574 607.201 27.3574 608.373V609.287C27.3574 610.465 28.0254 611.215 29.0742 611.215C30.123 611.215 30.791 610.459 30.791 609.287V608.373C30.791 607.201 30.123 606.451 29.0742 606.451ZM38.0977 610.359H39.0645C38.8711 611.408 37.8633 612.117 36.5273 612.117C34.7812 612.117 33.7676 611.068 33.7676 609.258V608.303C33.7676 606.627 34.8398 605.525 36.457 605.525C38.1094 605.525 39.082 606.621 39.082 608.461V609.082H34.752V609.34C34.752 610.506 35.4434 611.256 36.5273 611.256C37.3301 611.256 37.9219 610.916 38.0977 610.359ZM36.4512 606.381C35.3906 606.381 34.752 607.107 34.752 608.326H38.0977C38.0977 607.113 37.4766 606.381 36.4512 606.381ZM43.5469 609.152V611.203H45.5156V612H41.291V611.203H42.5742V606.439H41.1621V605.643H43.5352V607.266H43.6641C43.8984 606.088 44.6895 605.479 45.9141 605.479C46.2773 605.479 46.623 605.531 46.834 605.619V606.738C46.541 606.633 46.1309 606.562 45.7852 606.562C44.3789 606.562 43.5469 607.535 43.5469 609.152ZM57.9902 612.111C56.7773 612.111 55.9688 611.35 55.9688 610.195C55.9688 609.07 56.7773 608.402 58.2246 608.326L59.9707 608.238V607.664C59.9707 606.867 59.4844 606.428 58.5996 606.428C57.8672 606.428 57.3516 606.738 57.1875 607.283H56.209C56.3262 606.264 57.3105 605.566 58.6113 605.566C60.1055 605.566 60.9609 606.328 60.9609 607.652V612.006H60.0117V611.051H59.9121C59.6074 611.73 58.916 612.111 57.9902 612.111ZM58.2773 611.238C59.2383 611.238 59.9707 610.6 59.9707 609.75V609L58.3359 609.076C57.4453 609.117 56.9766 609.498 56.9766 610.16C56.9766 610.828 57.4746 611.238 58.2773 611.238ZM66.1641 604.084C65.6953 604.084 65.3379 603.732 65.3379 603.264C65.3379 602.801 65.6953 602.449 66.1641 602.449C66.6328 602.449 66.9902 602.801 66.9902 603.264C66.9902 603.732 66.6328 604.084 66.1641 604.084ZM68.8301 612H63.5625V611.174H65.7422V606.469H63.5801V605.643H66.7266V611.174H68.8301V612ZM73.2188 609.152V611.203H75.1875V612H70.9629V611.203H72.2461V606.439H70.834V605.643H73.207V607.266H73.3359C73.5703 606.088 74.3613 605.479 75.5859 605.479C75.9492 605.479 76.2949 605.531 76.5059 605.619V606.738C76.2129 606.633 75.8027 606.562 75.457 606.562C74.0508 606.562 73.2188 607.535 73.2188 609.152ZM85.9922 607.359C85.9922 606.258 86.9297 605.52 88.3301 605.52C89.6543 605.52 90.5508 606.182 90.668 607.242H89.707C89.5898 606.686 89.0566 606.346 88.3125 606.346C87.5039 606.346 86.9824 606.721 86.9824 607.301C86.9824 607.787 87.3105 608.062 88.1074 608.238L89.0039 608.443C90.2402 608.725 90.8027 609.264 90.8027 610.184C90.8027 611.355 89.8242 612.117 88.3184 612.117C86.877 612.117 85.9219 611.443 85.8105 610.354H86.8242C86.9707 610.939 87.5332 611.279 88.3535 611.279C89.2207 611.279 89.7715 610.887 89.7715 610.277C89.7715 609.773 89.4609 609.504 88.6523 609.322L87.709 609.105C86.5605 608.842 85.9922 608.262 85.9922 607.359ZM97.4414 610.359H98.4082C98.2148 611.408 97.207 612.117 95.8711 612.117C94.125 612.117 93.1113 611.068 93.1113 609.258V608.303C93.1113 606.627 94.1836 605.525 95.8008 605.525C97.4531 605.525 98.4258 606.621 98.4258 608.461V609.082H94.0957V609.34C94.0957 610.506 94.7871 611.256 95.8711 611.256C96.6738 611.256 97.2656 610.916 97.4414 610.359ZM95.7949 606.381C94.7344 606.381 94.0957 607.107 94.0957 608.326H97.4414C97.4414 607.113 96.8203 606.381 95.7949 606.381ZM102.498 612.111C101.285 612.111 100.477 611.35 100.477 610.195C100.477 609.07 101.285 608.402 102.732 608.326L104.479 608.238V607.664C104.479 606.867 103.992 606.428 103.107 606.428C102.375 606.428 101.859 606.738 101.695 607.283H100.717C100.834 606.264 101.818 605.566 103.119 605.566C104.613 605.566 105.469 606.328 105.469 607.652V612.006H104.52V611.051H104.42C104.115 611.73 103.424 612.111 102.498 612.111ZM102.785 611.238C103.746 611.238 104.479 610.6 104.479 609.75V609L102.844 609.076C101.953 609.117 101.484 609.498 101.484 610.16C101.484 610.828 101.982 611.238 102.785 611.238ZM113.338 612H108.07V611.174H110.244V603.973H108.088V603.146H111.24V611.174H113.338V612ZM118.09 604.084C117.621 604.084 117.264 603.732 117.264 603.264C117.264 602.801 117.621 602.449 118.09 602.449C118.559 602.449 118.916 602.801 118.916 603.264C118.916 603.732 118.559 604.084 118.09 604.084ZM120.756 612H115.488V611.174H117.668V606.469H115.506V605.643H118.652V611.174H120.756V612ZM122.795 612V605.643H123.75V606.762H123.832C124.172 605.971 124.898 605.525 125.865 605.525C127.248 605.525 127.998 606.352 127.998 607.875V612H127.002V608.127C127.002 606.979 126.533 606.439 125.543 606.439C124.494 606.439 123.791 607.172 123.791 608.256V612H122.795ZM132.627 614.385C131.156 614.385 130.172 613.74 130.043 612.686H131.027C131.156 613.213 131.795 613.559 132.645 613.559C133.758 613.559 134.373 612.996 134.373 611.977V610.986H134.268C133.986 611.654 133.283 612.059 132.357 612.059C130.887 612.059 129.92 610.998 129.92 609.369V608.227C129.92 606.592 130.893 605.537 132.381 605.537C133.301 605.537 133.998 605.941 134.273 606.627H134.385V605.643H135.369V612C135.369 613.494 134.35 614.385 132.627 614.385ZM130.922 609.229C130.922 610.395 131.602 611.156 132.656 611.156C133.705 611.156 134.379 610.4 134.379 609.229V608.355C134.379 607.184 133.705 606.434 132.656 606.434C131.602 606.434 130.922 607.189 130.922 608.355V609.229ZM140.232 612.035C139.652 612.035 139.172 611.549 139.172 610.951C139.172 610.359 139.652 609.873 140.232 609.873C140.812 609.873 141.293 610.359 141.293 610.951C141.293 611.549 140.812 612.035 140.232 612.035Z" fill="#3F2B46"/>
<path d="M15.2366 548.559L15.2366 567.5M15.2366 567.5L43.5 564.5M15.2366 567.5L15.2366 584M94 557.5L43.5 564.5M43.5 564.5L98 561.5" stroke="#A63B31"/>
<path d="M279.809 502.455C279.809 504.793 278.631 506.176 276.709 506.176C274.787 506.176 273.609 504.793 273.609 502.455V501.09C273.609 498.752 274.787 497.369 276.709 497.369C278.631 497.369 279.809 498.752 279.809 501.09V502.455ZM276.709 505.197C277.992 505.197 278.766 504.213 278.766 502.449V501.096C278.766 499.332 277.992 498.348 276.709 498.348C275.426 498.348 274.652 499.332 274.652 501.096V502.449C274.652 504.213 275.426 505.197 276.709 505.197ZM283.482 506.111C282.27 506.111 281.461 505.35 281.461 504.195C281.461 503.07 282.27 502.402 283.717 502.326L285.463 502.238V501.664C285.463 500.867 284.977 500.428 284.092 500.428C283.359 500.428 282.844 500.738 282.68 501.283H281.701C281.818 500.264 282.803 499.566 284.104 499.566C285.598 499.566 286.453 500.328 286.453 501.652V506.006H285.504V505.051H285.404C285.1 505.73 284.408 506.111 283.482 506.111ZM283.77 505.238C284.73 505.238 285.463 504.6 285.463 503.75V503L283.828 503.076C282.938 503.117 282.469 503.498 282.469 504.16C282.469 504.828 282.967 505.238 283.77 505.238ZM290.484 502.496L293.256 499.643H294.463L291.996 502.162L294.639 506H293.455L291.287 502.842L290.408 503.686V506H289.412V497.146H290.408V502.496H290.484ZM303.832 497.545H306.645C308.285 497.545 309.357 498.617 309.357 500.258C309.357 501.893 308.273 502.965 306.621 502.965H304.869V506H303.832V497.545ZM304.869 498.465V502.045H306.387C307.617 502.045 308.309 501.406 308.309 500.258C308.309 499.104 307.617 498.465 306.387 498.465H304.869ZM316.576 506H311.309V505.174H313.482V497.973H311.326V497.146H314.479V505.174H316.576V506ZM320.572 506.111C319.359 506.111 318.551 505.35 318.551 504.195C318.551 503.07 319.359 502.402 320.807 502.326L322.553 502.238V501.664C322.553 500.867 322.066 500.428 321.182 500.428C320.449 500.428 319.934 500.738 319.77 501.283H318.791C318.908 500.264 319.893 499.566 321.193 499.566C322.688 499.566 323.543 500.328 323.543 501.652V506.006H322.594V505.051H322.494C322.189 505.73 321.498 506.111 320.572 506.111ZM320.859 505.238C321.82 505.238 322.553 504.6 322.553 503.75V503L320.918 503.076C320.027 503.117 319.559 503.498 319.559 504.16C319.559 504.828 320.057 505.238 320.859 505.238ZM326.033 506V499.643H326.988V500.762H327.07C327.41 499.971 328.137 499.525 329.104 499.525C330.486 499.525 331.236 500.352 331.236 501.875V506H330.24V502.127C330.24 500.979 329.771 500.439 328.781 500.439C327.732 500.439 327.029 501.172 327.029 502.256V506H326.033ZM334.992 502.496L337.764 499.643H338.971L336.504 502.162L339.146 506H337.963L335.795 502.842L334.916 503.686V506H333.92V497.146H334.916V502.496H334.992ZM341.156 501.359C341.156 500.258 342.094 499.52 343.494 499.52C344.818 499.52 345.715 500.182 345.832 501.242H344.871C344.754 500.686 344.221 500.346 343.477 500.346C342.668 500.346 342.146 500.721 342.146 501.301C342.146 501.787 342.475 502.062 343.271 502.238L344.168 502.443C345.404 502.725 345.967 503.264 345.967 504.184C345.967 505.355 344.988 506.117 343.482 506.117C342.041 506.117 341.086 505.443 340.975 504.354H341.988C342.135 504.939 342.697 505.279 343.518 505.279C344.385 505.279 344.936 504.887 344.936 504.277C344.936 503.773 344.625 503.504 343.816 503.322L342.873 503.105C341.725 502.842 341.156 502.262 341.156 501.359ZM360.955 501.623H359.971C359.848 500.879 359.227 500.41 358.406 500.41C357.299 500.41 356.684 501.166 356.684 502.531V503.105C356.684 504.471 357.299 505.221 358.406 505.221C359.227 505.221 359.848 504.758 359.971 504.031H360.955C360.797 505.326 359.83 506.117 358.424 506.117C356.695 506.117 355.688 505.057 355.688 503.234V502.402C355.688 500.58 356.695 499.52 358.424 499.52C359.83 499.52 360.791 500.316 360.955 501.623ZM365.725 506.117C364.043 506.117 362.971 505.021 362.971 503.305V502.344C362.971 500.627 364.043 499.531 365.725 499.531C367.406 499.531 368.479 500.627 368.479 502.344V503.305C368.479 505.021 367.406 506.117 365.725 506.117ZM365.725 500.41C364.635 500.41 363.955 501.184 363.955 502.432V503.211C363.955 504.465 364.635 505.232 365.725 505.232C366.814 505.232 367.494 504.465 367.494 503.211V502.432C367.494 501.184 366.814 500.41 365.725 500.41ZM370.541 506V499.643H371.496V500.762H371.578C371.918 499.971 372.645 499.525 373.611 499.525C374.994 499.525 375.744 500.352 375.744 501.875V506H374.748V502.127C374.748 500.979 374.279 500.439 373.289 500.439C372.24 500.439 371.537 501.172 371.537 502.256V506H370.541ZM379.477 497.938H380.461V499.66H383.039V500.51H380.473V504.096C380.473 504.787 380.959 505.162 381.855 505.162C382.213 505.162 382.852 505.145 383.021 505.127V505.971C382.863 506 382.09 506.029 381.785 506.029C380.209 506.029 379.477 505.432 379.477 504.107V500.51H377.783V499.66H379.477V497.938ZM388.09 498.084C387.621 498.084 387.264 497.732 387.264 497.264C387.264 496.801 387.621 496.449 388.09 496.449C388.559 496.449 388.916 496.801 388.916 497.264C388.916 497.732 388.559 498.084 388.09 498.084ZM390.756 506H385.488V505.174H387.668V500.469H385.506V499.643H388.652V505.174H390.756V506ZM392.795 506V499.643H393.75V500.762H393.832C394.172 499.971 394.898 499.525 395.865 499.525C397.248 499.525 397.998 500.352 397.998 501.875V506H397.002V502.127C397.002 500.979 396.533 500.439 395.543 500.439C394.494 500.439 393.791 501.172 393.791 502.256V506H392.795ZM405.416 499.643V506H404.461V504.881H404.379C404.039 505.672 403.312 506.117 402.346 506.117C400.963 506.117 400.213 505.291 400.213 503.768V499.643H401.209V503.516C401.209 504.664 401.678 505.203 402.668 505.203C403.717 505.203 404.42 504.471 404.42 503.387V499.643H405.416ZM411.949 504.359H412.916C412.723 505.408 411.715 506.117 410.379 506.117C408.633 506.117 407.619 505.068 407.619 503.258V502.303C407.619 500.627 408.691 499.525 410.309 499.525C411.961 499.525 412.934 500.621 412.934 502.461V503.082H408.604V503.34C408.604 504.506 409.295 505.256 410.379 505.256C411.182 505.256 411.773 504.916 411.949 504.359ZM410.303 500.381C409.242 500.381 408.604 501.107 408.604 502.326H411.949C411.949 501.113 411.328 500.381 410.303 500.381ZM427.67 499.643V506H426.715V504.881H426.633C426.293 505.672 425.566 506.117 424.6 506.117C423.217 506.117 422.467 505.291 422.467 503.768V499.643H423.463V503.516C423.463 504.664 423.932 505.203 424.922 505.203C425.971 505.203 426.674 504.471 426.674 503.387V499.643H427.67ZM432.885 499.537C434.355 499.537 435.316 500.598 435.316 502.232V503.416C435.316 505.045 434.355 506.105 432.885 506.105C431.965 506.105 431.291 505.713 431.016 505.016H430.904V508.145H429.891V499.643H430.875V500.615H430.98C431.314 499.912 431.977 499.537 432.885 499.537ZM432.598 500.451C431.549 500.451 430.881 501.201 430.881 502.373V503.287C430.881 504.465 431.549 505.215 432.598 505.215C433.646 505.215 434.314 504.459 434.314 503.287V502.373C434.314 501.201 433.646 500.451 432.598 500.451ZM446.385 506V500.51H444.68V499.66H446.385V499.021C446.385 497.791 447.146 497.217 448.711 497.217C449.08 497.217 449.965 497.246 450.176 497.275V498.09C449.9 498.061 449.08 498.037 448.723 498.037C447.838 498.037 447.369 498.365 447.369 499.004V499.66H450.176V500.51H447.381V506H446.385ZM454.488 503.152V505.203H456.457V506H452.232V505.203H453.516V500.439H452.104V499.643H454.477V501.266H454.605C454.84 500.088 455.631 499.479 456.855 499.479C457.219 499.479 457.564 499.531 457.775 499.619V500.738C457.482 500.633 457.072 500.562 456.727 500.562C455.32 500.562 454.488 501.535 454.488 503.152ZM462.158 506.117C460.477 506.117 459.404 505.021 459.404 503.305V502.344C459.404 500.627 460.477 499.531 462.158 499.531C463.84 499.531 464.912 500.627 464.912 502.344V503.305C464.912 505.021 463.84 506.117 462.158 506.117ZM462.158 500.41C461.068 500.41 460.389 501.184 460.389 502.432V503.211C460.389 504.465 461.068 505.232 462.158 505.232C463.248 505.232 463.928 504.465 463.928 503.211V502.432C463.928 501.184 463.248 500.41 462.158 500.41ZM472.641 501.318V506H471.744V501.611C471.744 500.838 471.463 500.434 470.93 500.434C470.373 500.434 470.033 500.92 470.033 501.711V506H469.143V501.605C469.143 500.838 468.861 500.434 468.322 500.434C467.76 500.434 467.408 500.92 467.408 501.711V506H466.512V499.643H467.402V500.539H467.508C467.666 499.9 468.123 499.525 468.721 499.525C469.318 499.525 469.74 499.895 469.875 500.521H469.98C470.145 499.912 470.654 499.525 471.293 499.525C472.178 499.525 472.641 500.141 472.641 501.318ZM275.625 511.938H276.609V513.66H279.188V514.51H276.621V518.096C276.621 518.787 277.107 519.162 278.004 519.162C278.361 519.162 279 519.145 279.17 519.127V519.971C279.012 520 278.238 520.029 277.934 520.029C276.357 520.029 275.625 519.432 275.625 518.107V514.51H273.932V513.66H275.625V511.938ZM281.52 520V511.146H282.48V514.768H282.562C282.896 513.977 283.629 513.531 284.602 513.531C285.984 513.531 286.734 514.363 286.734 515.881V520H285.738V516.133C285.738 514.99 285.27 514.445 284.273 514.445C283.225 514.445 282.516 515.178 282.516 516.262V520H281.52ZM293.262 518.359H294.229C294.035 519.408 293.027 520.117 291.691 520.117C289.945 520.117 288.932 519.068 288.932 517.258V516.303C288.932 514.627 290.004 513.525 291.621 513.525C293.273 513.525 294.246 514.621 294.246 516.461V517.082H289.916V517.34C289.916 518.506 290.607 519.256 291.691 519.256C292.494 519.256 293.086 518.916 293.262 518.359ZM291.615 514.381C290.555 514.381 289.916 515.107 289.916 516.326H293.262C293.262 515.113 292.641 514.381 291.615 514.381ZM305.982 520.105C304.512 520.105 303.551 519.045 303.551 517.41V516.227C303.551 514.598 304.512 513.537 305.982 513.537C306.902 513.537 307.582 513.93 307.857 514.627H307.963V511.146H308.977V520H307.998V519.027H307.887C307.559 519.73 306.891 520.105 305.982 520.105ZM306.275 519.197C307.318 519.197 307.992 518.447 307.992 517.27V516.355C307.992 515.184 307.318 514.434 306.275 514.434C305.227 514.434 304.553 515.184 304.553 516.355V517.27C304.553 518.441 305.227 519.197 306.275 519.197ZM313.799 520.117C312.117 520.117 311.045 519.021 311.045 517.305V516.344C311.045 514.627 312.117 513.531 313.799 513.531C315.48 513.531 316.553 514.627 316.553 516.344V517.305C316.553 519.021 315.48 520.117 313.799 520.117ZM313.799 514.41C312.709 514.41 312.029 515.184 312.029 516.432V517.211C312.029 518.465 312.709 519.232 313.799 519.232C314.889 519.232 315.568 518.465 315.568 517.211V516.432C315.568 515.184 314.889 514.41 313.799 514.41ZM321.217 520.117C319.535 520.117 318.463 519.021 318.463 517.305V516.344C318.463 514.627 319.535 513.531 321.217 513.531C322.898 513.531 323.971 514.627 323.971 516.344V517.305C323.971 519.021 322.898 520.117 321.217 520.117ZM321.217 514.41C320.127 514.41 319.447 515.184 319.447 516.432V517.211C319.447 518.465 320.127 519.232 321.217 519.232C322.307 519.232 322.986 518.465 322.986 517.211V516.432C322.986 515.184 322.307 514.41 321.217 514.41ZM328.383 517.152V519.203H330.352V520H326.127V519.203H327.41V514.439H325.998V513.643H328.371V515.266H328.5C328.734 514.088 329.525 513.479 330.75 513.479C331.113 513.479 331.459 513.531 331.67 513.619V514.738C331.377 514.633 330.967 514.562 330.621 514.562C329.215 514.562 328.383 515.535 328.383 517.152ZM342.387 511.938H343.371V513.66H345.949V514.51H343.383V518.096C343.383 518.787 343.869 519.162 344.766 519.162C345.123 519.162 345.762 519.145 345.932 519.127V519.971C345.773 520 345 520.029 344.695 520.029C343.119 520.029 342.387 519.432 342.387 518.107V514.51H340.693V513.66H342.387V511.938ZM350.889 520.117C349.207 520.117 348.135 519.021 348.135 517.305V516.344C348.135 514.627 349.207 513.531 350.889 513.531C352.57 513.531 353.643 514.627 353.643 516.344V517.305C353.643 519.021 352.57 520.117 350.889 520.117ZM350.889 514.41C349.799 514.41 349.119 515.184 349.119 516.432V517.211C349.119 518.465 349.799 519.232 350.889 519.232C351.979 519.232 352.658 518.465 352.658 517.211V516.432C352.658 515.184 351.979 514.41 350.889 514.41ZM364.641 511.938H365.625V513.66H368.203V514.51H365.637V518.096C365.637 518.787 366.123 519.162 367.02 519.162C367.377 519.162 368.016 519.145 368.186 519.127V519.971C368.027 520 367.254 520.029 366.949 520.029C365.373 520.029 364.641 519.432 364.641 518.107V514.51H362.947V513.66H364.641V511.938ZM370.535 520V511.146H371.496V514.768H371.578C371.912 513.977 372.645 513.531 373.617 513.531C375 513.531 375.75 514.363 375.75 515.881V520H374.754V516.133C374.754 514.99 374.285 514.445 373.289 514.445C372.24 514.445 371.531 515.178 371.531 516.262V520H370.535ZM382.277 518.359H383.244C383.051 519.408 382.043 520.117 380.707 520.117C378.961 520.117 377.947 519.068 377.947 517.258V516.303C377.947 514.627 379.02 513.525 380.637 513.525C382.289 513.525 383.262 514.621 383.262 516.461V517.082H378.932V517.34C378.932 518.506 379.623 519.256 380.707 519.256C381.51 519.256 382.102 518.916 382.277 518.359ZM380.631 514.381C379.57 514.381 378.932 515.107 378.932 516.326H382.277C382.277 515.113 381.656 514.381 380.631 514.381ZM394.459 520V514.51H392.754V513.66H394.459V513.021C394.459 511.791 395.221 511.217 396.785 511.217C397.154 511.217 398.039 511.246 398.25 511.275V512.09C397.975 512.061 397.154 512.037 396.797 512.037C395.912 512.037 395.443 512.365 395.443 513.004V513.66H398.25V514.51H395.455V520H394.459ZM402.562 517.152V519.203H404.531V520H400.307V519.203H401.59V514.439H400.178V513.643H402.551V515.266H402.68C402.914 514.088 403.705 513.479 404.93 513.479C405.293 513.479 405.639 513.531 405.85 513.619V514.738C405.557 514.633 405.146 514.562 404.801 514.562C403.395 514.562 402.562 515.535 402.562 517.152ZM409.588 520.111C408.375 520.111 407.566 519.35 407.566 518.195C407.566 517.07 408.375 516.402 409.822 516.326L411.568 516.238V515.664C411.568 514.867 411.082 514.428 410.197 514.428C409.465 514.428 408.949 514.738 408.785 515.283H407.807C407.924 514.264 408.908 513.566 410.209 513.566C411.703 513.566 412.559 514.328 412.559 515.652V520.006H411.609V519.051H411.51C411.205 519.73 410.514 520.111 409.588 520.111ZM409.875 519.238C410.836 519.238 411.568 518.6 411.568 517.75V517L409.934 517.076C409.043 517.117 408.574 517.498 408.574 518.16C408.574 518.828 409.072 519.238 409.875 519.238ZM420.715 515.318V520H419.818V515.611C419.818 514.838 419.537 514.434 419.004 514.434C418.447 514.434 418.107 514.92 418.107 515.711V520H417.217V515.605C417.217 514.838 416.936 514.434 416.396 514.434C415.834 514.434 415.482 514.92 415.482 515.711V520H414.586V513.643H415.477V514.539H415.582C415.74 513.9 416.197 513.525 416.795 513.525C417.393 513.525 417.814 513.895 417.949 514.521H418.055C418.219 513.912 418.729 513.525 419.367 513.525C420.252 513.525 420.715 514.141 420.715 515.318ZM426.785 518.359H427.752C427.559 519.408 426.551 520.117 425.215 520.117C423.469 520.117 422.455 519.068 422.455 517.258V516.303C422.455 514.627 423.527 513.525 425.145 513.525C426.797 513.525 427.77 514.621 427.77 516.461V517.082H423.439V517.34C423.439 518.506 424.131 519.256 425.215 519.256C426.018 519.256 426.609 518.916 426.785 518.359ZM425.139 514.381C424.078 514.381 423.439 515.107 423.439 516.326H426.785C426.785 515.113 426.164 514.381 425.139 514.381ZM432.486 520.035C431.906 520.035 431.426 519.549 431.426 518.951C431.426 518.359 431.906 517.873 432.486 517.873C433.066 517.873 433.547 518.359 433.547 518.951C433.547 519.549 433.066 520.035 432.486 520.035Z" fill="#3F2B46"/>
<path d="M5.52539 11H4.48828V2.54492H9.47461V3.49414H5.52539V6.39453H9.13477V7.31445H5.52539V11ZM13.4824 11.1113C12.2695 11.1113 11.4609 10.3496 11.4609 9.19531C11.4609 8.07031 12.2695 7.40234 13.7168 7.32617L15.4629 7.23828V6.66406C15.4629 5.86719 14.9766 5.42773 14.0918 5.42773C13.3594 5.42773 12.8438 5.73828 12.6797 6.2832H11.7012C11.8184 5.26367 12.8027 4.56641 14.1035 4.56641C15.5977 4.56641 16.4531 5.32812 16.4531 6.65234V11.0059H15.5039V10.0508H15.4043C15.0996 10.7305 14.4082 11.1113 13.4824 11.1113ZM13.7695 10.2383C14.7305 10.2383 15.4629 9.59961 15.4629 8.75V8L13.8281 8.07617C12.9375 8.11719 12.4688 8.49805 12.4688 9.16016C12.4688 9.82812 12.9668 10.2383 13.7695 10.2383ZM24.1934 6.62305H23.209C23.0859 5.87891 22.4648 5.41016 21.6445 5.41016C20.5371 5.41016 19.9219 6.16602 19.9219 7.53125V8.10547C19.9219 9.4707 20.5371 10.2207 21.6445 10.2207C22.4648 10.2207 23.0859 9.75781 23.209 9.03125H24.1934C24.0352 10.3262 23.0684 11.1172 21.6621 11.1172C19.9336 11.1172 18.9258 10.0566 18.9258 8.23438V7.40234C18.9258 5.58008 19.9336 4.51953 21.6621 4.51953C23.0684 4.51953 24.0293 5.31641 24.1934 6.62305ZM29.0742 3.08398C28.6055 3.08398 28.248 2.73242 28.248 2.26367C28.248 1.80078 28.6055 1.44922 29.0742 1.44922C29.543 1.44922 29.9004 1.80078 29.9004 2.26367C29.9004 2.73242 29.543 3.08398 29.0742 3.08398ZM31.7402 11H26.4727V10.1738H28.6523V5.46875H26.4902V4.64258H29.6367V10.1738H31.7402V11ZM33.7793 11V4.64258H34.7344V5.76172H34.8164C35.1562 4.9707 35.8828 4.52539 36.8496 4.52539C38.2324 4.52539 38.9824 5.35156 38.9824 6.875V11H37.9863V7.12695C37.9863 5.97852 37.5176 5.43945 36.5273 5.43945C35.4785 5.43945 34.7754 6.17188 34.7754 7.25586V11H33.7793ZM43.6113 13.3848C42.1406 13.3848 41.1562 12.7402 41.0273 11.6855H42.0117C42.1406 12.2129 42.7793 12.5586 43.6289 12.5586C44.7422 12.5586 45.3574 11.9961 45.3574 10.9766V9.98633H45.252C44.9707 10.6543 44.2676 11.0586 43.3418 11.0586C41.8711 11.0586 40.9043 9.99805 40.9043 8.36914V7.22656C40.9043 5.5918 41.877 4.53711 43.3652 4.53711C44.2852 4.53711 44.9824 4.94141 45.2578 5.62695H45.3691V4.64258H46.3535V11C46.3535 12.4941 45.334 13.3848 43.6113 13.3848ZM41.9062 8.22852C41.9062 9.39453 42.5859 10.1562 43.6406 10.1562C44.6895 10.1562 45.3633 9.40039 45.3633 8.22852V7.35547C45.3633 6.18359 44.6895 5.43359 43.6406 5.43359C42.5859 5.43359 41.9062 6.18945 41.9062 7.35547V8.22852ZM57.5508 2.9375H58.5352V4.66016H61.1133V5.50977H58.5469V9.0957C58.5469 9.78711 59.0332 10.1621 59.9297 10.1621C60.2871 10.1621 60.9258 10.1445 61.0957 10.127V10.9707C60.9375 11 60.1641 11.0293 59.8594 11.0293C58.2832 11.0293 57.5508 10.4316 57.5508 9.10742V5.50977H55.8574V4.66016H57.5508V2.9375ZM63.4453 11V2.14648H64.4062V5.76758H64.4883C64.8223 4.97656 65.5547 4.53125 66.5273 4.53125C67.9102 4.53125 68.6602 5.36328 68.6602 6.88086V11H67.6641V7.13281C67.6641 5.99023 67.1953 5.44531 66.1992 5.44531C65.1504 5.44531 64.4414 6.17773 64.4414 7.26172V11H63.4453ZM75.1875 9.35938H76.1543C75.9609 10.4082 74.9531 11.1172 73.6172 11.1172C71.8711 11.1172 70.8574 10.0684 70.8574 8.25781V7.30273C70.8574 5.62695 71.9297 4.52539 73.5469 4.52539C75.1992 4.52539 76.1719 5.62109 76.1719 7.46094V8.08203H71.8418V8.33984C71.8418 9.50586 72.5332 10.2559 73.6172 10.2559C74.4199 10.2559 75.0117 9.91602 75.1875 9.35938ZM73.541 5.38086C72.4805 5.38086 71.8418 6.10742 71.8418 7.32617H75.1875C75.1875 6.11328 74.5664 5.38086 73.541 5.38086ZM91.1191 11H90.0938V7.15625H86.5195V11H85.4941V2.54492H86.5195V6.20703H90.0938V2.54492H91.1191V11ZM95.7246 11.1172C94.043 11.1172 92.9707 10.0215 92.9707 8.30469V7.34375C92.9707 5.62695 94.043 4.53125 95.7246 4.53125C97.4062 4.53125 98.4785 5.62695 98.4785 7.34375V8.30469C98.4785 10.0215 97.4062 11.1172 95.7246 11.1172ZM95.7246 5.41016C94.6348 5.41016 93.9551 6.18359 93.9551 7.43164V8.21094C93.9551 9.46484 94.6348 10.2324 95.7246 10.2324C96.8145 10.2324 97.4941 9.46484 97.4941 8.21094V7.43164C97.4941 6.18359 96.8145 5.41016 95.7246 5.41016ZM106.207 6.31836V11H105.311V6.61133C105.311 5.83789 105.029 5.43359 104.496 5.43359C103.939 5.43359 103.6 5.91992 103.6 6.71094V11H102.709V6.60547C102.709 5.83789 102.428 5.43359 101.889 5.43359C101.326 5.43359 100.975 5.91992 100.975 6.71094V11H100.078V4.64258H100.969V5.53906H101.074C101.232 4.90039 101.689 4.52539 102.287 4.52539C102.885 4.52539 103.307 4.89453 103.441 5.52148H103.547C103.711 4.91211 104.221 4.52539 104.859 4.52539C105.744 4.52539 106.207 5.14062 106.207 6.31836ZM112.277 9.35938H113.244C113.051 10.4082 112.043 11.1172 110.707 11.1172C108.961 11.1172 107.947 10.0684 107.947 8.25781V7.30273C107.947 5.62695 109.02 4.52539 110.637 4.52539C112.289 4.52539 113.262 5.62109 113.262 7.46094V8.08203H108.932V8.33984C108.932 9.50586 109.623 10.2559 110.707 10.2559C111.51 10.2559 112.102 9.91602 112.277 9.35938ZM110.631 5.38086C109.57 5.38086 108.932 6.10742 108.932 7.32617H112.277C112.277 6.11328 111.656 5.38086 110.631 5.38086Z" fill="#3F2B46"/>
<path d="M246.902 41.1973C248.027 41.1973 248.742 40.5234 248.771 39.4336H249.814C249.814 41.0684 248.631 42.1758 246.902 42.1758C244.916 42.1758 243.762 40.834 243.762 38.5254V37.0195C243.762 34.7109 244.916 33.3691 246.902 33.3691C248.684 33.3691 249.785 34.4531 249.82 36.2578H248.771C248.736 35.1152 247.98 34.3477 246.896 34.3477C245.531 34.3477 244.816 35.2676 244.816 37.0195V38.5254C244.816 40.2773 245.531 41.1973 246.902 41.1973ZM251.52 42V33.1465H252.48V36.7676H252.562C252.896 35.9766 253.629 35.5312 254.602 35.5312C255.984 35.5312 256.734 36.3633 256.734 37.8809V42H255.738V38.1328C255.738 36.9902 255.27 36.4453 254.273 36.4453C253.225 36.4453 252.516 37.1777 252.516 38.2617V42H251.52ZM260.9 42.1113C259.688 42.1113 258.879 41.3496 258.879 40.1953C258.879 39.0703 259.688 38.4023 261.135 38.3262L262.881 38.2383V37.6641C262.881 36.8672 262.395 36.4277 261.51 36.4277C260.777 36.4277 260.262 36.7383 260.098 37.2832H259.119C259.236 36.2637 260.221 35.5664 261.521 35.5664C263.016 35.5664 263.871 36.3281 263.871 37.6523V42.0059H262.922V41.0508H262.822C262.518 41.7305 261.826 42.1113 260.9 42.1113ZM261.188 41.2383C262.148 41.2383 262.881 40.5996 262.881 39.75V39L261.246 39.0762C260.355 39.1172 259.887 39.498 259.887 40.1602C259.887 40.8281 260.385 41.2383 261.188 41.2383ZM272.027 37.3184V42H271.131V37.6113C271.131 36.8379 270.85 36.4336 270.316 36.4336C269.76 36.4336 269.42 36.9199 269.42 37.7109V42H268.529V37.6055C268.529 36.8379 268.248 36.4336 267.709 36.4336C267.146 36.4336 266.795 36.9199 266.795 37.7109V42H265.898V35.6426H266.789V36.5391H266.895C267.053 35.9004 267.51 35.5254 268.107 35.5254C268.705 35.5254 269.127 35.8945 269.262 36.5215H269.367C269.531 35.9121 270.041 35.5254 270.68 35.5254C271.564 35.5254 272.027 36.1406 272.027 37.3184ZM275.443 42V36.5098H273.738V35.6602H275.443V35.0215C275.443 33.791 276.205 33.2168 277.77 33.2168C278.139 33.2168 279.023 33.2461 279.234 33.2754V34.0898C278.959 34.0605 278.139 34.0371 277.781 34.0371C276.896 34.0371 276.428 34.3652 276.428 35.0039V35.6602H279.234V36.5098H276.439V42H275.443ZM285.516 40.3594H286.482C286.289 41.4082 285.281 42.1172 283.945 42.1172C282.199 42.1172 281.186 41.0684 281.186 39.2578V38.3027C281.186 36.627 282.258 35.5254 283.875 35.5254C285.527 35.5254 286.5 36.6211 286.5 38.4609V39.082H282.17V39.3398C282.17 40.5059 282.861 41.2559 283.945 41.2559C284.748 41.2559 285.34 40.916 285.516 40.3594ZM283.869 36.3809C282.809 36.3809 282.17 37.1074 282.17 38.3262H285.516C285.516 37.1133 284.895 36.3809 283.869 36.3809ZM290.965 39.1523V41.2031H292.934V42H288.709V41.2031H289.992V36.4395H288.58V35.6426H290.953V37.2656H291.082C291.316 36.0879 292.107 35.4785 293.332 35.4785C293.695 35.4785 294.041 35.5312 294.252 35.6191V36.7383C293.959 36.6328 293.549 36.5625 293.203 36.5625C291.797 36.5625 290.965 37.5352 290.965 39.1523ZM300.352 40.3594H301.318C301.125 41.4082 300.117 42.1172 298.781 42.1172C297.035 42.1172 296.021 41.0684 296.021 39.2578V38.3027C296.021 36.627 297.094 35.5254 298.711 35.5254C300.363 35.5254 301.336 36.6211 301.336 38.4609V39.082H297.006V39.3398C297.006 40.5059 297.697 41.2559 298.781 41.2559C299.584 41.2559 300.176 40.916 300.352 40.3594ZM298.705 36.3809C297.645 36.3809 297.006 37.1074 297.006 38.3262H300.352C300.352 37.1133 299.73 36.3809 298.705 36.3809ZM305.654 42.1055C304.184 42.1055 303.223 41.0449 303.223 39.4102V38.2266C303.223 36.5977 304.184 35.5371 305.654 35.5371C306.574 35.5371 307.254 35.9297 307.529 36.627H307.635V33.1465H308.648V42H307.67V41.0273H307.559C307.23 41.7305 306.562 42.1055 305.654 42.1055ZM305.947 41.1973C306.99 41.1973 307.664 40.4473 307.664 39.2695V38.3555C307.664 37.1836 306.99 36.4336 305.947 36.4336C304.898 36.4336 304.225 37.1836 304.225 38.3555V39.2695C304.225 40.4414 304.898 41.1973 305.947 41.1973ZM321.287 42.1055C320.379 42.1055 319.711 41.7305 319.383 41.0273H319.271V42H318.293V33.1465H319.307V36.627H319.412C319.693 35.9297 320.367 35.5371 321.287 35.5371C322.758 35.5371 323.719 36.5977 323.719 38.2266V39.4102C323.719 41.0449 322.758 42.1055 321.287 42.1055ZM320.994 41.1973C322.049 41.1973 322.717 40.4414 322.717 39.2695V38.3555C322.717 37.1836 322.049 36.4336 320.994 36.4336C319.951 36.4336 319.283 37.1836 319.283 38.3555V39.2695C319.283 40.4473 319.951 41.1973 320.994 41.1973ZM327.662 42.1113C326.449 42.1113 325.641 41.3496 325.641 40.1953C325.641 39.0703 326.449 38.4023 327.896 38.3262L329.643 38.2383V37.6641C329.643 36.8672 329.156 36.4277 328.271 36.4277C327.539 36.4277 327.023 36.7383 326.859 37.2832H325.881C325.998 36.2637 326.982 35.5664 328.283 35.5664C329.777 35.5664 330.633 36.3281 330.633 37.6523V42.0059H329.684V41.0508H329.584C329.279 41.7305 328.588 42.1113 327.662 42.1113ZM327.949 41.2383C328.91 41.2383 329.643 40.5996 329.643 39.75V39L328.008 39.0762C327.117 39.1172 326.648 39.498 326.648 40.1602C326.648 40.8281 327.146 41.2383 327.949 41.2383ZM338.373 37.623H337.389C337.266 36.8789 336.645 36.4102 335.824 36.4102C334.717 36.4102 334.102 37.166 334.102 38.5312V39.1055C334.102 40.4707 334.717 41.2207 335.824 41.2207C336.645 41.2207 337.266 40.7578 337.389 40.0312H338.373C338.215 41.3262 337.248 42.1172 335.842 42.1172C334.113 42.1172 333.105 41.0566 333.105 39.2344V38.4023C333.105 36.5801 334.113 35.5195 335.842 35.5195C337.248 35.5195 338.209 36.3164 338.373 37.623ZM342.082 38.4961L344.854 35.6426H346.061L343.594 38.1621L346.236 42H345.053L342.885 38.8418L342.006 39.6855V42H341.01V33.1465H342.006V38.4961H342.082ZM360.627 37.623H359.643C359.52 36.8789 358.898 36.4102 358.078 36.4102C356.971 36.4102 356.355 37.166 356.355 38.5312V39.1055C356.355 40.4707 356.971 41.2207 358.078 41.2207C358.898 41.2207 359.52 40.7578 359.643 40.0312H360.627C360.469 41.3262 359.502 42.1172 358.096 42.1172C356.367 42.1172 355.359 41.0566 355.359 39.2344V38.4023C355.359 36.5801 356.367 35.5195 358.096 35.5195C359.502 35.5195 360.463 36.3164 360.627 37.623ZM365.396 42.1172C363.715 42.1172 362.643 41.0215 362.643 39.3047V38.3438C362.643 36.627 363.715 35.5312 365.396 35.5312C367.078 35.5312 368.15 36.627 368.15 38.3438V39.3047C368.15 41.0215 367.078 42.1172 365.396 42.1172ZM365.396 36.4102C364.307 36.4102 363.627 37.1836 363.627 38.4316V39.2109C363.627 40.4648 364.307 41.2324 365.396 41.2324C366.486 41.2324 367.166 40.4648 367.166 39.2109V38.4316C367.166 37.1836 366.486 36.4102 365.396 36.4102ZM372.562 39.1523V41.2031H374.531V42H370.307V41.2031H371.59V36.4395H370.178V35.6426H372.551V37.2656H372.68C372.914 36.0879 373.705 35.4785 374.93 35.4785C375.293 35.4785 375.639 35.5312 375.85 35.6191V36.7383C375.557 36.6328 375.146 36.5625 374.801 36.5625C373.395 36.5625 372.562 37.5352 372.562 39.1523ZM377.631 42V35.6426H378.586V36.7617H378.668C379.008 35.9707 379.734 35.5254 380.701 35.5254C382.084 35.5254 382.834 36.3516 382.834 37.875V42H381.838V38.127C381.838 36.9785 381.369 36.4395 380.379 36.4395C379.33 36.4395 378.627 37.1719 378.627 38.2559V42H377.631ZM389.367 40.3594H390.334C390.141 41.4082 389.133 42.1172 387.797 42.1172C386.051 42.1172 385.037 41.0684 385.037 39.2578V38.3027C385.037 36.627 386.109 35.5254 387.727 35.5254C389.379 35.5254 390.352 36.6211 390.352 38.4609V39.082H386.021V39.3398C386.021 40.5059 386.713 41.2559 387.797 41.2559C388.6 41.2559 389.191 40.916 389.367 40.3594ZM387.721 36.3809C386.66 36.3809 386.021 37.1074 386.021 38.3262H389.367C389.367 37.1133 388.746 36.3809 387.721 36.3809ZM394.816 39.1523V41.2031H396.785V42H392.561V41.2031H393.844V36.4395H392.432V35.6426H394.805V37.2656H394.934C395.168 36.0879 395.959 35.4785 397.184 35.4785C397.547 35.4785 397.893 35.5312 398.104 35.6191V36.7383C397.811 36.6328 397.4 36.5625 397.055 36.5625C395.648 36.5625 394.816 37.5352 394.816 39.1523ZM408.82 33.9375H409.805V35.6602H412.383V36.5098H409.816V40.0957C409.816 40.7871 410.303 41.1621 411.199 41.1621C411.557 41.1621 412.195 41.1445 412.365 41.127V41.9707C412.207 42 411.434 42.0293 411.129 42.0293C409.553 42.0293 408.82 41.4316 408.82 40.1074V36.5098H407.127V35.6602H408.82V33.9375ZM417.322 42.1172C415.641 42.1172 414.568 41.0215 414.568 39.3047V38.3438C414.568 36.627 415.641 35.5312 417.322 35.5312C419.004 35.5312 420.076 36.627 420.076 38.3438V39.3047C420.076 41.0215 419.004 42.1172 417.322 42.1172ZM417.322 36.4102C416.232 36.4102 415.553 37.1836 415.553 38.4316V39.2109C415.553 40.4648 416.232 41.2324 417.322 41.2324C418.412 41.2324 419.092 40.4648 419.092 39.2109V38.4316C419.092 37.1836 418.412 36.4102 417.322 36.4102ZM246.457 53.1523V55.2031H248.426V56H244.201V55.2031H245.484V50.4395H244.072V49.6426H246.445V51.2656H246.574C246.809 50.0879 247.6 49.4785 248.824 49.4785C249.188 49.4785 249.533 49.5312 249.744 49.6191V50.7383C249.451 50.6328 249.041 50.5625 248.695 50.5625C247.289 50.5625 246.457 51.5352 246.457 53.1523ZM255.844 54.3594H256.811C256.617 55.4082 255.609 56.1172 254.273 56.1172C252.527 56.1172 251.514 55.0684 251.514 53.2578V52.3027C251.514 50.627 252.586 49.5254 254.203 49.5254C255.855 49.5254 256.828 50.6211 256.828 52.4609V53.082H252.498V53.3398C252.498 54.5059 253.189 55.2559 254.273 55.2559C255.076 55.2559 255.668 54.916 255.844 54.3594ZM254.197 50.3809C253.137 50.3809 252.498 51.1074 252.498 52.3262H255.844C255.844 51.1133 255.223 50.3809 254.197 50.3809ZM260.607 56V50.5098H258.902V49.6602H260.607V49.0215C260.607 47.791 261.369 47.2168 262.934 47.2168C263.303 47.2168 264.188 47.2461 264.398 47.2754V48.0898C264.123 48.0605 263.303 48.0371 262.945 48.0371C262.061 48.0371 261.592 48.3652 261.592 49.0039V49.6602H264.398V50.5098H261.604V56H260.607ZM271.74 56H266.473V55.1738H268.646V47.9727H266.49V47.1465H269.643V55.1738H271.74V56ZM278.098 54.3594H279.064C278.871 55.4082 277.863 56.1172 276.527 56.1172C274.781 56.1172 273.768 55.0684 273.768 53.2578V52.3027C273.768 50.627 274.84 49.5254 276.457 49.5254C278.109 49.5254 279.082 50.6211 279.082 52.4609V53.082H274.752V53.3398C274.752 54.5059 275.443 55.2559 276.527 55.2559C277.33 55.2559 277.922 54.916 278.098 54.3594ZM276.451 50.3809C275.391 50.3809 274.752 51.1074 274.752 52.3262H278.098C278.098 51.1133 277.477 50.3809 276.451 50.3809ZM286.447 51.623H285.463C285.34 50.8789 284.719 50.4102 283.898 50.4102C282.791 50.4102 282.176 51.166 282.176 52.5312V53.1055C282.176 54.4707 282.791 55.2207 283.898 55.2207C284.719 55.2207 285.34 54.7578 285.463 54.0312H286.447C286.289 55.3262 285.322 56.1172 283.916 56.1172C282.188 56.1172 281.18 55.0566 281.18 53.2344V52.4023C281.18 50.5801 282.188 49.5195 283.916 49.5195C285.322 49.5195 286.283 50.3164 286.447 51.623ZM290.133 47.9375H291.117V49.6602H293.695V50.5098H291.129V54.0957C291.129 54.7871 291.615 55.1621 292.512 55.1621C292.869 55.1621 293.508 55.1445 293.678 55.127V55.9707C293.52 56 292.746 56.0293 292.441 56.0293C290.865 56.0293 290.133 55.4316 290.133 54.1074V50.5098H288.439V49.6602H290.133V47.9375ZM305.801 53.1523V55.2031H307.77V56H303.545V55.2031H304.828V50.4395H303.416V49.6426H305.789V51.2656H305.918C306.152 50.0879 306.943 49.4785 308.168 49.4785C308.531 49.4785 308.877 49.5312 309.088 49.6191V50.7383C308.795 50.6328 308.385 50.5625 308.039 50.5625C306.633 50.5625 305.801 51.5352 305.801 53.1523ZM312.826 56.1113C311.613 56.1113 310.805 55.3496 310.805 54.1953C310.805 53.0703 311.613 52.4023 313.061 52.3262L314.807 52.2383V51.6641C314.807 50.8672 314.32 50.4277 313.436 50.4277C312.703 50.4277 312.188 50.7383 312.023 51.2832H311.045C311.162 50.2637 312.146 49.5664 313.447 49.5664C314.941 49.5664 315.797 50.3281 315.797 51.6523V56.0059H314.848V55.0508H314.748C314.443 55.7305 313.752 56.1113 312.826 56.1113ZM313.113 55.2383C314.074 55.2383 314.807 54.5996 314.807 53.75V53L313.172 53.0762C312.281 53.1172 311.812 53.498 311.812 54.1602C311.812 54.8281 312.311 55.2383 313.113 55.2383ZM323.953 51.3184V56H323.057V51.6113C323.057 50.8379 322.775 50.4336 322.242 50.4336C321.686 50.4336 321.346 50.9199 321.346 51.7109V56H320.455V51.6055C320.455 50.8379 320.174 50.4336 319.635 50.4336C319.072 50.4336 318.721 50.9199 318.721 51.7109V56H317.824V49.6426H318.715V50.5391H318.82C318.979 49.9004 319.436 49.5254 320.033 49.5254C320.631 49.5254 321.053 49.8945 321.188 50.5215H321.293C321.457 49.9121 321.967 49.5254 322.605 49.5254C323.49 49.5254 323.953 50.1406 323.953 51.3184ZM331.371 51.3184V56H330.475V51.6113C330.475 50.8379 330.193 50.4336 329.66 50.4336C329.104 50.4336 328.764 50.9199 328.764 51.7109V56H327.873V51.6055C327.873 50.8379 327.592 50.4336 327.053 50.4336C326.49 50.4336 326.139 50.9199 326.139 51.7109V56H325.242V49.6426H326.133V50.5391H326.238C326.396 49.9004 326.854 49.5254 327.451 49.5254C328.049 49.5254 328.471 49.8945 328.605 50.5215H328.711C328.875 49.9121 329.385 49.5254 330.023 49.5254C330.908 49.5254 331.371 50.1406 331.371 51.3184ZM337.441 54.3594H338.408C338.215 55.4082 337.207 56.1172 335.871 56.1172C334.125 56.1172 333.111 55.0684 333.111 53.2578V52.3027C333.111 50.627 334.184 49.5254 335.801 49.5254C337.453 49.5254 338.426 50.6211 338.426 52.4609V53.082H334.096V53.3398C334.096 54.5059 334.787 55.2559 335.871 55.2559C336.674 55.2559 337.266 54.916 337.441 54.3594ZM335.795 50.3809C334.734 50.3809 334.096 51.1074 334.096 52.3262H337.441C337.441 51.1133 336.82 50.3809 335.795 50.3809ZM342.744 56.1055C341.273 56.1055 340.312 55.0449 340.312 53.4102V52.2266C340.312 50.5977 341.273 49.5371 342.744 49.5371C343.664 49.5371 344.344 49.9297 344.619 50.627H344.725V47.1465H345.738V56H344.76V55.0273H344.648C344.32 55.7305 343.652 56.1055 342.744 56.1055ZM343.037 55.1973C344.08 55.1973 344.754 54.4473 344.754 53.2695V52.3555C344.754 51.1836 344.08 50.4336 343.037 50.4336C341.988 50.4336 341.314 51.1836 341.314 52.3555V53.2695C341.314 54.4414 341.988 55.1973 343.037 55.1973ZM359.695 54.3594H360.662C360.469 55.4082 359.461 56.1172 358.125 56.1172C356.379 56.1172 355.365 55.0684 355.365 53.2578V52.3027C355.365 50.627 356.438 49.5254 358.055 49.5254C359.707 49.5254 360.68 50.6211 360.68 52.4609V53.082H356.35V53.3398C356.35 54.5059 357.041 55.2559 358.125 55.2559C358.928 55.2559 359.52 54.916 359.695 54.3594ZM358.049 50.3809C356.988 50.3809 356.35 51.1074 356.35 52.3262H359.695C359.695 51.1133 359.074 50.3809 358.049 50.3809ZM364.752 56.1113C363.539 56.1113 362.73 55.3496 362.73 54.1953C362.73 53.0703 363.539 52.4023 364.986 52.3262L366.732 52.2383V51.6641C366.732 50.8672 366.246 50.4277 365.361 50.4277C364.629 50.4277 364.113 50.7383 363.949 51.2832H362.971C363.088 50.2637 364.072 49.5664 365.373 49.5664C366.867 49.5664 367.723 50.3281 367.723 51.6523V56.0059H366.773V55.0508H366.674C366.369 55.7305 365.678 56.1113 364.752 56.1113ZM365.039 55.2383C366 55.2383 366.732 54.5996 366.732 53.75V53L365.098 53.0762C364.207 53.1172 363.738 53.498 363.738 54.1602C363.738 54.8281 364.236 55.2383 365.039 55.2383ZM372.562 53.1523V55.2031H374.531V56H370.307V55.2031H371.59V50.4395H370.178V49.6426H372.551V51.2656H372.68C372.914 50.0879 373.705 49.4785 374.93 49.4785C375.293 49.4785 375.639 49.5312 375.85 49.6191V50.7383C375.557 50.6328 375.146 50.5625 374.801 50.5625C373.395 50.5625 372.562 51.5352 372.562 53.1523ZM379.148 47.9375H380.133V49.6602H382.711V50.5098H380.145V54.0957C380.145 54.7871 380.631 55.1621 381.527 55.1621C381.885 55.1621 382.523 55.1445 382.693 55.127V55.9707C382.535 56 381.762 56.0293 381.457 56.0293C379.881 56.0293 379.148 55.4316 379.148 54.1074V50.5098H377.455V49.6602H379.148V47.9375ZM385.043 56V47.1465H386.004V50.7676H386.086C386.42 49.9766 387.152 49.5312 388.125 49.5312C389.508 49.5312 390.258 50.3633 390.258 51.8809V56H389.262V52.1328C389.262 50.9902 388.793 50.4453 387.797 50.4453C386.748 50.4453 386.039 51.1777 386.039 52.2617V56H385.043ZM395.068 56.0352C394.488 56.0352 394.008 55.5488 394.008 54.9512C394.008 54.3594 394.488 53.873 395.068 53.873C395.648 53.873 396.129 54.3594 396.129 54.9512C396.129 55.5488 395.648 56.0352 395.068 56.0352Z" fill="#3F2B46"/>
<path d="M226.686 39.5749C226.686 39.5749 168.097 52.1203 149.183 66.0673C141.575 71.678 116 89.5856 116 89.5856M116 89.5856L130.838 91.7183C132.627 91.9754 133.812 89.9174 132.693 88.4994L121.59 74.4354C120.501 73.0562 118.29 73.6508 118.04 75.3901L116 89.5856Z" stroke="#A63B31"/>
<path d="M328 135.001C328 135.001 298 110.216 255.406 99.5297C246.236 97.2293 215 94.8785 215 94.8785M215 94.8785L224.621 106.374C225.781 107.76 228.038 107.019 228.151 105.216L229.277 87.3333C229.388 85.5796 227.345 84.5461 225.998 85.6739L215 94.8785Z" stroke="#A63B31"/>
<path d="M328 135.932C328 135.932 297 105.913 243.356 123.797C234.388 126.787 204.536 135.932 204.536 135.932M204.536 135.932L217.993 142.538C219.615 143.334 221.378 141.742 220.75 140.048L214.527 123.245C213.917 121.597 211.631 121.481 210.856 123.058L204.536 135.932Z" stroke="#A63B31"/>
<path d="M256.5 449V543L246 543M256.5 449V72H246M256.5 449C273.333 444.667 313.6 472.8 328 492" stroke="#A63B31"/>
<path d="M283.525 157H282.488V148.545H287.475V149.494H283.525V152.395H287.135V153.314H283.525V157ZM291.875 154.152V156.203H293.844V157H289.619V156.203H290.902V151.439H289.49V150.643H291.863V152.266H291.992C292.227 151.088 293.018 150.479 294.242 150.479C294.605 150.479 294.951 150.531 295.162 150.619V151.738C294.869 151.633 294.459 151.562 294.113 151.562C292.707 151.562 291.875 152.535 291.875 154.152ZM298.9 157.111C297.688 157.111 296.879 156.35 296.879 155.195C296.879 154.07 297.688 153.402 299.135 153.326L300.881 153.238V152.664C300.881 151.867 300.395 151.428 299.51 151.428C298.777 151.428 298.262 151.738 298.098 152.283H297.119C297.236 151.264 298.221 150.566 299.521 150.566C301.016 150.566 301.871 151.328 301.871 152.652V157.006H300.922V156.051H300.822C300.518 156.73 299.826 157.111 298.9 157.111ZM299.188 156.238C300.148 156.238 300.881 155.6 300.881 154.75V154L299.246 154.076C298.355 154.117 297.887 154.498 297.887 155.16C297.887 155.828 298.385 156.238 299.188 156.238ZM310.027 152.318V157H309.131V152.611C309.131 151.838 308.85 151.434 308.316 151.434C307.76 151.434 307.42 151.92 307.42 152.711V157H306.529V152.605C306.529 151.838 306.248 151.434 305.709 151.434C305.146 151.434 304.795 151.92 304.795 152.711V157H303.898V150.643H304.789V151.539H304.895C305.053 150.9 305.51 150.525 306.107 150.525C306.705 150.525 307.127 150.895 307.262 151.521H307.367C307.531 150.912 308.041 150.525 308.68 150.525C309.564 150.525 310.027 151.141 310.027 152.318ZM316.098 155.359H317.064C316.871 156.408 315.863 157.117 314.527 157.117C312.781 157.117 311.768 156.068 311.768 154.258V153.303C311.768 151.627 312.84 150.525 314.457 150.525C316.109 150.525 317.082 151.621 317.082 153.461V154.082H312.752V154.34C312.752 155.506 313.443 156.256 314.527 156.256C315.33 156.256 315.922 155.916 316.098 155.359ZM314.451 151.381C313.391 151.381 312.752 152.107 312.752 153.326H316.098C316.098 152.113 315.477 151.381 314.451 151.381ZM328.572 157.111C327.359 157.111 326.551 156.35 326.551 155.195C326.551 154.07 327.359 153.402 328.807 153.326L330.553 153.238V152.664C330.553 151.867 330.066 151.428 329.182 151.428C328.449 151.428 327.934 151.738 327.77 152.283H326.791C326.908 151.264 327.893 150.566 329.193 150.566C330.688 150.566 331.543 151.328 331.543 152.652V157.006H330.594V156.051H330.494C330.189 156.73 329.498 157.111 328.572 157.111ZM328.859 156.238C329.82 156.238 330.553 155.6 330.553 154.75V154L328.918 154.076C328.027 154.117 327.559 154.498 327.559 155.16C327.559 155.828 328.057 156.238 328.859 156.238ZM334.033 157V150.643H334.988V151.762H335.07C335.41 150.971 336.137 150.525 337.104 150.525C338.486 150.525 339.236 151.352 339.236 152.875V157H338.24V153.127C338.24 151.979 337.771 151.439 336.781 151.439C335.732 151.439 335.029 152.172 335.029 153.256V157H334.033ZM343.654 157.105C342.184 157.105 341.223 156.045 341.223 154.41V153.227C341.223 151.598 342.184 150.537 343.654 150.537C344.574 150.537 345.254 150.93 345.529 151.627H345.635V148.146H346.648V157H345.67V156.027H345.559C345.23 156.73 344.562 157.105 343.654 157.105ZM343.947 156.197C344.99 156.197 345.664 155.447 345.664 154.27V153.355C345.664 152.184 344.99 151.434 343.947 151.434C342.898 151.434 342.225 152.184 342.225 153.355V154.27C342.225 155.441 342.898 156.197 343.947 156.197ZM358.49 157.105C357.02 157.105 356.059 156.045 356.059 154.41V153.227C356.059 151.598 357.02 150.537 358.49 150.537C359.41 150.537 360.09 150.93 360.365 151.627H360.471V148.146H361.484V157H360.506V156.027H360.395C360.066 156.73 359.398 157.105 358.49 157.105ZM358.783 156.197C359.826 156.197 360.5 155.447 360.5 154.27V153.355C360.5 152.184 359.826 151.434 358.783 151.434C357.734 151.434 357.061 152.184 357.061 153.355V154.27C357.061 155.441 357.734 156.197 358.783 156.197ZM366.307 157.117C364.625 157.117 363.553 156.021 363.553 154.305V153.344C363.553 151.627 364.625 150.531 366.307 150.531C367.988 150.531 369.061 151.627 369.061 153.344V154.305C369.061 156.021 367.988 157.117 366.307 157.117ZM366.307 151.41C365.217 151.41 364.537 152.184 364.537 153.432V154.211C364.537 155.465 365.217 156.232 366.307 156.232C367.396 156.232 368.076 155.465 368.076 154.211V153.432C368.076 152.184 367.396 151.41 366.307 151.41ZM373.725 157.117C372.043 157.117 370.971 156.021 370.971 154.305V153.344C370.971 151.627 372.043 150.531 373.725 150.531C375.406 150.531 376.479 151.627 376.479 153.344V154.305C376.479 156.021 375.406 157.117 373.725 157.117ZM373.725 151.41C372.635 151.41 371.955 152.184 371.955 153.432V154.211C371.955 155.465 372.635 156.232 373.725 156.232C374.814 156.232 375.494 155.465 375.494 154.211V153.432C375.494 152.184 374.814 151.41 373.725 151.41ZM380.891 154.152V156.203H382.859V157H378.635V156.203H379.918V151.439H378.506V150.643H380.879V152.266H381.008C381.242 151.088 382.033 150.479 383.258 150.479C383.621 150.479 383.967 150.531 384.178 150.619V151.738C383.885 151.633 383.475 151.562 383.129 151.562C381.723 151.562 380.891 152.535 380.891 154.152ZM398.627 152.623H397.643C397.52 151.879 396.898 151.41 396.078 151.41C394.971 151.41 394.355 152.166 394.355 153.531V154.105C394.355 155.471 394.971 156.221 396.078 156.221C396.898 156.221 397.52 155.758 397.643 155.031H398.627C398.469 156.326 397.502 157.117 396.096 157.117C394.367 157.117 393.359 156.057 393.359 154.234V153.402C393.359 151.58 394.367 150.52 396.096 150.52C397.502 150.52 398.463 151.316 398.627 152.623ZM403.396 157.117C401.715 157.117 400.643 156.021 400.643 154.305V153.344C400.643 151.627 401.715 150.531 403.396 150.531C405.078 150.531 406.15 151.627 406.15 153.344V154.305C406.15 156.021 405.078 157.117 403.396 157.117ZM403.396 151.41C402.307 151.41 401.627 152.184 401.627 153.432V154.211C401.627 155.465 402.307 156.232 403.396 156.232C404.486 156.232 405.166 155.465 405.166 154.211V153.432C405.166 152.184 404.486 151.41 403.396 151.41ZM407.943 150.643H409.01L410.785 155.934H410.861L412.625 150.643H413.686L411.365 157H410.27L407.943 150.643ZM419.949 155.359H420.916C420.723 156.408 419.715 157.117 418.379 157.117C416.633 157.117 415.619 156.068 415.619 154.258V153.303C415.619 151.627 416.691 150.525 418.309 150.525C419.961 150.525 420.934 151.621 420.934 153.461V154.082H416.604V154.34C416.604 155.506 417.295 156.256 418.379 156.256C419.182 156.256 419.773 155.916 419.949 155.359ZM418.303 151.381C417.242 151.381 416.604 152.107 416.604 153.326H419.949C419.949 152.113 419.328 151.381 418.303 151.381ZM425.398 154.152V156.203H427.367V157H423.143V156.203H424.426V151.439H423.014V150.643H425.387V152.266H425.516C425.75 151.088 426.541 150.479 427.766 150.479C428.129 150.479 428.475 150.531 428.686 150.619V151.738C428.393 151.633 427.982 151.562 427.637 151.562C426.23 151.562 425.398 152.535 425.398 154.152ZM434.785 155.359H435.752C435.559 156.408 434.551 157.117 433.215 157.117C431.469 157.117 430.455 156.068 430.455 154.258V153.303C430.455 151.627 431.527 150.525 433.145 150.525C434.797 150.525 435.77 151.621 435.77 153.461V154.082H431.439V154.34C431.439 155.506 432.131 156.256 433.215 156.256C434.018 156.256 434.609 155.916 434.785 155.359ZM433.139 151.381C432.078 151.381 431.439 152.107 431.439 153.326H434.785C434.785 152.113 434.164 151.381 433.139 151.381ZM440.088 157.105C438.617 157.105 437.656 156.045 437.656 154.41V153.227C437.656 151.598 438.617 150.537 440.088 150.537C441.008 150.537 441.688 150.93 441.963 151.627H442.068V148.146H443.082V157H442.104V156.027H441.992C441.664 156.73 440.996 157.105 440.088 157.105ZM440.381 156.197C441.424 156.197 442.098 155.447 442.098 154.27V153.355C442.098 152.184 441.424 151.434 440.381 151.434C439.332 151.434 438.658 152.184 438.658 153.355V154.27C438.658 155.441 439.332 156.197 440.381 156.197ZM455.434 149.084C454.965 149.084 454.607 148.732 454.607 148.264C454.607 147.801 454.965 147.449 455.434 147.449C455.902 147.449 456.26 147.801 456.26 148.264C456.26 148.732 455.902 149.084 455.434 149.084ZM458.1 157H452.832V156.174H455.012V151.469H452.85V150.643H455.996V156.174H458.1V157ZM460.139 157V150.643H461.094V151.762H461.176C461.516 150.971 462.242 150.525 463.209 150.525C464.592 150.525 465.342 151.352 465.342 152.875V157H464.346V153.127C464.346 151.979 463.877 151.439 462.887 151.439C461.838 151.439 461.135 152.172 461.135 153.256V157H460.139ZM288.143 164.643L286.777 171H285.822L284.744 166.043H284.674L283.596 171H282.641L281.275 164.643H282.248L283.109 169.74H283.215L284.24 164.648H285.178L286.203 169.74H286.309L287.17 164.643H288.143ZM289.52 171V162.146H290.48V165.768H290.562C290.896 164.977 291.629 164.531 292.602 164.531C293.984 164.531 294.734 165.363 294.734 166.881V171H293.738V167.133C293.738 165.99 293.27 165.445 292.273 165.445C291.225 165.445 290.516 166.178 290.516 167.262V171H289.52ZM299.656 163.084C299.188 163.084 298.83 162.732 298.83 162.264C298.83 161.801 299.188 161.449 299.656 161.449C300.125 161.449 300.482 161.801 300.482 162.264C300.482 162.732 300.125 163.084 299.656 163.084ZM302.322 171H297.055V170.174H299.234V165.469H297.072V164.643H300.219V170.174H302.322V171ZM305.879 162.938H306.863V164.66H309.441V165.51H306.875V169.096C306.875 169.787 307.361 170.162 308.258 170.162C308.615 170.162 309.254 170.145 309.424 170.127V170.971C309.266 171 308.492 171.029 308.188 171.029C306.611 171.029 305.879 170.432 305.879 169.107V165.51H304.186V164.66H305.879V162.938ZM316.098 169.359H317.064C316.871 170.408 315.863 171.117 314.527 171.117C312.781 171.117 311.768 170.068 311.768 168.258V167.303C311.768 165.627 312.84 164.525 314.457 164.525C316.109 164.525 317.082 165.621 317.082 167.461V168.082H312.752V168.34C312.752 169.506 313.443 170.256 314.527 170.256C315.33 170.256 315.922 169.916 316.098 169.359ZM314.451 165.381C313.391 165.381 312.752 166.107 312.752 167.326H316.098C316.098 166.113 315.477 165.381 314.451 165.381ZM329.217 171.117C327.535 171.117 326.463 170.021 326.463 168.305V167.344C326.463 165.627 327.535 164.531 329.217 164.531C330.898 164.531 331.971 165.627 331.971 167.344V168.305C331.971 170.021 330.898 171.117 329.217 171.117ZM329.217 165.41C328.127 165.41 327.447 166.184 327.447 167.432V168.211C327.447 169.465 328.127 170.232 329.217 170.232C330.307 170.232 330.986 169.465 330.986 168.211V167.432C330.986 166.184 330.307 165.41 329.217 165.41ZM335.99 171.111C334.777 171.111 333.969 170.35 333.969 169.195C333.969 168.07 334.777 167.402 336.225 167.326L337.971 167.238V166.664C337.971 165.867 337.484 165.428 336.6 165.428C335.867 165.428 335.352 165.738 335.188 166.283H334.209C334.326 165.264 335.311 164.566 336.611 164.566C338.105 164.566 338.961 165.328 338.961 166.652V171.006H338.012V170.051H337.912C337.607 170.73 336.916 171.111 335.99 171.111ZM336.277 170.238C337.238 170.238 337.971 169.6 337.971 168.75V168L336.336 168.076C335.445 168.117 334.977 168.498 334.977 169.16C334.977 169.828 335.475 170.238 336.277 170.238ZM342.992 167.496L345.764 164.643H346.971L344.504 167.162L347.146 171H345.963L343.795 167.842L342.916 168.686V171H341.92V162.146H342.916V167.496H342.992ZM357.805 162.938H358.789V164.66H361.367V165.51H358.801V169.096C358.801 169.787 359.287 170.162 360.184 170.162C360.541 170.162 361.18 170.145 361.35 170.127V170.971C361.191 171 360.418 171.029 360.113 171.029C358.537 171.029 357.805 170.432 357.805 169.107V165.51H356.111V164.66H357.805V162.938ZM366.307 171.117C364.625 171.117 363.553 170.021 363.553 168.305V167.344C363.553 165.627 364.625 164.531 366.307 164.531C367.988 164.531 369.061 165.627 369.061 167.344V168.305C369.061 170.021 367.988 171.117 366.307 171.117ZM366.307 165.41C365.217 165.41 364.537 166.184 364.537 167.432V168.211C364.537 169.465 365.217 170.232 366.307 170.232C367.396 170.232 368.076 169.465 368.076 168.211V167.432C368.076 166.184 367.396 165.41 366.307 165.41ZM383.92 171H378.652V170.174H380.826V162.973H378.67V162.146H381.822V170.174H383.92V171ZM388.561 171.117C386.879 171.117 385.807 170.021 385.807 168.305V167.344C385.807 165.627 386.879 164.531 388.561 164.531C390.242 164.531 391.314 165.627 391.314 167.344V168.305C391.314 170.021 390.242 171.117 388.561 171.117ZM388.561 165.41C387.471 165.41 386.791 166.184 386.791 167.432V168.211C386.791 169.465 387.471 170.232 388.561 170.232C389.65 170.232 390.33 169.465 390.33 168.211V167.432C390.33 166.184 389.65 165.41 388.561 165.41ZM395.979 171.117C394.297 171.117 393.225 170.021 393.225 168.305V167.344C393.225 165.627 394.297 164.531 395.979 164.531C397.66 164.531 398.732 165.627 398.732 167.344V168.305C398.732 170.021 397.66 171.117 395.979 171.117ZM395.979 165.41C394.889 165.41 394.209 166.184 394.209 167.432V168.211C394.209 169.465 394.889 170.232 395.979 170.232C397.068 170.232 397.748 169.465 397.748 168.211V167.432C397.748 166.184 397.068 165.41 395.979 165.41ZM402.336 167.496L405.107 164.643H406.314L403.848 167.162L406.49 171H405.307L403.139 167.842L402.26 168.686V171H401.264V162.146H402.26V167.496H402.336ZM417.588 171.111C416.375 171.111 415.566 170.35 415.566 169.195C415.566 168.07 416.375 167.402 417.822 167.326L419.568 167.238V166.664C419.568 165.867 419.082 165.428 418.197 165.428C417.465 165.428 416.949 165.738 416.785 166.283H415.807C415.924 165.264 416.908 164.566 418.209 164.566C419.703 164.566 420.559 165.328 420.559 166.652V171.006H419.609V170.051H419.51C419.205 170.73 418.514 171.111 417.588 171.111ZM417.875 170.238C418.836 170.238 419.568 169.6 419.568 168.75V168L417.934 168.076C417.043 168.117 416.574 168.498 416.574 169.16C416.574 169.828 417.072 170.238 417.875 170.238ZM423.336 166.359C423.336 165.258 424.273 164.52 425.674 164.52C426.998 164.52 427.895 165.182 428.012 166.242H427.051C426.934 165.686 426.4 165.346 425.656 165.346C424.848 165.346 424.326 165.721 424.326 166.301C424.326 166.787 424.654 167.062 425.451 167.238L426.348 167.443C427.584 167.725 428.146 168.264 428.146 169.184C428.146 170.355 427.168 171.117 425.662 171.117C424.221 171.117 423.266 170.443 423.154 169.354H424.168C424.314 169.939 424.877 170.279 425.697 170.279C426.564 170.279 427.115 169.887 427.115 169.277C427.115 168.773 426.805 168.504 425.996 168.322L425.053 168.105C423.904 167.842 423.336 167.262 423.336 166.359ZM439.842 171.111C438.629 171.111 437.82 170.35 437.82 169.195C437.82 168.07 438.629 167.402 440.076 167.326L441.822 167.238V166.664C441.822 165.867 441.336 165.428 440.451 165.428C439.719 165.428 439.203 165.738 439.039 166.283H438.061C438.178 165.264 439.162 164.566 440.463 164.566C441.957 164.566 442.812 165.328 442.812 166.652V171.006H441.863V170.051H441.764C441.459 170.73 440.768 171.111 439.842 171.111ZM440.129 170.238C441.09 170.238 441.822 169.6 441.822 168.75V168L440.188 168.076C439.297 168.117 438.828 168.498 438.828 169.16C438.828 169.828 439.326 170.238 440.129 170.238ZM282.395 180.359C282.395 179.258 283.332 178.52 284.732 178.52C286.057 178.52 286.953 179.182 287.07 180.242H286.109C285.992 179.686 285.459 179.346 284.715 179.346C283.906 179.346 283.385 179.721 283.385 180.301C283.385 180.787 283.713 181.062 284.51 181.238L285.406 181.443C286.643 181.725 287.205 182.264 287.205 183.184C287.205 184.355 286.227 185.117 284.721 185.117C283.279 185.117 282.324 184.443 282.213 183.354H283.227C283.373 183.939 283.936 184.279 284.756 184.279C285.623 184.279 286.174 183.887 286.174 183.277C286.174 182.773 285.863 182.504 285.055 182.322L284.111 182.105C282.963 181.842 282.395 181.262 282.395 180.359ZM292.238 177.084C291.77 177.084 291.412 176.732 291.412 176.264C291.412 175.801 291.77 175.449 292.238 175.449C292.707 175.449 293.064 175.801 293.064 176.264C293.064 176.732 292.707 177.084 292.238 177.084ZM294.904 185H289.637V184.174H291.816V179.469H289.654V178.643H292.801V184.174H294.904V185ZM296.943 185V178.643H297.898V179.762H297.98C298.32 178.971 299.047 178.525 300.014 178.525C301.396 178.525 302.146 179.352 302.146 180.875V185H301.15V181.127C301.15 179.979 300.682 179.439 299.691 179.439C298.643 179.439 297.939 180.172 297.939 181.256V185H296.943ZM306.775 187.385C305.305 187.385 304.32 186.74 304.191 185.686H305.176C305.305 186.213 305.943 186.559 306.793 186.559C307.906 186.559 308.521 185.996 308.521 184.977V183.986H308.416C308.135 184.654 307.432 185.059 306.506 185.059C305.035 185.059 304.068 183.998 304.068 182.369V181.227C304.068 179.592 305.041 178.537 306.529 178.537C307.449 178.537 308.146 178.941 308.422 179.627H308.533V178.643H309.518V185C309.518 186.494 308.498 187.385 306.775 187.385ZM305.07 182.229C305.07 183.395 305.75 184.156 306.805 184.156C307.854 184.156 308.527 183.4 308.527 182.229V181.355C308.527 180.184 307.854 179.434 306.805 179.434C305.75 179.434 305.07 180.189 305.07 181.355V182.229ZM317.158 185H311.891V184.174H314.064V176.973H311.908V176.146H315.061V184.174H317.158V185ZM323.516 183.359H324.482C324.289 184.408 323.281 185.117 321.945 185.117C320.199 185.117 319.186 184.068 319.186 182.258V181.303C319.186 179.627 320.258 178.525 321.875 178.525C323.527 178.525 324.5 179.621 324.5 181.461V182.082H320.17V182.34C320.17 183.506 320.861 184.256 321.945 184.256C322.748 184.256 323.34 183.916 323.516 183.359ZM321.869 179.381C320.809 179.381 320.17 180.107 320.17 181.326H323.516C323.516 180.113 322.895 179.381 321.869 179.381ZM337.033 178.537C338.504 178.537 339.465 179.598 339.465 181.232V182.416C339.465 184.045 338.504 185.105 337.033 185.105C336.113 185.105 335.439 184.713 335.164 184.016H335.053V187.145H334.039V178.643H335.023V179.615H335.129C335.463 178.912 336.125 178.537 337.033 178.537ZM336.746 179.451C335.697 179.451 335.029 180.201 335.029 181.373V182.287C335.029 183.465 335.697 184.215 336.746 184.215C337.795 184.215 338.463 183.459 338.463 182.287V181.373C338.463 180.201 337.795 179.451 336.746 179.451ZM346.83 185H341.562V184.174H343.736V176.973H341.58V176.146H344.732V184.174H346.83V185ZM350.826 185.111C349.613 185.111 348.805 184.35 348.805 183.195C348.805 182.07 349.613 181.402 351.061 181.326L352.807 181.238V180.664C352.807 179.867 352.32 179.428 351.436 179.428C350.703 179.428 350.188 179.738 350.023 180.283H349.045C349.162 179.264 350.146 178.566 351.447 178.566C352.941 178.566 353.797 179.328 353.797 180.652V185.006H352.848V184.051H352.748C352.443 184.73 351.752 185.111 350.826 185.111ZM351.113 184.238C352.074 184.238 352.807 183.6 352.807 182.75V182L351.172 182.076C350.281 182.117 349.812 182.498 349.812 183.16C349.812 183.828 350.311 184.238 351.113 184.238ZM356.287 185V178.643H357.242V179.762H357.324C357.664 178.971 358.391 178.525 359.357 178.525C360.74 178.525 361.49 179.352 361.49 180.875V185H360.494V181.127C360.494 179.979 360.025 179.439 359.035 179.439C357.986 179.439 357.283 180.172 357.283 181.256V185H356.287ZM368.023 183.359H368.99C368.797 184.408 367.789 185.117 366.453 185.117C364.707 185.117 363.693 184.068 363.693 182.258V181.303C363.693 179.627 364.766 178.525 366.383 178.525C368.035 178.525 369.008 179.621 369.008 181.461V182.082H364.678V182.34C364.678 183.506 365.369 184.256 366.453 184.256C367.256 184.256 367.848 183.916 368.023 183.359ZM366.377 179.381C365.316 179.381 364.678 180.107 364.678 181.326H368.023C368.023 180.113 367.402 179.381 366.377 179.381ZM373.725 185.035C373.145 185.035 372.664 184.549 372.664 183.951C372.664 183.359 373.145 182.873 373.725 182.873C374.305 182.873 374.785 183.359 374.785 183.951C374.785 184.549 374.305 185.035 373.725 185.035Z" fill="#3F2B46"/>
</svg>
