<svg width="474" height="615" viewBox="0 0 474 615" fill="none" xmlns="http://www.w3.org/2000/svg">
<rect x="8.53589" y="96" width="211" height="447" fill="#494A72"/>
<path d="M55.227 503.738C55.7746 501.295 55.4826 498.987 55.2002 496.754C54.959 494.847 54.7315 493.047 55.0756 491.375C55.8915 487.411 53.3617 483.061 51.0664 479.713C48.5058 475.979 45.7351 475.45 42.0999 475.109C41.9034 475.091 41.7026 475.081 41.5034 475.081C39.0641 475.081 37.0265 476.446 35.9316 477.18C35.6476 477.37 35.3541 477.567 35.268 477.584C35.1318 477.611 34.813 477.615 34.4096 477.621C33.3262 477.635 31.5131 477.659 29.3543 478.122C27.2506 478.573 25.565 479.644 25.5964 480.51C25.6082 480.838 25.8482 481.261 26.9244 481.412C29.1794 481.727 31.1732 482.338 32.7752 482.828C33.0919 482.925 33.389 483.016 33.6646 483.098C35.3979 483.609 36.999 484.308 37.5473 487.207C37.9288 489.222 34.4634 491.535 31.4062 493.575C30.138 494.421 28.9405 495.221 27.9758 496.005C24.6116 498.738 18.197 504.278 16.1421 506.225C8.5357 512 5.86262 526.441 5.86255 529.91C6.60206 529.91 12.5766 529.474 16.345 528.397C17.1849 528.157 18.0821 528.036 19.0118 528.036C21.2721 528.036 23.454 528.739 25.3233 529.437C25.3117 529.892 25.3003 530.449 25.2885 531.134C25.2567 533.011 25.2425 534.956 25.2472 535.47C25.2533 536.188 26.6088 537.455 28.5228 539.166C29.3102 539.869 30.2766 540.734 30.4541 541.044C30.1334 541.244 29.6417 541.25 29.0318 541.257C27.9665 541.27 26.5077 541.288 24.9946 542.441C22.2334 544.547 25.197 543.715 26.2433 543.317C27.0824 542.998 27.6987 542.868 28.3714 542.868C29.2545 542.868 30.2983 543.095 31.9152 543.514C32.9055 543.77 33.7871 543.514 34.5359 543.514C35.5099 543.514 36.1809 543.689 36.9295 543.471C37.8005 543.217 38.701 542.954 40.1732 542.954C40.4467 542.954 40.7352 542.963 41.0308 542.982C41.4988 543.011 44.0871 543.659 45.0154 543.659C44.274 542.825 43.5802 542.314 42.9097 541.984C43.3196 541.904 43.6981 541.795 44.0871 541.681C44.9582 541.427 45.8586 541.165 47.3307 541.165C47.6042 541.165 47.8927 541.174 48.1883 541.193C49.8012 541.294 51.2465 542.134 51.9409 542.537C52.2401 542.711 52.3305 542.763 52.4284 542.763L52.5773 542.757L52.6331 542.633C52.7063 542.47 52.6144 542.367 52.173 541.87C50.6033 540.102 49.2443 539.776 47.8751 539.577C47.3374 539.498 46.9309 539.318 46.8866 539.138C46.8501 538.99 47.0498 538.741 47.421 538.47C48.0793 537.991 48.7414 537.748 49.389 537.748C50.5363 537.748 51.2501 538.501 51.3277 538.787C51.3627 538.917 51.4654 538.963 51.543 538.963C51.622 538.963 51.7264 538.915 51.7601 538.78C51.8236 538.528 51.7475 537.423 50.814 536.923C50.3478 536.673 49.6262 536.535 48.7821 536.535C46.7881 536.535 44.6187 537.237 42.8312 538.436C42.4751 538.363 42.0675 538.325 41.6246 538.325C41.5017 538.325 41.3779 538.328 41.2539 538.334C39.727 537.113 37.0402 534.272 36.8854 533.306C36.7835 532.669 36.7241 530.656 36.7241 528.71C36.7241 528.703 36.7241 528.696 36.7241 528.688C37.9893 528.059 39.2737 527.318 40.7632 526.441C48.2195 522.056 54.2163 508.246 55.227 503.738ZM32.4247 530.807C32.408 532.142 32.4013 533.301 32.4047 533.681C32.411 534.398 33.7662 535.665 35.6801 537.376C36.4244 538.041 37.3276 538.849 37.5745 539.198C37.4071 539.27 37.2409 539.344 37.0764 539.424C36.8217 539.459 36.5242 539.464 36.1895 539.468C35.4998 539.476 34.6449 539.488 33.7173 539.808C32.167 538.468 29.8972 535.986 29.7545 535.096C29.6773 534.614 29.649 533.34 29.633 531.905C30.2487 531.694 31.1658 531.357 32.4247 530.807Z" fill="#3F2B46"/>
<path d="M3.53594 543.745L226.536 544.05" stroke="#BEBEBE"/>
<path d="M2.41187 72H226.66V544.31H209.768V110.721H14.3421V544.31H2.41187V72Z" fill="#B1B1B1"/>
<path d="M2.41187 72H226.66V544.31H212.768V107.721H11.3421V544.31H2.41187V72Z" fill="#C7C7C7"/>
<line x1="20.0359" y1="107" x2="20.0359" y2="72" stroke="#AAAAAA"/>
<line x1="43.0359" y1="107" x2="43.0359" y2="72" stroke="#AAAAAA"/>
<line x1="66.0359" y1="107" x2="66.0359" y2="72" stroke="#AAAAAA"/>
<line x1="89.0359" y1="107" x2="89.0359" y2="72" stroke="#AAAAAA"/>
<line x1="112.036" y1="107" x2="112.036" y2="72" stroke="#AAAAAA"/>
<line x1="135.036" y1="107" x2="135.036" y2="72" stroke="#AAAAAA"/>
<line x1="158.036" y1="107" x2="158.036" y2="72" stroke="#AAAAAA"/>
<line x1="181.036" y1="107" x2="181.036" y2="72" stroke="#AAAAAA"/>
<line x1="204.036" y1="107" x2="204.036" y2="72" stroke="#AAAAAA"/>
<path d="M212.769 107.721V544.31L109.575 560.186V91.8447L212.769 107.721Z" fill="#F4F4F4"/>
<path d="M110.567 91.8447L102.629 92.837L99.1328 98.0153L98.8848 554.604L101.637 559.194L109.575 560.186L110.567 91.8447Z" fill="#E8E8E8"/>
<path d="M117.474 92.8291L117.474 558.829" stroke="#E3E3E3"/>
<path d="M129.536 95L129.536 557" stroke="#E3E3E3"/>
<path d="M141.536 97L141.536 555.419" stroke="#E3E3E3"/>
<path d="M153.536 98.79L153.536 553.24" stroke="#E3E3E3"/>
<path d="M165.536 100.79L165.536 551.79" stroke="#E3E3E3"/>
<path d="M177.536 102.768L177.536 549.768" stroke="#E3E3E3"/>
<path d="M189.536 104.752L189.536 547.752" stroke="#E3E3E3"/>
<path d="M201.536 106.729L201.536 545.729" stroke="#E3E3E3"/>
<path d="M208.536 107L208.536 545" stroke="#E3E3E3"/>
<path d="M133.389 369.674C133.389 383.923 126.281 395.473 117.513 395.473V343.876C126.281 343.876 133.389 355.426 133.389 369.674Z" fill="#FEC70B"/>
<line x1="100.036" y1="556" x2="100.036" y2="97" stroke="#919191"/>
<line x1="103.036" y1="559" x2="103.036" y2="93" stroke="#919191"/>
<path d="M5.21362 594.08V593.213H6.13354C7.08276 593.213 7.74487 592.592 7.74487 591.707C7.74487 590.846 7.11206 590.277 6.15698 590.277C5.20776 590.277 4.57495 590.834 4.49292 591.742H3.50269C3.60229 590.277 4.63354 589.369 6.198 589.369C7.70972 589.369 8.78784 590.277 8.78784 591.561C8.78784 592.58 8.25464 593.307 7.34644 593.529V593.623C8.47144 593.77 9.1394 594.561 9.1394 595.715C9.1394 597.15 7.93237 598.176 6.24487 598.176C4.57495 598.176 3.41479 597.215 3.33862 595.756H4.31714C4.41089 596.658 5.16089 597.244 6.21558 597.244C7.37573 597.244 8.09644 596.646 8.09644 595.691C8.09644 594.707 7.35229 594.08 6.18042 594.08H5.21362ZM23.0906 595.41V594.584H21.1394V593.699H24.1335V595.498C24.1335 597.086 22.9382 598.176 21.2332 598.176C19.2468 598.176 18.0984 596.84 18.0984 594.525V593.02C18.0984 590.705 19.2468 589.369 21.2332 589.369C22.991 589.369 24.0925 590.441 24.1335 592.193H23.0906C23.0437 591.092 22.2937 590.348 21.2156 590.348C19.8503 590.348 19.1414 591.268 19.1414 593.02V594.525C19.1414 596.277 19.8562 597.197 21.2214 597.197C22.3757 597.197 23.0906 596.518 23.0906 595.41ZM27.8542 598.111C26.6414 598.111 25.8328 597.35 25.8328 596.195C25.8328 595.07 26.6414 594.402 28.0886 594.326L29.8347 594.238V593.664C29.8347 592.867 29.3484 592.428 28.4636 592.428C27.7312 592.428 27.2156 592.738 27.0515 593.283H26.073C26.1902 592.264 27.1746 591.566 28.4753 591.566C29.9695 591.566 30.825 592.328 30.825 593.652V598.006H29.8757V597.051H29.7761C29.4714 597.73 28.78 598.111 27.8542 598.111ZM28.1414 597.238C29.1023 597.238 29.8347 596.6 29.8347 595.75V595L28.2 595.076C27.3093 595.117 26.8406 595.498 26.8406 596.16C26.8406 596.828 27.3386 597.238 28.1414 597.238ZM33.6023 593.359C33.6023 592.258 34.5398 591.52 35.9402 591.52C37.2644 591.52 38.1609 592.182 38.2781 593.242H37.3171C37.2 592.686 36.6667 592.346 35.9226 592.346C35.114 592.346 34.5925 592.721 34.5925 593.301C34.5925 593.787 34.9207 594.062 35.7175 594.238L36.614 594.443C37.8503 594.725 38.4128 595.264 38.4128 596.184C38.4128 597.355 37.4343 598.117 35.9285 598.117C34.4871 598.117 33.532 597.443 33.4207 596.354H34.4343C34.5808 596.939 35.1433 597.279 35.9636 597.279C36.8308 597.279 37.3816 596.887 37.3816 596.277C37.3816 595.773 37.071 595.504 36.2625 595.322L35.3191 595.105C34.1707 594.842 33.6023 594.262 33.6023 593.359ZM42.2742 594.496L45.0457 591.643H46.2527L43.7859 594.162L46.4285 598H45.2449L43.0769 594.842L42.198 595.686V598H41.2019V589.146H42.198V594.496H42.2742ZM52.4695 596.359H53.4363C53.2429 597.408 52.2351 598.117 50.8992 598.117C49.1531 598.117 48.1394 597.068 48.1394 595.258V594.303C48.1394 592.627 49.2117 591.525 50.8289 591.525C52.4812 591.525 53.4539 592.621 53.4539 594.461V595.082H49.1238V595.34C49.1238 596.506 49.8152 597.256 50.8992 597.256C51.7019 597.256 52.2937 596.916 52.4695 596.359ZM50.823 592.381C49.7625 592.381 49.1238 593.107 49.1238 594.326H52.4695C52.4695 593.113 51.8484 592.381 50.823 592.381ZM57.0867 589.938H58.071V591.66H60.6492V592.51H58.0828V596.096C58.0828 596.787 58.5691 597.162 59.4656 597.162C59.823 597.162 60.4617 597.145 60.6316 597.127V597.971C60.4734 598 59.7 598.029 59.3953 598.029C57.8191 598.029 57.0867 597.432 57.0867 596.107V592.51H55.3933V591.66H57.0867V589.938ZM63.2742 593.359C63.2742 592.258 64.2117 591.52 65.6121 591.52C66.9363 591.52 67.8328 592.182 67.95 593.242H66.989C66.8718 592.686 66.3386 592.346 65.5945 592.346C64.7859 592.346 64.2644 592.721 64.2644 593.301C64.2644 593.787 64.5925 594.062 65.3894 594.238L66.2859 594.443C67.5222 594.725 68.0847 595.264 68.0847 596.184C68.0847 597.355 67.1062 598.117 65.6003 598.117C64.1589 598.117 63.2039 597.443 63.0925 596.354H64.1062C64.2527 596.939 64.8152 597.279 65.6355 597.279C66.5027 597.279 67.0535 596.887 67.0535 596.277C67.0535 595.773 66.7429 595.504 65.9343 595.322L64.991 595.105C63.8425 594.842 63.2742 594.262 63.2742 593.359ZM79.4871 598V592.51H77.782V591.66H79.4871V591.021C79.4871 589.791 80.2488 589.217 81.8132 589.217C82.1824 589.217 83.0671 589.246 83.2781 589.275V590.09C83.0027 590.061 82.1824 590.037 81.825 590.037C80.9402 590.037 80.4714 590.365 80.4714 591.004V591.66H83.2781V592.51H80.4832V598H79.4871ZM87.8425 598.117C86.1609 598.117 85.0886 597.021 85.0886 595.305V594.344C85.0886 592.627 86.1609 591.531 87.8425 591.531C89.5242 591.531 90.5964 592.627 90.5964 594.344V595.305C90.5964 597.021 89.5242 598.117 87.8425 598.117ZM87.8425 592.41C86.7527 592.41 86.073 593.184 86.073 594.432V595.211C86.073 596.465 86.7527 597.232 87.8425 597.232C88.9324 597.232 89.6121 596.465 89.6121 595.211V594.432C89.6121 593.184 88.9324 592.41 87.8425 592.41ZM95.0085 595.152V597.203H96.9773V598H92.7527V597.203H94.0359V592.439H92.6238V591.643H94.9968V593.266H95.1257C95.3601 592.088 96.1511 591.479 97.3757 591.479C97.739 591.479 98.0847 591.531 98.2957 591.619V592.738C98.0027 592.633 97.5925 592.562 97.2468 592.562C95.8406 592.562 95.0085 593.535 95.0085 595.152ZM6.64331 605.537C8.11401 605.537 9.07495 606.598 9.07495 608.232V609.416C9.07495 611.045 8.11401 612.105 6.64331 612.105C5.72339 612.105 5.04956 611.713 4.77417 611.016H4.66284V614.145H3.64917V605.643H4.63354V606.615H4.73901C5.073 605.912 5.73511 605.537 6.64331 605.537ZM6.3562 606.451C5.30737 606.451 4.6394 607.201 4.6394 608.373V609.287C4.6394 610.465 5.30737 611.215 6.3562 611.215C7.40503 611.215 8.073 610.459 8.073 609.287V608.373C8.073 607.201 7.40503 606.451 6.3562 606.451ZM13.4109 609.152V611.203H15.3796V612H11.155V611.203H12.4382V606.439H11.0261V605.643H13.3992V607.266H13.5281C13.7625 606.088 14.5535 605.479 15.7781 605.479C16.1414 605.479 16.4871 605.531 16.698 605.619V606.738C16.405 606.633 15.9949 606.562 15.6492 606.562C14.2429 606.562 13.4109 607.535 13.4109 609.152ZM21.0808 612.117C19.3992 612.117 18.3269 611.021 18.3269 609.305V608.344C18.3269 606.627 19.3992 605.531 21.0808 605.531C22.7625 605.531 23.8347 606.627 23.8347 608.344V609.305C23.8347 611.021 22.7625 612.117 21.0808 612.117ZM21.0808 606.41C19.991 606.41 19.3113 607.184 19.3113 608.432V609.211C19.3113 610.465 19.991 611.232 21.0808 611.232C22.1707 611.232 22.8503 610.465 22.8503 609.211V608.432C22.8503 607.184 22.1707 606.41 21.0808 606.41ZM28.8972 605.537C30.3679 605.537 31.3289 606.598 31.3289 608.232V609.416C31.3289 611.045 30.3679 612.105 28.8972 612.105C27.9773 612.105 27.3035 611.713 27.0281 611.016H26.9167V614.145H25.9031V605.643H26.8875V606.615H26.9929C27.3269 605.912 27.989 605.537 28.8972 605.537ZM28.6101 606.451C27.5613 606.451 26.8933 607.201 26.8933 608.373V609.287C26.8933 610.465 27.5613 611.215 28.6101 611.215C29.6589 611.215 30.3269 610.459 30.3269 609.287V608.373C30.3269 607.201 29.6589 606.451 28.6101 606.451ZM37.6335 610.359H38.6003C38.407 611.408 37.3992 612.117 36.0632 612.117C34.3171 612.117 33.3035 611.068 33.3035 609.258V608.303C33.3035 606.627 34.3757 605.525 35.9929 605.525C37.6453 605.525 38.6179 606.621 38.6179 608.461V609.082H34.2878V609.34C34.2878 610.506 34.9792 611.256 36.0632 611.256C36.866 611.256 37.4578 610.916 37.6335 610.359ZM35.9871 606.381C34.9265 606.381 34.2878 607.107 34.2878 608.326H37.6335C37.6335 607.113 37.0125 606.381 35.9871 606.381ZM43.0828 609.152V611.203H45.0515V612H40.8269V611.203H42.1101V606.439H40.698V605.643H43.071V607.266H43.2C43.4343 606.088 44.2253 605.479 45.45 605.479C45.8132 605.479 46.1589 605.531 46.3699 605.619V606.738C46.0769 606.633 45.6667 606.562 45.321 606.562C43.9148 606.562 43.0828 607.535 43.0828 609.152ZM57.5261 612.111C56.3132 612.111 55.5046 611.35 55.5046 610.195C55.5046 609.07 56.3132 608.402 57.7605 608.326L59.5066 608.238V607.664C59.5066 606.867 59.0203 606.428 58.1355 606.428C57.4031 606.428 56.8875 606.738 56.7234 607.283H55.7449C55.8621 606.264 56.8464 605.566 58.1472 605.566C59.6414 605.566 60.4968 606.328 60.4968 607.652V612.006H59.5476V611.051H59.448C59.1433 611.73 58.4519 612.111 57.5261 612.111ZM57.8132 611.238C58.7742 611.238 59.5066 610.6 59.5066 609.75V609L57.8718 609.076C56.9812 609.117 56.5125 609.498 56.5125 610.16C56.5125 610.828 57.0105 611.238 57.8132 611.238ZM65.7 604.084C65.2312 604.084 64.8738 603.732 64.8738 603.264C64.8738 602.801 65.2312 602.449 65.7 602.449C66.1687 602.449 66.5261 602.801 66.5261 603.264C66.5261 603.732 66.1687 604.084 65.7 604.084ZM68.366 612H63.0984V611.174H65.2781V606.469H63.116V605.643H66.2625V611.174H68.366V612ZM72.7546 609.152V611.203H74.7234V612H70.4988V611.203H71.782V606.439H70.3699V605.643H72.7429V607.266H72.8718C73.1062 606.088 73.8972 605.479 75.1218 605.479C75.4851 605.479 75.8308 605.531 76.0417 605.619V606.738C75.7488 606.633 75.3386 606.562 74.9929 606.562C73.5867 606.562 72.7546 607.535 72.7546 609.152ZM85.5281 607.359C85.5281 606.258 86.4656 605.52 87.866 605.52C89.1902 605.52 90.0867 606.182 90.2039 607.242H89.2429C89.1257 606.686 88.5925 606.346 87.8484 606.346C87.0398 606.346 86.5183 606.721 86.5183 607.301C86.5183 607.787 86.8464 608.062 87.6433 608.238L88.5398 608.443C89.7761 608.725 90.3386 609.264 90.3386 610.184C90.3386 611.355 89.3601 612.117 87.8542 612.117C86.4128 612.117 85.4578 611.443 85.3464 610.354H86.3601C86.5066 610.939 87.0691 611.279 87.8894 611.279C88.7566 611.279 89.3074 610.887 89.3074 610.277C89.3074 609.773 88.9968 609.504 88.1882 609.322L87.2449 609.105C86.0964 608.842 85.5281 608.262 85.5281 607.359ZM96.9773 610.359H97.9441C97.7507 611.408 96.7429 612.117 95.407 612.117C93.6609 612.117 92.6472 611.068 92.6472 609.258V608.303C92.6472 606.627 93.7195 605.525 95.3367 605.525C96.989 605.525 97.9617 606.621 97.9617 608.461V609.082H93.6316V609.34C93.6316 610.506 94.323 611.256 95.407 611.256C96.2097 611.256 96.8015 610.916 96.9773 610.359ZM95.3308 606.381C94.2703 606.381 93.6316 607.107 93.6316 608.326H96.9773C96.9773 607.113 96.3562 606.381 95.3308 606.381ZM102.034 612.111C100.821 612.111 100.012 611.35 100.012 610.195C100.012 609.07 100.821 608.402 102.268 608.326L104.014 608.238V607.664C104.014 606.867 103.528 606.428 102.643 606.428C101.911 606.428 101.395 606.738 101.231 607.283H100.253C100.37 606.264 101.354 605.566 102.655 605.566C104.149 605.566 105.005 606.328 105.005 607.652V612.006H104.055V611.051H103.956C103.651 611.73 102.96 612.111 102.034 612.111ZM102.321 611.238C103.282 611.238 104.014 610.6 104.014 609.75V609L102.38 609.076C101.489 609.117 101.02 609.498 101.02 610.16C101.02 610.828 101.518 611.238 102.321 611.238ZM112.874 612H107.606V611.174H109.78V603.973H107.624V603.146H110.776V611.174H112.874V612ZM117.626 604.084C117.157 604.084 116.8 603.732 116.8 603.264C116.8 602.801 117.157 602.449 117.626 602.449C118.094 602.449 118.452 602.801 118.452 603.264C118.452 603.732 118.094 604.084 117.626 604.084ZM120.292 612H115.024V611.174H117.204V606.469H115.042V605.643H118.188V611.174H120.292V612ZM122.331 612V605.643H123.286V606.762H123.368C123.708 605.971 124.434 605.525 125.401 605.525C126.784 605.525 127.534 606.352 127.534 607.875V612H126.538V608.127C126.538 606.979 126.069 606.439 125.079 606.439C124.03 606.439 123.327 607.172 123.327 608.256V612H122.331ZM132.163 614.385C130.692 614.385 129.708 613.74 129.579 612.686H130.563C130.692 613.213 131.331 613.559 132.18 613.559C133.294 613.559 133.909 612.996 133.909 611.977V610.986H133.803C133.522 611.654 132.819 612.059 131.893 612.059C130.423 612.059 129.456 610.998 129.456 609.369V608.227C129.456 606.592 130.428 605.537 131.917 605.537C132.837 605.537 133.534 605.941 133.809 606.627H133.921V605.643H134.905V612C134.905 613.494 133.885 614.385 132.163 614.385ZM130.458 609.229C130.458 610.395 131.137 611.156 132.192 611.156C133.241 611.156 133.915 610.4 133.915 609.229V608.355C133.915 607.184 133.241 606.434 132.192 606.434C131.137 606.434 130.458 607.189 130.458 608.355V609.229ZM139.768 612.035C139.188 612.035 138.708 611.549 138.708 610.951C138.708 610.359 139.188 609.873 139.768 609.873C140.348 609.873 140.829 610.359 140.829 610.951C140.829 611.549 140.348 612.035 139.768 612.035Z" fill="white"/>
<path d="M14.7725 548.559L14.7725 567.5M14.7725 567.5L43.0359 564.5M14.7725 567.5L14.7725 584M93.5359 557.5L43.0359 564.5M43.0359 564.5L97.5359 561.5" stroke="#C76D65"/>
<path d="M279.345 502.455C279.345 504.793 278.167 506.176 276.245 506.176C274.323 506.176 273.146 504.793 273.146 502.455V501.09C273.146 498.752 274.323 497.369 276.245 497.369C278.167 497.369 279.345 498.752 279.345 501.09V502.455ZM276.245 505.197C277.528 505.197 278.302 504.213 278.302 502.449V501.096C278.302 499.332 277.528 498.348 276.245 498.348C274.962 498.348 274.188 499.332 274.188 501.096V502.449C274.188 504.213 274.962 505.197 276.245 505.197ZM283.019 506.111C281.806 506.111 280.997 505.35 280.997 504.195C280.997 503.07 281.806 502.402 283.253 502.326L284.999 502.238V501.664C284.999 500.867 284.513 500.428 283.628 500.428C282.896 500.428 282.38 500.738 282.216 501.283H281.237C281.354 500.264 282.339 499.566 283.64 499.566C285.134 499.566 285.989 500.328 285.989 501.652V506.006H285.04V505.051H284.94C284.636 505.73 283.944 506.111 283.019 506.111ZM283.306 505.238C284.267 505.238 284.999 504.6 284.999 503.75V503L283.364 503.076C282.474 503.117 282.005 503.498 282.005 504.16C282.005 504.828 282.503 505.238 283.306 505.238ZM290.021 502.496L292.792 499.643H293.999L291.532 502.162L294.175 506H292.991L290.823 502.842L289.944 503.686V506H288.948V497.146H289.944V502.496H290.021ZM303.368 497.545H306.181C307.821 497.545 308.894 498.617 308.894 500.258C308.894 501.893 307.81 502.965 306.157 502.965H304.405V506H303.368V497.545ZM304.405 498.465V502.045H305.923C307.153 502.045 307.845 501.406 307.845 500.258C307.845 499.104 307.153 498.465 305.923 498.465H304.405ZM316.112 506H310.845V505.174H313.019V497.973H310.862V497.146H314.015V505.174H316.112V506ZM320.108 506.111C318.896 506.111 318.087 505.35 318.087 504.195C318.087 503.07 318.896 502.402 320.343 502.326L322.089 502.238V501.664C322.089 500.867 321.603 500.428 320.718 500.428C319.985 500.428 319.47 500.738 319.306 501.283H318.327C318.444 500.264 319.429 499.566 320.729 499.566C322.224 499.566 323.079 500.328 323.079 501.652V506.006H322.13V505.051H322.03C321.726 505.73 321.034 506.111 320.108 506.111ZM320.396 505.238C321.356 505.238 322.089 504.6 322.089 503.75V503L320.454 503.076C319.563 503.117 319.095 503.498 319.095 504.16C319.095 504.828 319.593 505.238 320.396 505.238ZM325.569 506V499.643H326.524V500.762H326.606C326.946 499.971 327.673 499.525 328.64 499.525C330.022 499.525 330.772 500.352 330.772 501.875V506H329.776V502.127C329.776 500.979 329.308 500.439 328.317 500.439C327.269 500.439 326.565 501.172 326.565 502.256V506H325.569ZM334.528 502.496L337.3 499.643H338.507L336.04 502.162L338.683 506H337.499L335.331 502.842L334.452 503.686V506H333.456V497.146H334.452V502.496H334.528ZM340.692 501.359C340.692 500.258 341.63 499.52 343.03 499.52C344.354 499.52 345.251 500.182 345.368 501.242H344.407C344.29 500.686 343.757 500.346 343.013 500.346C342.204 500.346 341.683 500.721 341.683 501.301C341.683 501.787 342.011 502.062 342.808 502.238L343.704 502.443C344.94 502.725 345.503 503.264 345.503 504.184C345.503 505.355 344.524 506.117 343.019 506.117C341.577 506.117 340.622 505.443 340.511 504.354H341.524C341.671 504.939 342.233 505.279 343.054 505.279C343.921 505.279 344.472 504.887 344.472 504.277C344.472 503.773 344.161 503.504 343.353 503.322L342.409 503.105C341.261 502.842 340.692 502.262 340.692 501.359ZM360.491 501.623H359.507C359.384 500.879 358.763 500.41 357.942 500.41C356.835 500.41 356.22 501.166 356.22 502.531V503.105C356.22 504.471 356.835 505.221 357.942 505.221C358.763 505.221 359.384 504.758 359.507 504.031H360.491C360.333 505.326 359.366 506.117 357.96 506.117C356.231 506.117 355.224 505.057 355.224 503.234V502.402C355.224 500.58 356.231 499.52 357.96 499.52C359.366 499.52 360.327 500.316 360.491 501.623ZM365.261 506.117C363.579 506.117 362.507 505.021 362.507 503.305V502.344C362.507 500.627 363.579 499.531 365.261 499.531C366.942 499.531 368.015 500.627 368.015 502.344V503.305C368.015 505.021 366.942 506.117 365.261 506.117ZM365.261 500.41C364.171 500.41 363.491 501.184 363.491 502.432V503.211C363.491 504.465 364.171 505.232 365.261 505.232C366.351 505.232 367.03 504.465 367.03 503.211V502.432C367.03 501.184 366.351 500.41 365.261 500.41ZM370.077 506V499.643H371.032V500.762H371.114C371.454 499.971 372.181 499.525 373.147 499.525C374.53 499.525 375.28 500.352 375.28 501.875V506H374.284V502.127C374.284 500.979 373.815 500.439 372.825 500.439C371.776 500.439 371.073 501.172 371.073 502.256V506H370.077ZM379.013 497.938H379.997V499.66H382.575V500.51H380.009V504.096C380.009 504.787 380.495 505.162 381.392 505.162C381.749 505.162 382.388 505.145 382.558 505.127V505.971C382.399 506 381.626 506.029 381.321 506.029C379.745 506.029 379.013 505.432 379.013 504.107V500.51H377.319V499.66H379.013V497.938ZM387.626 498.084C387.157 498.084 386.8 497.732 386.8 497.264C386.8 496.801 387.157 496.449 387.626 496.449C388.095 496.449 388.452 496.801 388.452 497.264C388.452 497.732 388.095 498.084 387.626 498.084ZM390.292 506H385.024V505.174H387.204V500.469H385.042V499.643H388.188V505.174H390.292V506ZM392.331 506V499.643H393.286V500.762H393.368C393.708 499.971 394.435 499.525 395.401 499.525C396.784 499.525 397.534 500.352 397.534 501.875V506H396.538V502.127C396.538 500.979 396.069 500.439 395.079 500.439C394.03 500.439 393.327 501.172 393.327 502.256V506H392.331ZM404.952 499.643V506H403.997V504.881H403.915C403.575 505.672 402.849 506.117 401.882 506.117C400.499 506.117 399.749 505.291 399.749 503.768V499.643H400.745V503.516C400.745 504.664 401.214 505.203 402.204 505.203C403.253 505.203 403.956 504.471 403.956 503.387V499.643H404.952ZM411.485 504.359H412.452C412.259 505.408 411.251 506.117 409.915 506.117C408.169 506.117 407.155 505.068 407.155 503.258V502.303C407.155 500.627 408.228 499.525 409.845 499.525C411.497 499.525 412.47 500.621 412.47 502.461V503.082H408.14V503.34C408.14 504.506 408.831 505.256 409.915 505.256C410.718 505.256 411.31 504.916 411.485 504.359ZM409.839 500.381C408.778 500.381 408.14 501.107 408.14 502.326H411.485C411.485 501.113 410.864 500.381 409.839 500.381ZM427.206 499.643V506H426.251V504.881H426.169C425.829 505.672 425.103 506.117 424.136 506.117C422.753 506.117 422.003 505.291 422.003 503.768V499.643H422.999V503.516C422.999 504.664 423.468 505.203 424.458 505.203C425.507 505.203 426.21 504.471 426.21 503.387V499.643H427.206ZM432.421 499.537C433.892 499.537 434.853 500.598 434.853 502.232V503.416C434.853 505.045 433.892 506.105 432.421 506.105C431.501 506.105 430.827 505.713 430.552 505.016H430.44V508.145H429.427V499.643H430.411V500.615H430.517C430.851 499.912 431.513 499.537 432.421 499.537ZM432.134 500.451C431.085 500.451 430.417 501.201 430.417 502.373V503.287C430.417 504.465 431.085 505.215 432.134 505.215C433.183 505.215 433.851 504.459 433.851 503.287V502.373C433.851 501.201 433.183 500.451 432.134 500.451ZM445.921 506V500.51H444.216V499.66H445.921V499.021C445.921 497.791 446.683 497.217 448.247 497.217C448.616 497.217 449.501 497.246 449.712 497.275V498.09C449.437 498.061 448.616 498.037 448.259 498.037C447.374 498.037 446.905 498.365 446.905 499.004V499.66H449.712V500.51H446.917V506H445.921ZM454.024 503.152V505.203H455.993V506H451.769V505.203H453.052V500.439H451.64V499.643H454.013V501.266H454.142C454.376 500.088 455.167 499.479 456.392 499.479C456.755 499.479 457.101 499.531 457.312 499.619V500.738C457.019 500.633 456.608 500.562 456.263 500.562C454.856 500.562 454.024 501.535 454.024 503.152ZM461.694 506.117C460.013 506.117 458.94 505.021 458.94 503.305V502.344C458.94 500.627 460.013 499.531 461.694 499.531C463.376 499.531 464.448 500.627 464.448 502.344V503.305C464.448 505.021 463.376 506.117 461.694 506.117ZM461.694 500.41C460.604 500.41 459.925 501.184 459.925 502.432V503.211C459.925 504.465 460.604 505.232 461.694 505.232C462.784 505.232 463.464 504.465 463.464 503.211V502.432C463.464 501.184 462.784 500.41 461.694 500.41ZM472.177 501.318V506H471.28V501.611C471.28 500.838 470.999 500.434 470.466 500.434C469.909 500.434 469.569 500.92 469.569 501.711V506H468.679V501.605C468.679 500.838 468.397 500.434 467.858 500.434C467.296 500.434 466.944 500.92 466.944 501.711V506H466.048V499.643H466.938V500.539H467.044C467.202 499.9 467.659 499.525 468.257 499.525C468.854 499.525 469.276 499.895 469.411 500.521H469.517C469.681 499.912 470.19 499.525 470.829 499.525C471.714 499.525 472.177 500.141 472.177 501.318ZM275.161 511.938H276.146V513.66H278.724V514.51H276.157V518.096C276.157 518.787 276.644 519.162 277.54 519.162C277.897 519.162 278.536 519.145 278.706 519.127V519.971C278.548 520 277.774 520.029 277.47 520.029C275.894 520.029 275.161 519.432 275.161 518.107V514.51H273.468V513.66H275.161V511.938ZM281.056 520V511.146H282.017V514.768H282.099C282.433 513.977 283.165 513.531 284.138 513.531C285.521 513.531 286.271 514.363 286.271 515.881V520H285.274V516.133C285.274 514.99 284.806 514.445 283.81 514.445C282.761 514.445 282.052 515.178 282.052 516.262V520H281.056ZM292.798 518.359H293.765C293.571 519.408 292.563 520.117 291.228 520.117C289.481 520.117 288.468 519.068 288.468 517.258V516.303C288.468 514.627 289.54 513.525 291.157 513.525C292.81 513.525 293.782 514.621 293.782 516.461V517.082H289.452V517.34C289.452 518.506 290.144 519.256 291.228 519.256C292.03 519.256 292.622 518.916 292.798 518.359ZM291.151 514.381C290.091 514.381 289.452 515.107 289.452 516.326H292.798C292.798 515.113 292.177 514.381 291.151 514.381ZM305.519 520.105C304.048 520.105 303.087 519.045 303.087 517.41V516.227C303.087 514.598 304.048 513.537 305.519 513.537C306.438 513.537 307.118 513.93 307.394 514.627H307.499V511.146H308.513V520H307.534V519.027H307.423C307.095 519.73 306.427 520.105 305.519 520.105ZM305.812 519.197C306.854 519.197 307.528 518.447 307.528 517.27V516.355C307.528 515.184 306.854 514.434 305.812 514.434C304.763 514.434 304.089 515.184 304.089 516.355V517.27C304.089 518.441 304.763 519.197 305.812 519.197ZM313.335 520.117C311.653 520.117 310.581 519.021 310.581 517.305V516.344C310.581 514.627 311.653 513.531 313.335 513.531C315.017 513.531 316.089 514.627 316.089 516.344V517.305C316.089 519.021 315.017 520.117 313.335 520.117ZM313.335 514.41C312.245 514.41 311.565 515.184 311.565 516.432V517.211C311.565 518.465 312.245 519.232 313.335 519.232C314.425 519.232 315.104 518.465 315.104 517.211V516.432C315.104 515.184 314.425 514.41 313.335 514.41ZM320.753 520.117C319.071 520.117 317.999 519.021 317.999 517.305V516.344C317.999 514.627 319.071 513.531 320.753 513.531C322.435 513.531 323.507 514.627 323.507 516.344V517.305C323.507 519.021 322.435 520.117 320.753 520.117ZM320.753 514.41C319.663 514.41 318.983 515.184 318.983 516.432V517.211C318.983 518.465 319.663 519.232 320.753 519.232C321.843 519.232 322.522 518.465 322.522 517.211V516.432C322.522 515.184 321.843 514.41 320.753 514.41ZM327.919 517.152V519.203H329.888V520H325.663V519.203H326.946V514.439H325.534V513.643H327.907V515.266H328.036C328.271 514.088 329.062 513.479 330.286 513.479C330.649 513.479 330.995 513.531 331.206 513.619V514.738C330.913 514.633 330.503 514.562 330.157 514.562C328.751 514.562 327.919 515.535 327.919 517.152ZM341.923 511.938H342.907V513.66H345.485V514.51H342.919V518.096C342.919 518.787 343.405 519.162 344.302 519.162C344.659 519.162 345.298 519.145 345.468 519.127V519.971C345.31 520 344.536 520.029 344.231 520.029C342.655 520.029 341.923 519.432 341.923 518.107V514.51H340.229V513.66H341.923V511.938ZM350.425 520.117C348.743 520.117 347.671 519.021 347.671 517.305V516.344C347.671 514.627 348.743 513.531 350.425 513.531C352.106 513.531 353.179 514.627 353.179 516.344V517.305C353.179 519.021 352.106 520.117 350.425 520.117ZM350.425 514.41C349.335 514.41 348.655 515.184 348.655 516.432V517.211C348.655 518.465 349.335 519.232 350.425 519.232C351.515 519.232 352.194 518.465 352.194 517.211V516.432C352.194 515.184 351.515 514.41 350.425 514.41ZM364.177 511.938H365.161V513.66H367.739V514.51H365.173V518.096C365.173 518.787 365.659 519.162 366.556 519.162C366.913 519.162 367.552 519.145 367.722 519.127V519.971C367.563 520 366.79 520.029 366.485 520.029C364.909 520.029 364.177 519.432 364.177 518.107V514.51H362.483V513.66H364.177V511.938ZM370.071 520V511.146H371.032V514.768H371.114C371.448 513.977 372.181 513.531 373.153 513.531C374.536 513.531 375.286 514.363 375.286 515.881V520H374.29V516.133C374.29 514.99 373.821 514.445 372.825 514.445C371.776 514.445 371.067 515.178 371.067 516.262V520H370.071ZM381.813 518.359H382.78C382.587 519.408 381.579 520.117 380.243 520.117C378.497 520.117 377.483 519.068 377.483 517.258V516.303C377.483 514.627 378.556 513.525 380.173 513.525C381.825 513.525 382.798 514.621 382.798 516.461V517.082H378.468V517.34C378.468 518.506 379.159 519.256 380.243 519.256C381.046 519.256 381.638 518.916 381.813 518.359ZM380.167 514.381C379.106 514.381 378.468 515.107 378.468 516.326H381.813C381.813 515.113 381.192 514.381 380.167 514.381ZM393.995 520V514.51H392.29V513.66H393.995V513.021C393.995 511.791 394.757 511.217 396.321 511.217C396.69 511.217 397.575 511.246 397.786 511.275V512.09C397.511 512.061 396.69 512.037 396.333 512.037C395.448 512.037 394.979 512.365 394.979 513.004V513.66H397.786V514.51H394.991V520H393.995ZM402.099 517.152V519.203H404.067V520H399.843V519.203H401.126V514.439H399.714V513.643H402.087V515.266H402.216C402.45 514.088 403.241 513.479 404.466 513.479C404.829 513.479 405.175 513.531 405.386 513.619V514.738C405.093 514.633 404.683 514.562 404.337 514.562C402.931 514.562 402.099 515.535 402.099 517.152ZM409.124 520.111C407.911 520.111 407.103 519.35 407.103 518.195C407.103 517.07 407.911 516.402 409.358 516.326L411.104 516.238V515.664C411.104 514.867 410.618 514.428 409.733 514.428C409.001 514.428 408.485 514.738 408.321 515.283H407.343C407.46 514.264 408.444 513.566 409.745 513.566C411.239 513.566 412.095 514.328 412.095 515.652V520.006H411.146V519.051H411.046C410.741 519.73 410.05 520.111 409.124 520.111ZM409.411 519.238C410.372 519.238 411.104 518.6 411.104 517.75V517L409.47 517.076C408.579 517.117 408.11 517.498 408.11 518.16C408.11 518.828 408.608 519.238 409.411 519.238ZM420.251 515.318V520H419.354V515.611C419.354 514.838 419.073 514.434 418.54 514.434C417.983 514.434 417.644 514.92 417.644 515.711V520H416.753V515.605C416.753 514.838 416.472 514.434 415.933 514.434C415.37 514.434 415.019 514.92 415.019 515.711V520H414.122V513.643H415.013V514.539H415.118C415.276 513.9 415.733 513.525 416.331 513.525C416.929 513.525 417.351 513.895 417.485 514.521H417.591C417.755 513.912 418.265 513.525 418.903 513.525C419.788 513.525 420.251 514.141 420.251 515.318ZM426.321 518.359H427.288C427.095 519.408 426.087 520.117 424.751 520.117C423.005 520.117 421.991 519.068 421.991 517.258V516.303C421.991 514.627 423.063 513.525 424.681 513.525C426.333 513.525 427.306 514.621 427.306 516.461V517.082H422.976V517.34C422.976 518.506 423.667 519.256 424.751 519.256C425.554 519.256 426.146 518.916 426.321 518.359ZM424.675 514.381C423.614 514.381 422.976 515.107 422.976 516.326H426.321C426.321 515.113 425.7 514.381 424.675 514.381ZM432.022 520.035C431.442 520.035 430.962 519.549 430.962 518.951C430.962 518.359 431.442 517.873 432.022 517.873C432.603 517.873 433.083 518.359 433.083 518.951C433.083 519.549 432.603 520.035 432.022 520.035Z" fill="white"/>
<path d="M5.06128 11H4.02417V2.54492H9.0105V3.49414H5.06128V6.39453H8.67065V7.31445H5.06128V11ZM13.0183 11.1113C11.8054 11.1113 10.9968 10.3496 10.9968 9.19531C10.9968 8.07031 11.8054 7.40234 13.2527 7.32617L14.9988 7.23828V6.66406C14.9988 5.86719 14.5125 5.42773 13.6277 5.42773C12.8953 5.42773 12.3796 5.73828 12.2156 6.2832H11.2371C11.3542 5.26367 12.3386 4.56641 13.6394 4.56641C15.1335 4.56641 15.989 5.32812 15.989 6.65234V11.0059H15.0398V10.0508H14.9402C14.6355 10.7305 13.9441 11.1113 13.0183 11.1113ZM13.3054 10.2383C14.2664 10.2383 14.9988 9.59961 14.9988 8.75V8L13.364 8.07617C12.4734 8.11719 12.0046 8.49805 12.0046 9.16016C12.0046 9.82812 12.5027 10.2383 13.3054 10.2383ZM23.7292 6.62305H22.7449C22.6218 5.87891 22.0007 5.41016 21.1804 5.41016C20.073 5.41016 19.4578 6.16602 19.4578 7.53125V8.10547C19.4578 9.4707 20.073 10.2207 21.1804 10.2207C22.0007 10.2207 22.6218 9.75781 22.7449 9.03125H23.7292C23.571 10.3262 22.6042 11.1172 21.198 11.1172C19.4695 11.1172 18.4617 10.0566 18.4617 8.23438V7.40234C18.4617 5.58008 19.4695 4.51953 21.198 4.51953C22.6042 4.51953 23.5652 5.31641 23.7292 6.62305ZM28.6101 3.08398C28.1414 3.08398 27.7839 2.73242 27.7839 2.26367C27.7839 1.80078 28.1414 1.44922 28.6101 1.44922C29.0789 1.44922 29.4363 1.80078 29.4363 2.26367C29.4363 2.73242 29.0789 3.08398 28.6101 3.08398ZM31.2761 11H26.0085V10.1738H28.1882V5.46875H26.0261V4.64258H29.1726V10.1738H31.2761V11ZM33.3152 11V4.64258H34.2703V5.76172H34.3523C34.6921 4.9707 35.4187 4.52539 36.3855 4.52539C37.7683 4.52539 38.5183 5.35156 38.5183 6.875V11H37.5222V7.12695C37.5222 5.97852 37.0535 5.43945 36.0632 5.43945C35.0144 5.43945 34.3113 6.17188 34.3113 7.25586V11H33.3152ZM43.1472 13.3848C41.6765 13.3848 40.6921 12.7402 40.5632 11.6855H41.5476C41.6765 12.2129 42.3152 12.5586 43.1648 12.5586C44.2781 12.5586 44.8933 11.9961 44.8933 10.9766V9.98633H44.7878C44.5066 10.6543 43.8035 11.0586 42.8777 11.0586C41.407 11.0586 40.4402 9.99805 40.4402 8.36914V7.22656C40.4402 5.5918 41.4128 4.53711 42.9011 4.53711C43.821 4.53711 44.5183 4.94141 44.7937 5.62695H44.905V4.64258H45.8894V11C45.8894 12.4941 44.8699 13.3848 43.1472 13.3848ZM41.4421 8.22852C41.4421 9.39453 42.1218 10.1562 43.1765 10.1562C44.2253 10.1562 44.8992 9.40039 44.8992 8.22852V7.35547C44.8992 6.18359 44.2253 5.43359 43.1765 5.43359C42.1218 5.43359 41.4421 6.18945 41.4421 7.35547V8.22852ZM57.0867 2.9375H58.071V4.66016H60.6492V5.50977H58.0828V9.0957C58.0828 9.78711 58.5691 10.1621 59.4656 10.1621C59.823 10.1621 60.4617 10.1445 60.6316 10.127V10.9707C60.4734 11 59.7 11.0293 59.3953 11.0293C57.8191 11.0293 57.0867 10.4316 57.0867 9.10742V5.50977H55.3933V4.66016H57.0867V2.9375ZM62.9812 11V2.14648H63.9421V5.76758H64.0242C64.3582 4.97656 65.0906 4.53125 66.0632 4.53125C67.446 4.53125 68.196 5.36328 68.196 6.88086V11H67.2V7.13281C67.2 5.99023 66.7312 5.44531 65.7351 5.44531C64.6863 5.44531 63.9773 6.17773 63.9773 7.26172V11H62.9812ZM74.7234 9.35938H75.6902C75.4968 10.4082 74.489 11.1172 73.1531 11.1172C71.407 11.1172 70.3933 10.0684 70.3933 8.25781V7.30273C70.3933 5.62695 71.4656 4.52539 73.0828 4.52539C74.7351 4.52539 75.7078 5.62109 75.7078 7.46094V8.08203H71.3777V8.33984C71.3777 9.50586 72.0691 10.2559 73.1531 10.2559C73.9558 10.2559 74.5476 9.91602 74.7234 9.35938ZM73.0769 5.38086C72.0164 5.38086 71.3777 6.10742 71.3777 7.32617H74.7234C74.7234 6.11328 74.1023 5.38086 73.0769 5.38086ZM90.655 11H89.6296V7.15625H86.0554V11H85.03V2.54492H86.0554V6.20703H89.6296V2.54492H90.655V11ZM95.2605 11.1172C93.5789 11.1172 92.5066 10.0215 92.5066 8.30469V7.34375C92.5066 5.62695 93.5789 4.53125 95.2605 4.53125C96.9421 4.53125 98.0144 5.62695 98.0144 7.34375V8.30469C98.0144 10.0215 96.9421 11.1172 95.2605 11.1172ZM95.2605 5.41016C94.1707 5.41016 93.491 6.18359 93.491 7.43164V8.21094C93.491 9.46484 94.1707 10.2324 95.2605 10.2324C96.3503 10.2324 97.03 9.46484 97.03 8.21094V7.43164C97.03 6.18359 96.3503 5.41016 95.2605 5.41016ZM105.743 6.31836V11H104.846V6.61133C104.846 5.83789 104.565 5.43359 104.032 5.43359C103.475 5.43359 103.135 5.91992 103.135 6.71094V11H102.245V6.60547C102.245 5.83789 101.964 5.43359 101.425 5.43359C100.862 5.43359 100.51 5.91992 100.51 6.71094V11H99.614V4.64258H100.505V5.53906H100.61C100.768 4.90039 101.225 4.52539 101.823 4.52539C102.421 4.52539 102.843 4.89453 102.977 5.52148H103.083C103.247 4.91211 103.757 4.52539 104.395 4.52539C105.28 4.52539 105.743 5.14062 105.743 6.31836ZM111.813 9.35938H112.78C112.587 10.4082 111.579 11.1172 110.243 11.1172C108.497 11.1172 107.483 10.0684 107.483 8.25781V7.30273C107.483 5.62695 108.555 4.52539 110.173 4.52539C111.825 4.52539 112.798 5.62109 112.798 7.46094V8.08203H108.468V8.33984C108.468 9.50586 109.159 10.2559 110.243 10.2559C111.046 10.2559 111.637 9.91602 111.813 9.35938ZM110.167 5.38086C109.106 5.38086 108.468 6.10742 108.468 7.32617H111.813C111.813 6.11328 111.192 5.38086 110.167 5.38086Z" fill="white"/>
<path d="M246.438 41.1973C247.563 41.1973 248.278 40.5234 248.308 39.4336H249.351C249.351 41.0684 248.167 42.1758 246.438 42.1758C244.452 42.1758 243.298 40.834 243.298 38.5254V37.0195C243.298 34.7109 244.452 33.3691 246.438 33.3691C248.22 33.3691 249.321 34.4531 249.356 36.2578H248.308C248.272 35.1152 247.517 34.3477 246.433 34.3477C245.067 34.3477 244.353 35.2676 244.353 37.0195V38.5254C244.353 40.2773 245.067 41.1973 246.438 41.1973ZM251.056 42V33.1465H252.017V36.7676H252.099C252.433 35.9766 253.165 35.5312 254.138 35.5312C255.521 35.5312 256.271 36.3633 256.271 37.8809V42H255.274V38.1328C255.274 36.9902 254.806 36.4453 253.81 36.4453C252.761 36.4453 252.052 37.1777 252.052 38.2617V42H251.056ZM260.437 42.1113C259.224 42.1113 258.415 41.3496 258.415 40.1953C258.415 39.0703 259.224 38.4023 260.671 38.3262L262.417 38.2383V37.6641C262.417 36.8672 261.931 36.4277 261.046 36.4277C260.313 36.4277 259.798 36.7383 259.634 37.2832H258.655C258.772 36.2637 259.757 35.5664 261.058 35.5664C262.552 35.5664 263.407 36.3281 263.407 37.6523V42.0059H262.458V41.0508H262.358C262.054 41.7305 261.362 42.1113 260.437 42.1113ZM260.724 41.2383C261.685 41.2383 262.417 40.5996 262.417 39.75V39L260.782 39.0762C259.892 39.1172 259.423 39.498 259.423 40.1602C259.423 40.8281 259.921 41.2383 260.724 41.2383ZM271.563 37.3184V42H270.667V37.6113C270.667 36.8379 270.386 36.4336 269.853 36.4336C269.296 36.4336 268.956 36.9199 268.956 37.7109V42H268.065V37.6055C268.065 36.8379 267.784 36.4336 267.245 36.4336C266.683 36.4336 266.331 36.9199 266.331 37.7109V42H265.435V35.6426H266.325V36.5391H266.431C266.589 35.9004 267.046 35.5254 267.644 35.5254C268.241 35.5254 268.663 35.8945 268.798 36.5215H268.903C269.067 35.9121 269.577 35.5254 270.216 35.5254C271.101 35.5254 271.563 36.1406 271.563 37.3184ZM274.979 42V36.5098H273.274V35.6602H274.979V35.0215C274.979 33.791 275.741 33.2168 277.306 33.2168C277.675 33.2168 278.56 33.2461 278.771 33.2754V34.0898C278.495 34.0605 277.675 34.0371 277.317 34.0371C276.433 34.0371 275.964 34.3652 275.964 35.0039V35.6602H278.771V36.5098H275.976V42H274.979ZM285.052 40.3594H286.019C285.825 41.4082 284.817 42.1172 283.481 42.1172C281.735 42.1172 280.722 41.0684 280.722 39.2578V38.3027C280.722 36.627 281.794 35.5254 283.411 35.5254C285.063 35.5254 286.036 36.6211 286.036 38.4609V39.082H281.706V39.3398C281.706 40.5059 282.397 41.2559 283.481 41.2559C284.284 41.2559 284.876 40.916 285.052 40.3594ZM283.405 36.3809C282.345 36.3809 281.706 37.1074 281.706 38.3262H285.052C285.052 37.1133 284.431 36.3809 283.405 36.3809ZM290.501 39.1523V41.2031H292.47V42H288.245V41.2031H289.528V36.4395H288.116V35.6426H290.489V37.2656H290.618C290.853 36.0879 291.644 35.4785 292.868 35.4785C293.231 35.4785 293.577 35.5312 293.788 35.6191V36.7383C293.495 36.6328 293.085 36.5625 292.739 36.5625C291.333 36.5625 290.501 37.5352 290.501 39.1523ZM299.888 40.3594H300.854C300.661 41.4082 299.653 42.1172 298.317 42.1172C296.571 42.1172 295.558 41.0684 295.558 39.2578V38.3027C295.558 36.627 296.63 35.5254 298.247 35.5254C299.899 35.5254 300.872 36.6211 300.872 38.4609V39.082H296.542V39.3398C296.542 40.5059 297.233 41.2559 298.317 41.2559C299.12 41.2559 299.712 40.916 299.888 40.3594ZM298.241 36.3809C297.181 36.3809 296.542 37.1074 296.542 38.3262H299.888C299.888 37.1133 299.267 36.3809 298.241 36.3809ZM305.19 42.1055C303.72 42.1055 302.759 41.0449 302.759 39.4102V38.2266C302.759 36.5977 303.72 35.5371 305.19 35.5371C306.11 35.5371 306.79 35.9297 307.065 36.627H307.171V33.1465H308.185V42H307.206V41.0273H307.095C306.767 41.7305 306.099 42.1055 305.19 42.1055ZM305.483 41.1973C306.526 41.1973 307.2 40.4473 307.2 39.2695V38.3555C307.2 37.1836 306.526 36.4336 305.483 36.4336C304.435 36.4336 303.761 37.1836 303.761 38.3555V39.2695C303.761 40.4414 304.435 41.1973 305.483 41.1973ZM320.823 42.1055C319.915 42.1055 319.247 41.7305 318.919 41.0273H318.808V42H317.829V33.1465H318.843V36.627H318.948C319.229 35.9297 319.903 35.5371 320.823 35.5371C322.294 35.5371 323.255 36.5977 323.255 38.2266V39.4102C323.255 41.0449 322.294 42.1055 320.823 42.1055ZM320.53 41.1973C321.585 41.1973 322.253 40.4414 322.253 39.2695V38.3555C322.253 37.1836 321.585 36.4336 320.53 36.4336C319.487 36.4336 318.819 37.1836 318.819 38.3555V39.2695C318.819 40.4473 319.487 41.1973 320.53 41.1973ZM327.198 42.1113C325.985 42.1113 325.177 41.3496 325.177 40.1953C325.177 39.0703 325.985 38.4023 327.433 38.3262L329.179 38.2383V37.6641C329.179 36.8672 328.692 36.4277 327.808 36.4277C327.075 36.4277 326.56 36.7383 326.396 37.2832H325.417C325.534 36.2637 326.519 35.5664 327.819 35.5664C329.313 35.5664 330.169 36.3281 330.169 37.6523V42.0059H329.22V41.0508H329.12C328.815 41.7305 328.124 42.1113 327.198 42.1113ZM327.485 41.2383C328.446 41.2383 329.179 40.5996 329.179 39.75V39L327.544 39.0762C326.653 39.1172 326.185 39.498 326.185 40.1602C326.185 40.8281 326.683 41.2383 327.485 41.2383ZM337.909 37.623H336.925C336.802 36.8789 336.181 36.4102 335.36 36.4102C334.253 36.4102 333.638 37.166 333.638 38.5312V39.1055C333.638 40.4707 334.253 41.2207 335.36 41.2207C336.181 41.2207 336.802 40.7578 336.925 40.0312H337.909C337.751 41.3262 336.784 42.1172 335.378 42.1172C333.649 42.1172 332.642 41.0566 332.642 39.2344V38.4023C332.642 36.5801 333.649 35.5195 335.378 35.5195C336.784 35.5195 337.745 36.3164 337.909 37.623ZM341.618 38.4961L344.39 35.6426H345.597L343.13 38.1621L345.772 42H344.589L342.421 38.8418L341.542 39.6855V42H340.546V33.1465H341.542V38.4961H341.618ZM360.163 37.623H359.179C359.056 36.8789 358.435 36.4102 357.614 36.4102C356.507 36.4102 355.892 37.166 355.892 38.5312V39.1055C355.892 40.4707 356.507 41.2207 357.614 41.2207C358.435 41.2207 359.056 40.7578 359.179 40.0312H360.163C360.005 41.3262 359.038 42.1172 357.632 42.1172C355.903 42.1172 354.896 41.0566 354.896 39.2344V38.4023C354.896 36.5801 355.903 35.5195 357.632 35.5195C359.038 35.5195 359.999 36.3164 360.163 37.623ZM364.933 42.1172C363.251 42.1172 362.179 41.0215 362.179 39.3047V38.3438C362.179 36.627 363.251 35.5312 364.933 35.5312C366.614 35.5312 367.687 36.627 367.687 38.3438V39.3047C367.687 41.0215 366.614 42.1172 364.933 42.1172ZM364.933 36.4102C363.843 36.4102 363.163 37.1836 363.163 38.4316V39.2109C363.163 40.4648 363.843 41.2324 364.933 41.2324C366.022 41.2324 366.702 40.4648 366.702 39.2109V38.4316C366.702 37.1836 366.022 36.4102 364.933 36.4102ZM372.099 39.1523V41.2031H374.067V42H369.843V41.2031H371.126V36.4395H369.714V35.6426H372.087V37.2656H372.216C372.45 36.0879 373.241 35.4785 374.466 35.4785C374.829 35.4785 375.175 35.5312 375.386 35.6191V36.7383C375.093 36.6328 374.683 36.5625 374.337 36.5625C372.931 36.5625 372.099 37.5352 372.099 39.1523ZM377.167 42V35.6426H378.122V36.7617H378.204C378.544 35.9707 379.271 35.5254 380.237 35.5254C381.62 35.5254 382.37 36.3516 382.37 37.875V42H381.374V38.127C381.374 36.9785 380.905 36.4395 379.915 36.4395C378.866 36.4395 378.163 37.1719 378.163 38.2559V42H377.167ZM388.903 40.3594H389.87C389.677 41.4082 388.669 42.1172 387.333 42.1172C385.587 42.1172 384.573 41.0684 384.573 39.2578V38.3027C384.573 36.627 385.646 35.5254 387.263 35.5254C388.915 35.5254 389.888 36.6211 389.888 38.4609V39.082H385.558V39.3398C385.558 40.5059 386.249 41.2559 387.333 41.2559C388.136 41.2559 388.728 40.916 388.903 40.3594ZM387.257 36.3809C386.196 36.3809 385.558 37.1074 385.558 38.3262H388.903C388.903 37.1133 388.282 36.3809 387.257 36.3809ZM394.353 39.1523V41.2031H396.321V42H392.097V41.2031H393.38V36.4395H391.968V35.6426H394.341V37.2656H394.47C394.704 36.0879 395.495 35.4785 396.72 35.4785C397.083 35.4785 397.429 35.5312 397.64 35.6191V36.7383C397.347 36.6328 396.937 36.5625 396.591 36.5625C395.185 36.5625 394.353 37.5352 394.353 39.1523ZM408.356 33.9375H409.341V35.6602H411.919V36.5098H409.353V40.0957C409.353 40.7871 409.839 41.1621 410.735 41.1621C411.093 41.1621 411.731 41.1445 411.901 41.127V41.9707C411.743 42 410.97 42.0293 410.665 42.0293C409.089 42.0293 408.356 41.4316 408.356 40.1074V36.5098H406.663V35.6602H408.356V33.9375ZM416.858 42.1172C415.177 42.1172 414.104 41.0215 414.104 39.3047V38.3438C414.104 36.627 415.177 35.5312 416.858 35.5312C418.54 35.5312 419.612 36.627 419.612 38.3438V39.3047C419.612 41.0215 418.54 42.1172 416.858 42.1172ZM416.858 36.4102C415.769 36.4102 415.089 37.1836 415.089 38.4316V39.2109C415.089 40.4648 415.769 41.2324 416.858 41.2324C417.948 41.2324 418.628 40.4648 418.628 39.2109V38.4316C418.628 37.1836 417.948 36.4102 416.858 36.4102ZM245.993 53.1523V55.2031H247.962V56H243.737V55.2031H245.021V50.4395H243.608V49.6426H245.981V51.2656H246.11C246.345 50.0879 247.136 49.4785 248.36 49.4785C248.724 49.4785 249.069 49.5312 249.28 49.6191V50.7383C248.987 50.6328 248.577 50.5625 248.231 50.5625C246.825 50.5625 245.993 51.5352 245.993 53.1523ZM255.38 54.3594H256.347C256.153 55.4082 255.146 56.1172 253.81 56.1172C252.063 56.1172 251.05 55.0684 251.05 53.2578V52.3027C251.05 50.627 252.122 49.5254 253.739 49.5254C255.392 49.5254 256.364 50.6211 256.364 52.4609V53.082H252.034V53.3398C252.034 54.5059 252.726 55.2559 253.81 55.2559C254.612 55.2559 255.204 54.916 255.38 54.3594ZM253.733 50.3809C252.673 50.3809 252.034 51.1074 252.034 52.3262H255.38C255.38 51.1133 254.759 50.3809 253.733 50.3809ZM260.144 56V50.5098H258.438V49.6602H260.144V49.0215C260.144 47.791 260.905 47.2168 262.47 47.2168C262.839 47.2168 263.724 47.2461 263.935 47.2754V48.0898C263.659 48.0605 262.839 48.0371 262.481 48.0371C261.597 48.0371 261.128 48.3652 261.128 49.0039V49.6602H263.935V50.5098H261.14V56H260.144ZM271.276 56H266.009V55.1738H268.183V47.9727H266.026V47.1465H269.179V55.1738H271.276V56ZM277.634 54.3594H278.601C278.407 55.4082 277.399 56.1172 276.063 56.1172C274.317 56.1172 273.304 55.0684 273.304 53.2578V52.3027C273.304 50.627 274.376 49.5254 275.993 49.5254C277.646 49.5254 278.618 50.6211 278.618 52.4609V53.082H274.288V53.3398C274.288 54.5059 274.979 55.2559 276.063 55.2559C276.866 55.2559 277.458 54.916 277.634 54.3594ZM275.987 50.3809C274.927 50.3809 274.288 51.1074 274.288 52.3262H277.634C277.634 51.1133 277.013 50.3809 275.987 50.3809ZM285.983 51.623H284.999C284.876 50.8789 284.255 50.4102 283.435 50.4102C282.327 50.4102 281.712 51.166 281.712 52.5312V53.1055C281.712 54.4707 282.327 55.2207 283.435 55.2207C284.255 55.2207 284.876 54.7578 284.999 54.0312H285.983C285.825 55.3262 284.858 56.1172 283.452 56.1172C281.724 56.1172 280.716 55.0566 280.716 53.2344V52.4023C280.716 50.5801 281.724 49.5195 283.452 49.5195C284.858 49.5195 285.819 50.3164 285.983 51.623ZM289.669 47.9375H290.653V49.6602H293.231V50.5098H290.665V54.0957C290.665 54.7871 291.151 55.1621 292.048 55.1621C292.405 55.1621 293.044 55.1445 293.214 55.127V55.9707C293.056 56 292.282 56.0293 291.978 56.0293C290.401 56.0293 289.669 55.4316 289.669 54.1074V50.5098H287.976V49.6602H289.669V47.9375ZM305.337 53.1523V55.2031H307.306V56H303.081V55.2031H304.364V50.4395H302.952V49.6426H305.325V51.2656H305.454C305.688 50.0879 306.479 49.4785 307.704 49.4785C308.067 49.4785 308.413 49.5312 308.624 49.6191V50.7383C308.331 50.6328 307.921 50.5625 307.575 50.5625C306.169 50.5625 305.337 51.5352 305.337 53.1523ZM312.362 56.1113C311.149 56.1113 310.341 55.3496 310.341 54.1953C310.341 53.0703 311.149 52.4023 312.597 52.3262L314.343 52.2383V51.6641C314.343 50.8672 313.856 50.4277 312.972 50.4277C312.239 50.4277 311.724 50.7383 311.56 51.2832H310.581C310.698 50.2637 311.683 49.5664 312.983 49.5664C314.478 49.5664 315.333 50.3281 315.333 51.6523V56.0059H314.384V55.0508H314.284C313.979 55.7305 313.288 56.1113 312.362 56.1113ZM312.649 55.2383C313.61 55.2383 314.343 54.5996 314.343 53.75V53L312.708 53.0762C311.817 53.1172 311.349 53.498 311.349 54.1602C311.349 54.8281 311.847 55.2383 312.649 55.2383ZM323.489 51.3184V56H322.593V51.6113C322.593 50.8379 322.312 50.4336 321.778 50.4336C321.222 50.4336 320.882 50.9199 320.882 51.7109V56H319.991V51.6055C319.991 50.8379 319.71 50.4336 319.171 50.4336C318.608 50.4336 318.257 50.9199 318.257 51.7109V56H317.36V49.6426H318.251V50.5391H318.356C318.515 49.9004 318.972 49.5254 319.569 49.5254C320.167 49.5254 320.589 49.8945 320.724 50.5215H320.829C320.993 49.9121 321.503 49.5254 322.142 49.5254C323.026 49.5254 323.489 50.1406 323.489 51.3184ZM330.907 51.3184V56H330.011V51.6113C330.011 50.8379 329.729 50.4336 329.196 50.4336C328.64 50.4336 328.3 50.9199 328.3 51.7109V56H327.409V51.6055C327.409 50.8379 327.128 50.4336 326.589 50.4336C326.026 50.4336 325.675 50.9199 325.675 51.7109V56H324.778V49.6426H325.669V50.5391H325.774C325.933 49.9004 326.39 49.5254 326.987 49.5254C327.585 49.5254 328.007 49.8945 328.142 50.5215H328.247C328.411 49.9121 328.921 49.5254 329.56 49.5254C330.444 49.5254 330.907 50.1406 330.907 51.3184ZM336.978 54.3594H337.944C337.751 55.4082 336.743 56.1172 335.407 56.1172C333.661 56.1172 332.647 55.0684 332.647 53.2578V52.3027C332.647 50.627 333.72 49.5254 335.337 49.5254C336.989 49.5254 337.962 50.6211 337.962 52.4609V53.082H333.632V53.3398C333.632 54.5059 334.323 55.2559 335.407 55.2559C336.21 55.2559 336.802 54.916 336.978 54.3594ZM335.331 50.3809C334.271 50.3809 333.632 51.1074 333.632 52.3262H336.978C336.978 51.1133 336.356 50.3809 335.331 50.3809ZM342.28 56.1055C340.81 56.1055 339.849 55.0449 339.849 53.4102V52.2266C339.849 50.5977 340.81 49.5371 342.28 49.5371C343.2 49.5371 343.88 49.9297 344.155 50.627H344.261V47.1465H345.274V56H344.296V55.0273H344.185C343.856 55.7305 343.188 56.1055 342.28 56.1055ZM342.573 55.1973C343.616 55.1973 344.29 54.4473 344.29 53.2695V52.3555C344.29 51.1836 343.616 50.4336 342.573 50.4336C341.524 50.4336 340.851 51.1836 340.851 52.3555V53.2695C340.851 54.4414 341.524 55.1973 342.573 55.1973ZM359.231 54.3594H360.198C360.005 55.4082 358.997 56.1172 357.661 56.1172C355.915 56.1172 354.901 55.0684 354.901 53.2578V52.3027C354.901 50.627 355.974 49.5254 357.591 49.5254C359.243 49.5254 360.216 50.6211 360.216 52.4609V53.082H355.886V53.3398C355.886 54.5059 356.577 55.2559 357.661 55.2559C358.464 55.2559 359.056 54.916 359.231 54.3594ZM357.585 50.3809C356.524 50.3809 355.886 51.1074 355.886 52.3262H359.231C359.231 51.1133 358.61 50.3809 357.585 50.3809ZM364.288 56.1113C363.075 56.1113 362.267 55.3496 362.267 54.1953C362.267 53.0703 363.075 52.4023 364.522 52.3262L366.269 52.2383V51.6641C366.269 50.8672 365.782 50.4277 364.897 50.4277C364.165 50.4277 363.649 50.7383 363.485 51.2832H362.507C362.624 50.2637 363.608 49.5664 364.909 49.5664C366.403 49.5664 367.259 50.3281 367.259 51.6523V56.0059H366.31V55.0508H366.21C365.905 55.7305 365.214 56.1113 364.288 56.1113ZM364.575 55.2383C365.536 55.2383 366.269 54.5996 366.269 53.75V53L364.634 53.0762C363.743 53.1172 363.274 53.498 363.274 54.1602C363.274 54.8281 363.772 55.2383 364.575 55.2383ZM372.099 53.1523V55.2031H374.067V56H369.843V55.2031H371.126V50.4395H369.714V49.6426H372.087V51.2656H372.216C372.45 50.0879 373.241 49.4785 374.466 49.4785C374.829 49.4785 375.175 49.5312 375.386 49.6191V50.7383C375.093 50.6328 374.683 50.5625 374.337 50.5625C372.931 50.5625 372.099 51.5352 372.099 53.1523ZM378.685 47.9375H379.669V49.6602H382.247V50.5098H379.681V54.0957C379.681 54.7871 380.167 55.1621 381.063 55.1621C381.421 55.1621 382.06 55.1445 382.229 55.127V55.9707C382.071 56 381.298 56.0293 380.993 56.0293C379.417 56.0293 378.685 55.4316 378.685 54.1074V50.5098H376.991V49.6602H378.685V47.9375ZM384.579 56V47.1465H385.54V50.7676H385.622C385.956 49.9766 386.688 49.5312 387.661 49.5312C389.044 49.5312 389.794 50.3633 389.794 51.8809V56H388.798V52.1328C388.798 50.9902 388.329 50.4453 387.333 50.4453C386.284 50.4453 385.575 51.1777 385.575 52.2617V56H384.579ZM394.604 56.0352C394.024 56.0352 393.544 55.5488 393.544 54.9512C393.544 54.3594 394.024 53.873 394.604 53.873C395.185 53.873 395.665 54.3594 395.665 54.9512C395.665 55.5488 395.185 56.0352 394.604 56.0352Z" fill="white"/>
<path d="M226.222 39.5749C226.222 39.5749 167.633 52.1203 148.72 66.0673C141.111 71.678 115.536 89.5856 115.536 89.5856M115.536 89.5856L130.375 91.7183C132.163 91.9754 133.348 89.9174 132.229 88.4994L121.126 74.4354C120.037 73.0562 117.826 73.6508 117.576 75.3901L115.536 89.5856Z" stroke="#C76D65"/>
<path d="M327.536 135.001C327.536 135.001 297.536 110.216 254.941 99.5297C245.772 97.2293 214.536 94.8785 214.536 94.8785M214.536 94.8785L224.157 106.374C225.317 107.76 227.574 107.019 227.687 105.216L228.813 87.3333C228.924 85.5796 226.881 84.5461 225.534 85.6739L214.536 94.8785Z" stroke="#C76D65"/>
<path d="M327.536 135.932C327.536 135.932 296.536 105.913 242.892 123.797C233.924 126.787 204.072 135.932 204.072 135.932M204.072 135.932L217.529 142.538C219.151 143.334 220.913 141.742 220.286 140.048L214.063 123.245C213.453 121.597 211.167 121.481 210.392 123.058L204.072 135.932Z" stroke="#C76D65"/>
<path d="M256.036 449V543L245.536 543M256.036 449V72H245.536M256.036 449C272.869 444.667 313.136 472.8 327.536 492" stroke="#C76D65"/>
<path d="M283.062 157H282.024V148.545H287.011V149.494H283.062V152.395H286.671V153.314H283.062V157ZM291.411 154.152V156.203H293.38V157H289.155V156.203H290.438V151.439H289.026V150.643H291.399V152.266H291.528C291.763 151.088 292.554 150.479 293.778 150.479C294.142 150.479 294.487 150.531 294.698 150.619V151.738C294.405 151.633 293.995 151.562 293.649 151.562C292.243 151.562 291.411 152.535 291.411 154.152ZM298.437 157.111C297.224 157.111 296.415 156.35 296.415 155.195C296.415 154.07 297.224 153.402 298.671 153.326L300.417 153.238V152.664C300.417 151.867 299.931 151.428 299.046 151.428C298.313 151.428 297.798 151.738 297.634 152.283H296.655C296.772 151.264 297.757 150.566 299.058 150.566C300.552 150.566 301.407 151.328 301.407 152.652V157.006H300.458V156.051H300.358C300.054 156.73 299.362 157.111 298.437 157.111ZM298.724 156.238C299.685 156.238 300.417 155.6 300.417 154.75V154L298.782 154.076C297.892 154.117 297.423 154.498 297.423 155.16C297.423 155.828 297.921 156.238 298.724 156.238ZM309.563 152.318V157H308.667V152.611C308.667 151.838 308.386 151.434 307.853 151.434C307.296 151.434 306.956 151.92 306.956 152.711V157H306.065V152.605C306.065 151.838 305.784 151.434 305.245 151.434C304.683 151.434 304.331 151.92 304.331 152.711V157H303.435V150.643H304.325V151.539H304.431C304.589 150.9 305.046 150.525 305.644 150.525C306.241 150.525 306.663 150.895 306.798 151.521H306.903C307.067 150.912 307.577 150.525 308.216 150.525C309.101 150.525 309.563 151.141 309.563 152.318ZM315.634 155.359H316.601C316.407 156.408 315.399 157.117 314.063 157.117C312.317 157.117 311.304 156.068 311.304 154.258V153.303C311.304 151.627 312.376 150.525 313.993 150.525C315.646 150.525 316.618 151.621 316.618 153.461V154.082H312.288V154.34C312.288 155.506 312.979 156.256 314.063 156.256C314.866 156.256 315.458 155.916 315.634 155.359ZM313.987 151.381C312.927 151.381 312.288 152.107 312.288 153.326H315.634C315.634 152.113 315.013 151.381 313.987 151.381ZM328.108 157.111C326.896 157.111 326.087 156.35 326.087 155.195C326.087 154.07 326.896 153.402 328.343 153.326L330.089 153.238V152.664C330.089 151.867 329.603 151.428 328.718 151.428C327.985 151.428 327.47 151.738 327.306 152.283H326.327C326.444 151.264 327.429 150.566 328.729 150.566C330.224 150.566 331.079 151.328 331.079 152.652V157.006H330.13V156.051H330.03C329.726 156.73 329.034 157.111 328.108 157.111ZM328.396 156.238C329.356 156.238 330.089 155.6 330.089 154.75V154L328.454 154.076C327.563 154.117 327.095 154.498 327.095 155.16C327.095 155.828 327.593 156.238 328.396 156.238ZM333.569 157V150.643H334.524V151.762H334.606C334.946 150.971 335.673 150.525 336.64 150.525C338.022 150.525 338.772 151.352 338.772 152.875V157H337.776V153.127C337.776 151.979 337.308 151.439 336.317 151.439C335.269 151.439 334.565 152.172 334.565 153.256V157H333.569ZM343.19 157.105C341.72 157.105 340.759 156.045 340.759 154.41V153.227C340.759 151.598 341.72 150.537 343.19 150.537C344.11 150.537 344.79 150.93 345.065 151.627H345.171V148.146H346.185V157H345.206V156.027H345.095C344.767 156.73 344.099 157.105 343.19 157.105ZM343.483 156.197C344.526 156.197 345.2 155.447 345.2 154.27V153.355C345.2 152.184 344.526 151.434 343.483 151.434C342.435 151.434 341.761 152.184 341.761 153.355V154.27C341.761 155.441 342.435 156.197 343.483 156.197ZM358.026 157.105C356.556 157.105 355.595 156.045 355.595 154.41V153.227C355.595 151.598 356.556 150.537 358.026 150.537C358.946 150.537 359.626 150.93 359.901 151.627H360.007V148.146H361.021V157H360.042V156.027H359.931C359.603 156.73 358.935 157.105 358.026 157.105ZM358.319 156.197C359.362 156.197 360.036 155.447 360.036 154.27V153.355C360.036 152.184 359.362 151.434 358.319 151.434C357.271 151.434 356.597 152.184 356.597 153.355V154.27C356.597 155.441 357.271 156.197 358.319 156.197ZM365.843 157.117C364.161 157.117 363.089 156.021 363.089 154.305V153.344C363.089 151.627 364.161 150.531 365.843 150.531C367.524 150.531 368.597 151.627 368.597 153.344V154.305C368.597 156.021 367.524 157.117 365.843 157.117ZM365.843 151.41C364.753 151.41 364.073 152.184 364.073 153.432V154.211C364.073 155.465 364.753 156.232 365.843 156.232C366.933 156.232 367.612 155.465 367.612 154.211V153.432C367.612 152.184 366.933 151.41 365.843 151.41ZM373.261 157.117C371.579 157.117 370.507 156.021 370.507 154.305V153.344C370.507 151.627 371.579 150.531 373.261 150.531C374.942 150.531 376.015 151.627 376.015 153.344V154.305C376.015 156.021 374.942 157.117 373.261 157.117ZM373.261 151.41C372.171 151.41 371.491 152.184 371.491 153.432V154.211C371.491 155.465 372.171 156.232 373.261 156.232C374.351 156.232 375.03 155.465 375.03 154.211V153.432C375.03 152.184 374.351 151.41 373.261 151.41ZM380.427 154.152V156.203H382.396V157H378.171V156.203H379.454V151.439H378.042V150.643H380.415V152.266H380.544C380.778 151.088 381.569 150.479 382.794 150.479C383.157 150.479 383.503 150.531 383.714 150.619V151.738C383.421 151.633 383.011 151.562 382.665 151.562C381.259 151.562 380.427 152.535 380.427 154.152ZM398.163 152.623H397.179C397.056 151.879 396.435 151.41 395.614 151.41C394.507 151.41 393.892 152.166 393.892 153.531V154.105C393.892 155.471 394.507 156.221 395.614 156.221C396.435 156.221 397.056 155.758 397.179 155.031H398.163C398.005 156.326 397.038 157.117 395.632 157.117C393.903 157.117 392.896 156.057 392.896 154.234V153.402C392.896 151.58 393.903 150.52 395.632 150.52C397.038 150.52 397.999 151.316 398.163 152.623ZM402.933 157.117C401.251 157.117 400.179 156.021 400.179 154.305V153.344C400.179 151.627 401.251 150.531 402.933 150.531C404.614 150.531 405.687 151.627 405.687 153.344V154.305C405.687 156.021 404.614 157.117 402.933 157.117ZM402.933 151.41C401.843 151.41 401.163 152.184 401.163 153.432V154.211C401.163 155.465 401.843 156.232 402.933 156.232C404.022 156.232 404.702 155.465 404.702 154.211V153.432C404.702 152.184 404.022 151.41 402.933 151.41ZM407.479 150.643H408.546L410.321 155.934H410.397L412.161 150.643H413.222L410.901 157H409.806L407.479 150.643ZM419.485 155.359H420.452C420.259 156.408 419.251 157.117 417.915 157.117C416.169 157.117 415.155 156.068 415.155 154.258V153.303C415.155 151.627 416.228 150.525 417.845 150.525C419.497 150.525 420.47 151.621 420.47 153.461V154.082H416.14V154.34C416.14 155.506 416.831 156.256 417.915 156.256C418.718 156.256 419.31 155.916 419.485 155.359ZM417.839 151.381C416.778 151.381 416.14 152.107 416.14 153.326H419.485C419.485 152.113 418.864 151.381 417.839 151.381ZM424.935 154.152V156.203H426.903V157H422.679V156.203H423.962V151.439H422.55V150.643H424.923V152.266H425.052C425.286 151.088 426.077 150.479 427.302 150.479C427.665 150.479 428.011 150.531 428.222 150.619V151.738C427.929 151.633 427.519 151.562 427.173 151.562C425.767 151.562 424.935 152.535 424.935 154.152ZM434.321 155.359H435.288C435.095 156.408 434.087 157.117 432.751 157.117C431.005 157.117 429.991 156.068 429.991 154.258V153.303C429.991 151.627 431.063 150.525 432.681 150.525C434.333 150.525 435.306 151.621 435.306 153.461V154.082H430.976V154.34C430.976 155.506 431.667 156.256 432.751 156.256C433.554 156.256 434.146 155.916 434.321 155.359ZM432.675 151.381C431.614 151.381 430.976 152.107 430.976 153.326H434.321C434.321 152.113 433.7 151.381 432.675 151.381ZM439.624 157.105C438.153 157.105 437.192 156.045 437.192 154.41V153.227C437.192 151.598 438.153 150.537 439.624 150.537C440.544 150.537 441.224 150.93 441.499 151.627H441.604V148.146H442.618V157H441.64V156.027H441.528C441.2 156.73 440.532 157.105 439.624 157.105ZM439.917 156.197C440.96 156.197 441.634 155.447 441.634 154.27V153.355C441.634 152.184 440.96 151.434 439.917 151.434C438.868 151.434 438.194 152.184 438.194 153.355V154.27C438.194 155.441 438.868 156.197 439.917 156.197ZM454.97 149.084C454.501 149.084 454.144 148.732 454.144 148.264C454.144 147.801 454.501 147.449 454.97 147.449C455.438 147.449 455.796 147.801 455.796 148.264C455.796 148.732 455.438 149.084 454.97 149.084ZM457.636 157H452.368V156.174H454.548V151.469H452.386V150.643H455.532V156.174H457.636V157ZM459.675 157V150.643H460.63V151.762H460.712C461.052 150.971 461.778 150.525 462.745 150.525C464.128 150.525 464.878 151.352 464.878 152.875V157H463.882V153.127C463.882 151.979 463.413 151.439 462.423 151.439C461.374 151.439 460.671 152.172 460.671 153.256V157H459.675ZM287.679 164.643L286.313 171H285.358L284.28 166.043H284.21L283.132 171H282.177L280.812 164.643H281.784L282.646 169.74H282.751L283.776 164.648H284.714L285.739 169.74H285.845L286.706 164.643H287.679ZM289.056 171V162.146H290.017V165.768H290.099C290.433 164.977 291.165 164.531 292.138 164.531C293.521 164.531 294.271 165.363 294.271 166.881V171H293.274V167.133C293.274 165.99 292.806 165.445 291.81 165.445C290.761 165.445 290.052 166.178 290.052 167.262V171H289.056ZM299.192 163.084C298.724 163.084 298.366 162.732 298.366 162.264C298.366 161.801 298.724 161.449 299.192 161.449C299.661 161.449 300.019 161.801 300.019 162.264C300.019 162.732 299.661 163.084 299.192 163.084ZM301.858 171H296.591V170.174H298.771V165.469H296.608V164.643H299.755V170.174H301.858V171ZM305.415 162.938H306.399V164.66H308.978V165.51H306.411V169.096C306.411 169.787 306.897 170.162 307.794 170.162C308.151 170.162 308.79 170.145 308.96 170.127V170.971C308.802 171 308.028 171.029 307.724 171.029C306.147 171.029 305.415 170.432 305.415 169.107V165.51H303.722V164.66H305.415V162.938ZM315.634 169.359H316.601C316.407 170.408 315.399 171.117 314.063 171.117C312.317 171.117 311.304 170.068 311.304 168.258V167.303C311.304 165.627 312.376 164.525 313.993 164.525C315.646 164.525 316.618 165.621 316.618 167.461V168.082H312.288V168.34C312.288 169.506 312.979 170.256 314.063 170.256C314.866 170.256 315.458 169.916 315.634 169.359ZM313.987 165.381C312.927 165.381 312.288 166.107 312.288 167.326H315.634C315.634 166.113 315.013 165.381 313.987 165.381ZM328.753 171.117C327.071 171.117 325.999 170.021 325.999 168.305V167.344C325.999 165.627 327.071 164.531 328.753 164.531C330.435 164.531 331.507 165.627 331.507 167.344V168.305C331.507 170.021 330.435 171.117 328.753 171.117ZM328.753 165.41C327.663 165.41 326.983 166.184 326.983 167.432V168.211C326.983 169.465 327.663 170.232 328.753 170.232C329.843 170.232 330.522 169.465 330.522 168.211V167.432C330.522 166.184 329.843 165.41 328.753 165.41ZM335.526 171.111C334.313 171.111 333.505 170.35 333.505 169.195C333.505 168.07 334.313 167.402 335.761 167.326L337.507 167.238V166.664C337.507 165.867 337.021 165.428 336.136 165.428C335.403 165.428 334.888 165.738 334.724 166.283H333.745C333.862 165.264 334.847 164.566 336.147 164.566C337.642 164.566 338.497 165.328 338.497 166.652V171.006H337.548V170.051H337.448C337.144 170.73 336.452 171.111 335.526 171.111ZM335.813 170.238C336.774 170.238 337.507 169.6 337.507 168.75V168L335.872 168.076C334.981 168.117 334.513 168.498 334.513 169.16C334.513 169.828 335.011 170.238 335.813 170.238ZM342.528 167.496L345.3 164.643H346.507L344.04 167.162L346.683 171H345.499L343.331 167.842L342.452 168.686V171H341.456V162.146H342.452V167.496H342.528ZM357.341 162.938H358.325V164.66H360.903V165.51H358.337V169.096C358.337 169.787 358.823 170.162 359.72 170.162C360.077 170.162 360.716 170.145 360.886 170.127V170.971C360.728 171 359.954 171.029 359.649 171.029C358.073 171.029 357.341 170.432 357.341 169.107V165.51H355.647V164.66H357.341V162.938ZM365.843 171.117C364.161 171.117 363.089 170.021 363.089 168.305V167.344C363.089 165.627 364.161 164.531 365.843 164.531C367.524 164.531 368.597 165.627 368.597 167.344V168.305C368.597 170.021 367.524 171.117 365.843 171.117ZM365.843 165.41C364.753 165.41 364.073 166.184 364.073 167.432V168.211C364.073 169.465 364.753 170.232 365.843 170.232C366.933 170.232 367.612 169.465 367.612 168.211V167.432C367.612 166.184 366.933 165.41 365.843 165.41ZM383.456 171H378.188V170.174H380.362V162.973H378.206V162.146H381.358V170.174H383.456V171ZM388.097 171.117C386.415 171.117 385.343 170.021 385.343 168.305V167.344C385.343 165.627 386.415 164.531 388.097 164.531C389.778 164.531 390.851 165.627 390.851 167.344V168.305C390.851 170.021 389.778 171.117 388.097 171.117ZM388.097 165.41C387.007 165.41 386.327 166.184 386.327 167.432V168.211C386.327 169.465 387.007 170.232 388.097 170.232C389.187 170.232 389.866 169.465 389.866 168.211V167.432C389.866 166.184 389.187 165.41 388.097 165.41ZM395.515 171.117C393.833 171.117 392.761 170.021 392.761 168.305V167.344C392.761 165.627 393.833 164.531 395.515 164.531C397.196 164.531 398.269 165.627 398.269 167.344V168.305C398.269 170.021 397.196 171.117 395.515 171.117ZM395.515 165.41C394.425 165.41 393.745 166.184 393.745 167.432V168.211C393.745 169.465 394.425 170.232 395.515 170.232C396.604 170.232 397.284 169.465 397.284 168.211V167.432C397.284 166.184 396.604 165.41 395.515 165.41ZM401.872 167.496L404.644 164.643H405.851L403.384 167.162L406.026 171H404.843L402.675 167.842L401.796 168.686V171H400.8V162.146H401.796V167.496H401.872ZM417.124 171.111C415.911 171.111 415.103 170.35 415.103 169.195C415.103 168.07 415.911 167.402 417.358 167.326L419.104 167.238V166.664C419.104 165.867 418.618 165.428 417.733 165.428C417.001 165.428 416.485 165.738 416.321 166.283H415.343C415.46 165.264 416.444 164.566 417.745 164.566C419.239 164.566 420.095 165.328 420.095 166.652V171.006H419.146V170.051H419.046C418.741 170.73 418.05 171.111 417.124 171.111ZM417.411 170.238C418.372 170.238 419.104 169.6 419.104 168.75V168L417.47 168.076C416.579 168.117 416.11 168.498 416.11 169.16C416.11 169.828 416.608 170.238 417.411 170.238ZM422.872 166.359C422.872 165.258 423.81 164.52 425.21 164.52C426.534 164.52 427.431 165.182 427.548 166.242H426.587C426.47 165.686 425.937 165.346 425.192 165.346C424.384 165.346 423.862 165.721 423.862 166.301C423.862 166.787 424.19 167.062 424.987 167.238L425.884 167.443C427.12 167.725 427.683 168.264 427.683 169.184C427.683 170.355 426.704 171.117 425.198 171.117C423.757 171.117 422.802 170.443 422.69 169.354H423.704C423.851 169.939 424.413 170.279 425.233 170.279C426.101 170.279 426.651 169.887 426.651 169.277C426.651 168.773 426.341 168.504 425.532 168.322L424.589 168.105C423.44 167.842 422.872 167.262 422.872 166.359ZM439.378 171.111C438.165 171.111 437.356 170.35 437.356 169.195C437.356 168.07 438.165 167.402 439.612 167.326L441.358 167.238V166.664C441.358 165.867 440.872 165.428 439.987 165.428C439.255 165.428 438.739 165.738 438.575 166.283H437.597C437.714 165.264 438.698 164.566 439.999 164.566C441.493 164.566 442.349 165.328 442.349 166.652V171.006H441.399V170.051H441.3C440.995 170.73 440.304 171.111 439.378 171.111ZM439.665 170.238C440.626 170.238 441.358 169.6 441.358 168.75V168L439.724 168.076C438.833 168.117 438.364 168.498 438.364 169.16C438.364 169.828 438.862 170.238 439.665 170.238ZM281.931 180.359C281.931 179.258 282.868 178.52 284.269 178.52C285.593 178.52 286.489 179.182 286.606 180.242H285.646C285.528 179.686 284.995 179.346 284.251 179.346C283.442 179.346 282.921 179.721 282.921 180.301C282.921 180.787 283.249 181.062 284.046 181.238L284.942 181.443C286.179 181.725 286.741 182.264 286.741 183.184C286.741 184.355 285.763 185.117 284.257 185.117C282.815 185.117 281.86 184.443 281.749 183.354H282.763C282.909 183.939 283.472 184.279 284.292 184.279C285.159 184.279 285.71 183.887 285.71 183.277C285.71 182.773 285.399 182.504 284.591 182.322L283.647 182.105C282.499 181.842 281.931 181.262 281.931 180.359ZM291.774 177.084C291.306 177.084 290.948 176.732 290.948 176.264C290.948 175.801 291.306 175.449 291.774 175.449C292.243 175.449 292.601 175.801 292.601 176.264C292.601 176.732 292.243 177.084 291.774 177.084ZM294.44 185H289.173V184.174H291.353V179.469H289.19V178.643H292.337V184.174H294.44V185ZM296.479 185V178.643H297.435V179.762H297.517C297.856 178.971 298.583 178.525 299.55 178.525C300.933 178.525 301.683 179.352 301.683 180.875V185H300.687V181.127C300.687 179.979 300.218 179.439 299.228 179.439C298.179 179.439 297.476 180.172 297.476 181.256V185H296.479ZM306.312 187.385C304.841 187.385 303.856 186.74 303.728 185.686H304.712C304.841 186.213 305.479 186.559 306.329 186.559C307.442 186.559 308.058 185.996 308.058 184.977V183.986H307.952C307.671 184.654 306.968 185.059 306.042 185.059C304.571 185.059 303.604 183.998 303.604 182.369V181.227C303.604 179.592 304.577 178.537 306.065 178.537C306.985 178.537 307.683 178.941 307.958 179.627H308.069V178.643H309.054V185C309.054 186.494 308.034 187.385 306.312 187.385ZM304.606 182.229C304.606 183.395 305.286 184.156 306.341 184.156C307.39 184.156 308.063 183.4 308.063 182.229V181.355C308.063 180.184 307.39 179.434 306.341 179.434C305.286 179.434 304.606 180.189 304.606 181.355V182.229ZM316.694 185H311.427V184.174H313.601V176.973H311.444V176.146H314.597V184.174H316.694V185ZM323.052 183.359H324.019C323.825 184.408 322.817 185.117 321.481 185.117C319.735 185.117 318.722 184.068 318.722 182.258V181.303C318.722 179.627 319.794 178.525 321.411 178.525C323.063 178.525 324.036 179.621 324.036 181.461V182.082H319.706V182.34C319.706 183.506 320.397 184.256 321.481 184.256C322.284 184.256 322.876 183.916 323.052 183.359ZM321.405 179.381C320.345 179.381 319.706 180.107 319.706 181.326H323.052C323.052 180.113 322.431 179.381 321.405 179.381ZM336.569 178.537C338.04 178.537 339.001 179.598 339.001 181.232V182.416C339.001 184.045 338.04 185.105 336.569 185.105C335.649 185.105 334.976 184.713 334.7 184.016H334.589V187.145H333.575V178.643H334.56V179.615H334.665C334.999 178.912 335.661 178.537 336.569 178.537ZM336.282 179.451C335.233 179.451 334.565 180.201 334.565 181.373V182.287C334.565 183.465 335.233 184.215 336.282 184.215C337.331 184.215 337.999 183.459 337.999 182.287V181.373C337.999 180.201 337.331 179.451 336.282 179.451ZM346.366 185H341.099V184.174H343.272V176.973H341.116V176.146H344.269V184.174H346.366V185ZM350.362 185.111C349.149 185.111 348.341 184.35 348.341 183.195C348.341 182.07 349.149 181.402 350.597 181.326L352.343 181.238V180.664C352.343 179.867 351.856 179.428 350.972 179.428C350.239 179.428 349.724 179.738 349.56 180.283H348.581C348.698 179.264 349.683 178.566 350.983 178.566C352.478 178.566 353.333 179.328 353.333 180.652V185.006H352.384V184.051H352.284C351.979 184.73 351.288 185.111 350.362 185.111ZM350.649 184.238C351.61 184.238 352.343 183.6 352.343 182.75V182L350.708 182.076C349.817 182.117 349.349 182.498 349.349 183.16C349.349 183.828 349.847 184.238 350.649 184.238ZM355.823 185V178.643H356.778V179.762H356.86C357.2 178.971 357.927 178.525 358.894 178.525C360.276 178.525 361.026 179.352 361.026 180.875V185H360.03V181.127C360.03 179.979 359.562 179.439 358.571 179.439C357.522 179.439 356.819 180.172 356.819 181.256V185H355.823ZM367.56 183.359H368.526C368.333 184.408 367.325 185.117 365.989 185.117C364.243 185.117 363.229 184.068 363.229 182.258V181.303C363.229 179.627 364.302 178.525 365.919 178.525C367.571 178.525 368.544 179.621 368.544 181.461V182.082H364.214V182.34C364.214 183.506 364.905 184.256 365.989 184.256C366.792 184.256 367.384 183.916 367.56 183.359ZM365.913 179.381C364.853 179.381 364.214 180.107 364.214 181.326H367.56C367.56 180.113 366.938 179.381 365.913 179.381ZM373.261 185.035C372.681 185.035 372.2 184.549 372.2 183.951C372.2 183.359 372.681 182.873 373.261 182.873C373.841 182.873 374.321 183.359 374.321 183.951C374.321 184.549 373.841 185.035 373.261 185.035Z" fill="white"/>
</svg>
