<svg preserveAspectRatio="none" width="1032" height="133" viewBox="0 0 1032 133" fill="none" xmlns="http://www.w3.org/2000/svg">
<path d="M282 131.999L282 117.008C282 115.201 284.206 114.321 285.45 115.63L297.791 128.621C299.002 129.895 298.099 131.999 296.341 131.999L282 131.999ZM282 131.999C282 131.999 305.672 110.904 310 102.499C353 18.9999 57.9634 32.9989 -3.85862e-08 32.999" stroke="#EDE4DA"/>
<path d="M626 131.999L626 117.008C626 115.201 628.206 114.321 629.45 115.631L641.791 128.621C643.002 129.895 642.099 131.999 640.341 131.999L626 131.999ZM626 131.999C626 131.999 649.672 110.904 654 102.499C697 19 89.9634 16.999 32 16.999" stroke="#EDE4DA"/>
<path d="M1002 131.999C1002 131.999 1025.67 110.904 1030 102.499C1073 19 105.963 0.998979 48 0.999023" stroke="#EDE4DA"/>
</svg>
