<svg width="308" height="119" viewBox="0 0 308 119" fill="none" xmlns="http://www.w3.org/2000/svg">
<path d="M1.79028 47.6909L67.3275 0.683594L249.655 22.5084L306.79 35.9391L297.548 44.1021V54.2907V61.1216L293.347 65.0753L284.945 72.9829L276.542 80.8904L239.573 115.684L232.011 114.429L225.289 113.314L29.822 80.8904L22.7958 79.7249L16.9143 78.7493V50.1064L1.79028 47.6909Z" fill="#6D6E99"/>
<path d="M248.815 87.1435L249.655 22.5084M248.815 87.1435L239.573 85.6673M248.815 87.1435L276.542 62.6544L284.945 55.2335L293.347 47.8125L297.548 44.1021M249.655 22.5084L67.3275 0.683594L1.79028 47.6909L16.9143 50.1064M249.655 22.5084L306.79 35.9391L297.548 44.1021M16.9143 50.1064V78.7493L22.7958 79.7249L29.822 80.8904L225.289 113.314L232.011 114.429L239.573 115.684M16.9143 50.1064L22.7958 51.0457L29.822 52.1679L225.289 83.3861L232.011 84.4596L239.573 85.6673M239.573 115.684V85.6673M239.573 115.684L276.542 80.8904L284.945 72.9829L293.347 65.0753L297.548 61.1216V54.2907V44.1021" stroke="white"/>
<path d="M215.007 82.3236L232.248 52.5036L248.846 23.7961C249.172 23.2318 249.942 23.1255 250.409 23.5805L283.97 56.2836M237.715 21.0036L220.474 50.8236L203.233 80.6436M225.941 19.3236L208.7 49.1436L191.945 78.1236M180.171 76.4436L196.926 47.4636L213.681 18.4836M168.397 74.7636L185.152 45.7836L201.551 17.4182M156.623 73.0836L173.378 44.1036L189.647 15.9636M145.204 70.789L161.603 42.4236L177.873 14.2836M133.56 68.8836L149.829 40.7436L166.099 12.6036M121.786 67.2036L138.055 39.0636L153.839 11.7636M110.012 65.5236L126.281 37.3836L142.065 10.0836M98.2377 63.8436L114.507 35.7036L130.291 8.40359M86.9493 61.3236L102.733 34.0236L118.292 7.1128M75.1752 59.6436L90.9589 32.3436L106.257 5.88359M63.6261 57.5743L79.1848 30.6636L94.4828 4.20359M51.6269 56.2836L67.4106 28.9836L82.7087 2.52359M40.0779 54.2143L55.6365 27.3036L70.4489 1.68359M28.5644 52.0836L43.8624 25.6236L51.6269 12.1938M16.7903 50.4036L30.1457 27.3036M226.782 84.0036L244.022 54.1836L249.12 45.3656M238.556 85.6836L248.754 68.0436L258.74 78.1236M249.489 44.5236L272.196 66.6504M293.421 47.4636L273.878 28.4202M300.79 41.5324L291.792 32.7636" stroke="white"/>
<path d="M211.838 108.805L210.6 114.122L215.967 115.801L217.343 114.904L215.967 109.505L215.003 107.266L211.838 108.805Z" fill="#8D8EB4"/>
<path d="M207.297 102.23L202.068 106.147L200.967 108.631L211.701 114.821L212.526 111.883L213.352 107.406L214.178 104.748L207.297 102.23Z" fill="#8D8EB4"/>
<path d="M198.638 95.3783L191.329 99.967L188.9 110.468L195.316 113.814L200.026 111.165L203.597 112.936L205.719 114.33L205.888 111.181L204.334 109.554L204.927 107.009L198.638 95.3783Z" fill="#8D8EB4"/>
<path d="M227 117.027L226.719 111.234L221.492 106.431L217.521 109.151L217.526 112.785L216.253 112.503L214.775 113.31L216.318 114.305L220.355 116.921L221.872 119L227 117.027Z" fill="#8D8EB4"/>
<path d="M194.884 110.895L192.547 105.604L185.957 103.068L184.234 105.072L185.541 108.455L185.087 110.826L184 112.125L185.794 112.48L188.659 113.258L190.816 114.632L194.884 110.895Z" fill="#8D8EB4"/>
<path d="M205.04 92.1654L207.38 113.422H210.388C210.277 107.147 211.725 96.0119 210.889 88.7239C210.189 82.6195 203.536 88.1165 205.04 92.1654Z" fill="#8D8EB4"/>
<path d="M192.87 92.4124L191.649 104.993H190.08C190.138 101.279 189.382 94.6889 189.818 90.3755C190.183 86.7628 193.654 90.0161 192.87 92.4124Z" fill="#8D8EB4"/>
<path d="M256.894 98.2178L251.661 99.0975L247.716 104.887L255.544 108.822L257.21 107.027L259.435 104.133L261 102.538L256.894 98.2178Z" fill="#8D8EB4"/>
</svg>
