<svg width="115" height="58" viewBox="0 0 115 58" fill="none" xmlns="http://www.w3.org/2000/svg">
<g clip-path="url(#clip0_514_483)">
<path d="M57.5857 21.1398L64.9003 17.6422L68.4721 19.564L67.2181 24.1571C69.175 22.3506 70.7709 21.1398 72.0059 20.5056C73.2408 19.8714 74.4757 19.564 75.7106 19.564C77.4585 19.564 78.8074 20.2366 79.7384 21.6011C80.6693 22.9655 81.1633 24.6183 81.1633 26.5978C81.1633 31.9788 79.3204 36.7641 75.6156 40.9344C72.3478 44.605 68.795 46.45 64.9383 46.45C64.2543 46.45 63.6654 46.3923 63.1904 46.2578C62.7154 46.1233 62.0315 45.835 61.1575 45.393L59.7136 50.4665C59.2006 52.3115 58.9346 53.6952 58.9346 54.6561C58.9346 55.2518 59.1436 55.7323 59.5426 56.0782C59.9416 56.4241 60.9105 56.7124 62.4114 56.9622L62.1645 58H47.1934L47.4783 56.9622C48.6563 56.9238 49.6632 56.5394 50.4422 55.8092C51.2211 55.0789 51.9621 53.503 52.646 51.0815L59.4286 27.4049C59.9226 25.6368 60.1886 24.3877 60.1886 23.6574C60.1886 23.3307 60.1126 23.0616 59.9606 22.8502C59.8086 22.6388 59.5806 22.4851 59.2956 22.389C59.0106 22.2929 58.3267 22.2545 57.3007 22.2545L57.6047 21.159L57.5857 21.1398ZM62.1265 41.9722C62.5634 42.9523 63.0004 43.6249 63.3994 43.9901C63.7983 44.3552 64.2923 44.5666 64.9003 44.6435C65.5082 44.7203 66.0782 44.6243 66.6862 44.3744C67.2941 44.1246 68.0541 43.548 69.004 42.664C69.954 41.78 70.9039 40.6077 71.8539 39.1663C72.8038 37.725 73.6208 36.0338 74.3237 34.1312C75.0267 32.2286 75.4826 30.3645 75.6916 28.5772C75.8626 27.1359 75.7296 26.0596 75.3116 25.3486C74.8937 24.6375 74.3047 24.2339 73.6018 24.1378C72.9558 24.061 72.3288 24.1378 71.7209 24.4069C70.8279 24.7913 67.9591 25.9828 66.6672 27.1743L62.1454 41.9914L62.1265 41.9722Z" fill="#FEC70B"/>
<path d="M87.2242 45.1239C85.1343 48.8906 83.1204 51.5812 81.1635 53.1763C80.0236 54.0987 78.8077 54.56 77.5158 54.5984C75.8059 54.6368 74.5709 53.945 73.773 52.5421C72.975 51.1392 72.5761 49.5441 72.5571 47.7568C72.5191 45.1047 73.26 42.0683 74.7989 38.609C76.3378 35.1498 78.3897 32.3631 80.9545 30.2299C83.0634 28.4619 85.0393 27.5586 86.9202 27.5394C87.9651 27.5394 88.8011 27.8085 89.447 28.4042C90.093 29 90.549 29.9801 90.8909 31.7097C91.0049 37.2637 87.2622 45.1239 87.2622 45.1239H87.2242ZM87.0342 34.4964C87.2812 32.9973 87.2432 31.8827 86.9012 31.1332C86.6542 30.6143 86.2362 30.3068 85.6663 30.2107C85.0963 30.1146 84.4693 30.2876 83.7664 30.7296C82.3415 31.6713 80.6316 33.7661 78.6177 37.0139C76.6038 40.2618 75.3879 43.1829 74.9509 45.7389C74.7799 46.719 74.8179 47.4493 75.0649 47.949C75.3119 48.4486 75.6349 48.7177 76.0148 48.7753C76.8318 48.9099 77.7437 48.5832 78.7507 47.776C80.1946 46.6229 81.5625 45.1239 82.8734 43.3174C85.1913 40.1465 86.5782 37.2061 87.0342 34.4964ZM97.2176 27.9814L91.8219 46.6998L91.2709 48.9867C91.2139 49.275 91.1949 49.4672 91.1949 49.6017C91.1949 49.8323 91.2709 50.0245 91.4229 50.1975C91.5749 50.3704 91.7459 50.4473 91.9169 50.4473C92.3159 50.4473 92.8478 50.1398 93.5318 49.5441C93.8168 49.2942 94.4817 48.4294 95.5267 46.9496L96.4956 47.4493C95.1847 49.89 93.7788 51.658 92.2779 52.7919C90.7769 53.9258 89.181 54.4639 87.4521 54.4639C86.3882 54.4639 85.5903 54.1948 85.0393 53.6375C84.4883 53.0802 84.2033 52.3883 84.2033 51.5427C84.2033 50.8125 84.5073 49.448 85.0963 47.4685L85.7613 45.1816L89.637 31.8443L90.644 28.385L94.8617 26.7323L97.2366 28.0007L97.2176 27.9814Z" fill="#FEC70B"/>
<path d="M115 2.30616L103.943 40.3194C103.297 42.5679 102.974 43.9708 102.974 44.5474C102.974 44.8357 103.069 45.0855 103.259 45.2969C103.449 45.5083 103.658 45.6044 103.886 45.6044C104.285 45.6044 104.665 45.4506 105.026 45.1239C106.09 44.2399 107.287 42.7601 108.598 40.6653L109.909 41.2803C107.8 44.7011 105.71 47.1418 103.658 48.6024C102.252 49.6017 100.77 50.0822 99.1934 50.0822C97.7305 50.0822 96.5526 49.6786 95.6976 48.8907C94.8427 48.1027 94.3867 47.1226 94.3867 46.008C94.3867 45.1816 94.6527 43.8363 95.1847 41.9914L104.19 10.8582C104.684 9.14778 104.931 8.01392 104.931 7.45659C104.931 6.89927 104.703 6.49569 104.228 6.16899C103.601 5.72697 102.651 5.53479 101.397 5.59245L101.758 4.30484L110.726 0L115 2.30616Z" fill="#FEC70B"/>
<path d="M53.8996 43.5288C52.8737 44.5089 51.6958 45.1816 50.3468 45.5467C48.9979 45.9119 47.706 45.9119 46.4521 45.4891C45.1982 45.0663 44.0962 44.3552 43.1463 43.3174C41.1704 41.2034 39.7835 38.5129 38.9855 35.2843C38.1876 32.0557 38.1686 28.9231 38.9475 25.8675C39.7265 22.8118 41.0754 20.3711 43.0323 18.5262C44.7992 16.8542 46.6421 16.0855 48.5989 16.2392C50.5558 16.393 52.2277 17.2194 53.6526 18.7568C55.3435 20.5825 56.5595 22.6196 57.3194 24.8873C58.0794 27.1551 58.4593 29.4228 58.4593 31.6521C58.4593 33.8814 58.0794 36.053 57.3194 38.167C56.5595 40.281 55.4195 42.049 53.8806 43.5288H53.8996ZM50.0999 43.4327C51.1448 42.8178 51.9047 42.1259 52.3797 41.3188C53.3107 39.7044 53.8046 36.9178 53.8806 32.9589C53.9566 29 53.3107 25.829 51.9617 23.4652C51.6198 22.8694 51.0688 22.562 50.3088 22.5043C49.5489 22.4467 48.7699 22.6388 48.029 23.0616C47.288 23.4844 46.6611 24.061 46.2431 24.7144C45.6351 25.6753 45.1412 27.328 44.7802 29.6726C44.4192 32.0172 44.3812 34.381 44.6662 36.7833C44.9512 39.1856 45.5401 41.1842 46.4521 42.7985C46.8321 43.452 47.364 43.8363 48.067 43.9132C48.7699 43.9901 49.4539 43.8363 50.0999 43.452V43.4327Z" fill="#FEC70B"/>
<path d="M21.8487 1.9218L16.643 23.9264C20.1388 17.5076 22.7606 13.1067 24.4895 10.7429C27.0354 7.32207 29.2202 4.99669 31.0821 3.76673C32.944 2.53678 34.6539 1.9218 36.2878 1.9218C37.7507 1.9218 38.9856 2.57522 40.0116 3.90126C41.0375 5.2273 41.5695 6.93771 41.5695 9.05169C41.5695 10.9735 41.2275 13.2989 40.5625 16.0278L35.1859 37.9364C34.7299 39.8582 34.5209 41.1074 34.5209 41.6839C34.5209 42.0298 34.6349 42.3373 34.8439 42.6064C35.0529 42.8754 35.2619 43.0099 35.4898 43.0099C35.7748 43.0099 36.0598 42.8754 36.3638 42.6064C37.3517 41.607 38.3397 40.2041 39.3466 38.3976C39.5936 37.9172 40.0116 37.2061 40.5625 36.2452L42.1584 37.4175C38.0547 45.8542 33.7229 50.0822 29.2012 50.0822C27.4723 50.0822 26.1044 49.5441 25.1355 48.4486C24.1665 47.3532 23.6726 45.9887 23.6726 44.336C23.6726 42.8946 24.0145 40.7614 24.6795 37.9172L29.9232 16.0086C30.2842 14.5673 30.4741 13.5103 30.4741 12.8376C30.4741 12.4533 30.3412 12.1266 30.0942 11.8383C29.8472 11.55 29.5432 11.3963 29.2202 11.3963C28.1563 11.3963 26.8644 12.2803 25.3635 14.0676C21.5067 18.5838 17.7639 25.2909 14.1731 34.2273L10.7343 49.4672H0L7.84652 16.5467C8.60648 13.2989 8.98645 10.9927 8.98645 9.62823C8.98645 9.05169 8.87246 8.55202 8.64447 8.16766C8.41649 7.7833 8.05551 7.47581 7.56154 7.2452C7.06757 7.01458 6.09863 6.91849 4.71171 6.91849L5.16769 4.97747L17.3839 0L21.8487 1.9218Z" fill="#FEC70B"/>
</g>
<defs>
<clipPath id="clip0_514_483">
<rect width="115" height="58" fill="white"/>
</clipPath>
</defs>
</svg>
