<svg width="155" height="93" viewBox="0 0 155 93" fill="none" xmlns="http://www.w3.org/2000/svg">
<path d="M131.713 91.3031C119.565 90.6589 114.029 86.6122 113.814 83.7866C113.581 80.7124 120.377 74.9136 130.639 72.1348C139.643 69.6967 147.602 74.8475 149.863 82.0508C152.123 89.2542 141.061 91.7989 131.713 91.3031Z" fill="#5DA06D"/>
<path fill-rule="evenodd" clip-rule="evenodd" d="M120.586 69.7339C139.389 69.7339 154.632 54.4908 154.632 35.6875C154.632 16.8842 139.389 1.64111 120.586 1.64111C101.783 1.64111 86.5396 16.8842 86.5396 35.6875C86.5396 54.4908 101.783 69.7339 120.586 69.7339ZM120.586 53.7112C130.541 53.7112 138.611 45.6413 138.611 35.6867C138.611 25.732 130.541 17.6621 120.586 17.6621C110.632 17.6621 102.562 25.732 102.562 35.6867C102.562 45.6413 110.632 53.7112 120.586 53.7112Z" fill="#3F2B46"/>
<path d="M0.793945 74.7401V90.762H47.3574V74.7401H32.8376V28.1767C34.8403 25.6733 47.3574 17.6624 58.3724 17.6624C67.1844 17.6624 68.8867 23.6705 68.8867 28.1767L69.3874 90.762H100.93V74.7401H84.9086V18.6637C84.9086 12.1549 77.3983 0.63916 62.8786 0.63916C51.2627 0.63916 37.6775 9.65144 32.8376 13.1562V2.64189H0.793945V17.6624H15.3137V74.7401H0.793945Z" fill="#3F2B46"/>
</svg>
