<svg width="155" height="94" viewBox="0 0 155 94" fill="none" xmlns="http://www.w3.org/2000/svg">
<path d="M131.713 91.4447C119.565 90.8005 114.029 86.7538 113.814 83.9282C113.581 80.854 120.377 75.0552 130.639 72.2764C139.643 69.8383 147.602 74.9891 149.863 82.1924C152.123 89.3958 141.061 91.9405 131.713 91.4447Z" fill="#3F2B46"/>
<path fill-rule="evenodd" clip-rule="evenodd" d="M120.586 69.8755C139.389 69.8755 154.632 54.6324 154.632 35.8291C154.632 17.0258 139.389 1.78271 120.586 1.78271C101.783 1.78271 86.5396 17.0258 86.5396 35.8291C86.5396 54.6324 101.783 69.8755 120.586 69.8755ZM120.586 53.8529C130.541 53.8529 138.611 45.783 138.611 35.8283C138.611 25.8736 130.541 17.8037 120.586 17.8037C110.632 17.8037 102.562 25.8736 102.562 35.8283C102.562 45.783 110.632 53.8529 120.586 53.8529Z" fill="#3F2B46"/>
<path d="M0.793945 74.8817V90.9036H47.3574V74.8817H32.8376V28.3183C34.8403 25.8149 47.3574 17.804 58.3724 17.804C67.1844 17.804 68.8867 23.8121 68.8867 28.3183L69.3874 90.9036H100.93V74.8817H84.9086V18.8053C84.9086 12.2965 77.3983 0.780762 62.8786 0.780762C51.2627 0.780762 37.6775 9.79304 32.8376 13.2978V2.78349H0.793945V17.804H15.3137V74.8817H0.793945Z" fill="#3F2B46"/>
</svg>
