<svg width="155" height="93" viewBox="0 0 155 93" fill="none" xmlns="http://www.w3.org/2000/svg">
<path d="M131.713 90.6659C119.565 90.0217 114.029 85.975 113.814 83.1494C113.581 80.0752 120.377 74.2764 130.639 71.4976C139.643 69.0595 147.602 74.2103 149.863 81.4136C152.123 88.617 141.061 91.1616 131.713 90.6659Z" fill="white"/>
<path fill-rule="evenodd" clip-rule="evenodd" d="M120.586 69.0967C139.389 69.0967 154.632 53.8536 154.632 35.0503C154.632 16.247 139.389 1.00391 120.586 1.00391C101.783 1.00391 86.5396 16.247 86.5396 35.0503C86.5396 53.8536 101.783 69.0967 120.586 69.0967ZM120.586 53.0744C130.541 53.0744 138.611 45.0045 138.611 35.0498C138.611 25.0951 130.541 17.0252 120.586 17.0252C110.632 17.0252 102.562 25.0951 102.562 35.0498C102.562 45.0045 110.632 53.0744 120.586 53.0744Z" fill="white"/>
<path d="M0.793945 74.1029V90.1248H47.3574V74.1029H32.8376V27.5395C34.8403 25.0361 47.3574 17.0252 58.3724 17.0252C67.1844 17.0252 68.8867 23.0333 68.8867 27.5395L69.3874 90.1248H100.93V74.1029H84.9086V18.0265C84.9086 11.5176 77.3983 0.00195312 62.8786 0.00195312C51.2627 0.00195312 37.6775 9.01423 32.8376 12.519V2.00468H0.793945V17.0252H15.3137V74.1029H0.793945Z" fill="white"/>
</svg>
