<svg width="155" height="94" viewBox="0 0 155 94" fill="none" xmlns="http://www.w3.org/2000/svg">
<path d="M131.713 91.6381C119.565 90.9939 114.029 86.9471 113.814 84.1215C113.581 81.0474 120.377 75.2485 130.639 72.4698C139.643 70.0317 147.602 75.1824 149.863 82.3858C152.123 89.5892 141.061 92.1338 131.713 91.6381Z" fill="#5DA06D"/>
<path fill-rule="evenodd" clip-rule="evenodd" d="M120.586 70.0689C139.389 70.0689 154.632 54.8258 154.632 36.0225C154.632 17.2192 139.389 1.97607 120.586 1.97607C101.783 1.97607 86.5396 17.2192 86.5396 36.0225C86.5396 54.8258 101.783 70.0689 120.586 70.0689ZM120.586 54.0465C130.541 54.0465 138.611 45.9766 138.611 36.0219C138.611 26.0672 130.541 17.9973 120.586 17.9973C110.632 17.9973 102.562 26.0672 102.562 36.0219C102.562 45.9766 110.632 54.0465 120.586 54.0465Z" fill="#F9F2DC"/>
<path d="M0.793945 75.0751V91.0969H47.3574V75.0751H32.8376V28.5116C34.8403 26.0082 47.3574 17.9973 58.3724 17.9973C67.1844 17.9973 68.8867 24.0055 68.8867 28.5116L69.3874 91.0969H100.93V75.0751H84.9086V18.9987C84.9086 12.4898 77.3983 0.974121 62.8786 0.974121C51.2627 0.974121 37.6775 9.9864 32.8376 13.4912V2.97685H0.793945V17.9973H15.3137V75.0751H0.793945Z" fill="#F9F2DC"/>
</svg>
