<svg width="388" height="169" viewBox="0 0 388 169" fill="none" xmlns="http://www.w3.org/2000/svg">
<path d="M341.525 112.516V128.537H387.588V112.516H374.07V0.362793H341.525V16.3846H357.547V112.516H341.525Z" fill="white"/>
<path fill-rule="evenodd" clip-rule="evenodd" d="M342.02 112.516V128.538H312.98V117.022C307.973 120.527 293.654 129.539 280.436 129.539C263.913 129.539 254.4 117.523 254.4 102.502C254.4 87.4816 263.913 73.4625 284.441 73.4625C299.462 73.4625 309.976 79.4707 311.979 81.4734V66.453C310.977 61.7799 306.371 52.4339 291.952 52.4339C277.532 52.4339 273.426 59.4434 271.924 62.4475L255.902 57.9414C258.907 51.2656 270.622 37.9141 293.454 37.9141C316.285 37.9141 325.664 51.9332 327.5 59.4434V112.516H342.02ZM311.682 98.7836C311.625 102.487 306.511 108.521 293.218 111.367C282.988 113.556 271.436 113.896 271.603 102.998C271.77 92.1002 279.299 86.7279 291.103 88.1775C302.908 89.6272 311.739 95.0797 311.682 98.7836Z" fill="white"/>
<path fill-rule="evenodd" clip-rule="evenodd" d="M148.627 168.593V152.571H164.649V55.4383H149.628V40.4179H181.672V53.4356C185.511 48.095 196.993 39.4165 212.214 39.4165C231.24 39.4165 255.272 51.4329 255.272 83.9772C255.272 116.522 231.74 130.541 212.214 130.541C196.592 130.541 185.344 121.862 181.672 117.523V152.571H197.694V168.593H148.627ZM209.711 115.52C225.472 115.52 238.25 101.846 238.25 84.9781C238.25 68.1104 225.472 54.4365 209.711 54.4365C193.949 54.4365 181.172 68.1104 181.172 84.9781C181.172 101.846 193.949 115.52 209.711 115.52Z" fill="white"/>
<path d="M131.464 129.079C119.316 128.434 113.78 124.388 113.565 121.562C113.332 118.488 120.128 112.689 130.39 109.91C139.394 107.472 147.353 112.623 149.614 119.826C151.874 127.03 140.812 129.574 131.464 129.079Z" fill="white"/>
<path fill-rule="evenodd" clip-rule="evenodd" d="M120.336 107.509C139.14 107.509 154.383 92.2657 154.383 73.4624C154.383 54.6591 139.14 39.416 120.336 39.416C101.533 39.416 86.29 54.6591 86.29 73.4624C86.29 92.2657 101.533 107.509 120.336 107.509ZM120.337 91.4864C130.292 91.4864 138.361 83.4165 138.361 73.4618C138.361 63.5071 130.292 55.4372 120.337 55.4372C110.382 55.4372 102.312 63.5071 102.312 73.4618C102.312 83.4165 110.382 91.4864 120.337 91.4864Z" fill="white"/>
<path d="M0.544922 112.516V128.537H47.1084V112.516H32.5886V65.9521C34.5913 63.4487 47.1084 55.4377 58.1234 55.4377C66.9354 55.4377 68.6377 61.4459 68.6377 65.9521L69.1384 128.537H100.681V112.516H84.6596V56.4391C84.6596 49.9302 77.1493 38.4146 62.6295 38.4146C51.0137 38.4146 37.4285 47.4268 32.5886 50.9316V40.4173H0.544922V55.4377H15.0647V112.516H0.544922Z" fill="white"/>
</svg>
