<svg width="388" height="169" viewBox="0 0 388 169" fill="none" xmlns="http://www.w3.org/2000/svg">
<path d="M341.525 112.294V128.316H387.588V112.294H374.07V0.141602H341.525V16.1634H357.547V112.294H341.525Z" fill="#3F2B46"/>
<path fill-rule="evenodd" clip-rule="evenodd" d="M342.02 112.295V128.316H312.98V116.801C307.973 120.305 293.654 129.318 280.436 129.318C263.913 129.318 254.4 117.301 254.4 102.281C254.4 87.2604 263.913 73.2413 284.441 73.2413C299.462 73.2413 309.976 79.2495 311.979 81.2522V66.2318C310.977 61.5587 306.371 52.2127 291.952 52.2127C277.532 52.2127 273.426 59.2222 271.924 62.2263L255.902 57.7202C258.907 51.0444 270.622 37.6929 293.454 37.6929C316.285 37.6929 325.664 51.712 327.5 59.2222V112.295H342.02ZM311.682 98.562C311.625 102.266 306.511 108.3 293.218 111.145C282.988 113.335 271.436 113.674 271.603 102.776C271.77 91.8787 279.299 86.5064 291.103 87.956C302.908 89.4057 311.739 94.8582 311.682 98.562Z" fill="#3F2B46"/>
<path fill-rule="evenodd" clip-rule="evenodd" d="M148.627 168.371V152.35H164.649V55.2171H149.628V40.1967H181.672V53.2144C185.511 47.8738 196.993 39.1953 212.214 39.1953C231.24 39.1953 255.272 51.2117 255.272 83.756C255.272 116.3 231.74 130.32 212.214 130.32C196.592 130.32 185.344 121.641 181.672 117.302V152.35H197.694V168.371H148.627ZM209.711 115.299C225.472 115.299 238.25 101.625 238.25 84.7571C238.25 67.8894 225.472 54.2155 209.711 54.2155C193.949 54.2155 181.172 67.8894 181.172 84.7571C181.172 101.625 193.949 115.299 209.711 115.299Z" fill="#3F2B46"/>
<path d="M131.464 128.857C119.316 128.213 113.78 124.166 113.565 121.341C113.332 118.267 120.128 112.468 130.39 109.689C139.394 107.251 147.353 112.402 149.614 119.605C151.874 126.808 140.812 129.353 131.464 128.857Z" fill="#3F2B46"/>
<path fill-rule="evenodd" clip-rule="evenodd" d="M120.336 107.288C139.14 107.288 154.383 92.045 154.383 73.2417C154.383 54.4384 139.14 39.1953 120.336 39.1953C101.533 39.1953 86.29 54.4384 86.29 73.2417C86.29 92.045 101.533 107.288 120.336 107.288ZM120.337 91.2657C130.292 91.2657 138.361 83.1958 138.361 73.2411C138.361 63.2864 130.292 55.2165 120.337 55.2165C110.382 55.2165 102.312 63.2864 102.312 73.2411C102.312 83.1958 110.382 91.2657 120.337 91.2657Z" fill="#3F2B46"/>
<path d="M0.544922 112.294V128.316H47.1084V112.294H32.5886V65.7309C34.5913 63.2275 47.1084 55.2166 58.1234 55.2166C66.9354 55.2166 68.6377 61.2247 68.6377 65.7309L69.1384 128.316H100.681V112.294H84.6596V56.2179C84.6596 49.7091 77.1493 38.1934 62.6295 38.1934C51.0137 38.1934 37.4285 47.2056 32.5886 50.7104V40.1961H0.544922V55.2166H15.0647V112.294H0.544922Z" fill="#3F2B46"/>
</svg>
