<svg width="599" height="169" viewBox="0 0 599 169" fill="none" xmlns="http://www.w3.org/2000/svg">
<path d="M340.98 112.153V128.175H387.043V112.153H373.525V0H340.98V16.0218H357.002V112.153H340.98Z" fill="#3F2B46"/>
<path fill-rule="evenodd" clip-rule="evenodd" d="M341.475 112.153V128.175H312.435V116.659C307.428 120.164 293.109 129.176 279.891 129.176C263.368 129.176 253.855 117.16 253.855 102.139C253.855 87.1186 263.368 73.0995 283.896 73.0995C298.917 73.0995 309.431 79.1077 311.434 81.1104V66.0899C310.433 61.4169 305.826 52.0708 291.407 52.0708C276.987 52.0708 272.881 59.0804 271.379 62.0845L255.358 57.5783C258.362 50.9026 270.078 37.551 292.909 37.551C315.74 37.551 325.119 51.5701 326.955 59.0804V112.153H341.475ZM311.137 98.4202C311.081 102.124 305.966 108.158 292.673 111.003C282.443 113.193 270.892 113.532 271.058 102.635C271.225 91.7368 278.754 86.3645 290.558 87.8141C302.363 89.2638 311.194 94.7163 311.137 98.4202Z" fill="#3F2B46"/>
<path fill-rule="evenodd" clip-rule="evenodd" d="M148.082 168.23V152.208H164.104V55.0755H149.083V40.0551H181.127V53.0728C184.966 47.7322 196.448 39.0537 211.669 39.0537C230.695 39.0537 254.727 51.0701 254.727 83.6144C254.727 116.159 231.195 130.178 211.669 130.178C196.047 130.178 184.799 121.499 181.127 117.16V152.208H197.149V168.23H148.082ZM209.166 115.157C224.927 115.157 237.705 101.483 237.705 84.6154C237.705 67.7478 224.927 54.0738 209.166 54.0738C193.404 54.0738 180.627 67.7478 180.627 84.6154C180.627 101.483 193.404 115.157 209.166 115.157Z" fill="#3F2B46"/>
<path d="M130.92 128.716C118.772 128.072 113.235 124.025 113.021 121.199C112.788 118.125 119.584 112.326 129.846 109.547C138.85 107.109 146.809 112.26 149.069 119.463C151.33 126.667 140.267 129.211 130.92 128.716Z" fill="#5DA06D"/>
<path fill-rule="evenodd" clip-rule="evenodd" d="M119.792 107.146C138.595 107.146 153.838 91.9032 153.838 73.0999C153.838 54.2966 138.595 39.0535 119.792 39.0535C100.988 39.0535 85.7451 54.2966 85.7451 73.0999C85.7451 91.9032 100.988 107.146 119.792 107.146ZM119.792 91.1238C129.747 91.1238 137.817 83.0539 137.817 73.0993C137.817 63.1446 129.747 55.0747 119.792 55.0747C109.837 55.0747 101.767 63.1446 101.767 73.0993C101.767 83.0539 109.837 91.1238 119.792 91.1238Z" fill="#3F2B46"/>
<path d="M0 112.152V128.174H46.5635V112.152H32.0437V65.589C34.0464 63.0856 46.5635 55.0747 57.5785 55.0747C66.3905 55.0747 68.0928 61.0829 68.0928 65.589L68.5935 128.174H100.136V112.152H84.1146V56.0761C84.1146 49.5672 76.6044 38.0515 62.0846 38.0515C50.4688 38.0515 36.8836 47.0638 32.0437 50.5686V40.0542H0V55.0747H14.5198V112.152H0Z" fill="#3F2B46"/>
<path d="M394.141 128V118.648H403.527V128H394.141ZM438.684 90.0664C442.082 90.0664 445.152 90.9336 447.895 92.668C450.637 94.3789 452.77 96.6992 454.293 99.6289C455.84 102.559 456.613 105.723 456.613 109.121C456.613 112.637 455.828 115.883 454.258 118.859C452.711 121.836 450.566 124.215 447.824 125.996C445.082 127.754 442.012 128.633 438.613 128.633C435.918 128.633 433.352 128.082 430.914 126.98C428.5 125.879 426.602 124.367 425.219 122.445V128H411.613V121.531H418.152V81.418H411.613V75.0195H425.219V96.3242C428.922 92.1523 433.41 90.0664 438.684 90.0664ZM437.172 122.164C439.469 122.164 441.52 121.543 443.324 120.301C445.129 119.059 446.523 117.43 447.508 115.414C448.492 113.398 448.984 111.254 448.984 108.98C448.984 106.73 448.48 104.668 447.473 102.793C446.465 100.918 445.07 99.4297 443.289 98.3281C441.508 97.2266 439.492 96.6758 437.242 96.6758C434.992 96.6758 432.977 97.25 431.195 98.3984C429.414 99.5469 428.02 101.105 427.012 103.074C426.004 105.043 425.5 107.234 425.5 109.648C425.5 111.945 426.016 114.055 427.047 115.977C428.078 117.898 429.484 119.41 431.266 120.512C433.047 121.613 435.016 122.164 437.172 122.164ZM478.691 122.305C481.949 122.305 485.477 120.723 489.273 117.559V97.5547H482.734V91.0508H496.551V121.531H502.879V128H489.273V123.746C485.008 127.004 480.953 128.633 477.109 128.633C473.641 128.633 471.074 127.602 469.41 125.539C467.77 123.477 466.949 120.055 466.949 115.273V97.5547H461.781V91.0508H474.227V116.785C474.227 118.684 474.566 120.078 475.246 120.969C475.949 121.859 477.098 122.305 478.691 122.305ZM519.719 78.6055C519.719 79.8008 519.285 80.832 518.418 81.6992C517.551 82.5664 516.52 83 515.324 83C514.129 83 513.109 82.5664 512.266 81.6992C511.422 80.832 511 79.8008 511 78.6055C511 77.4102 511.422 76.3789 512.266 75.5117C513.109 74.6445 514.129 74.2109 515.324 74.2109C516.566 74.2109 517.609 74.6328 518.453 75.4766C519.297 76.3203 519.719 77.3633 519.719 78.6055ZM524.922 121.531V128H506.254V121.531H512.02V97.5547H506.254V91.0508H519.297V121.531H524.922ZM547.352 121.531V128H527.91V121.531H534.449V81.418H527.91V75.0195H541.727V121.531H547.352ZM597.625 121.531V128H583.738V122.586C580.035 126.617 575.617 128.633 570.484 128.633C566.922 128.633 563.77 127.801 561.027 126.137C558.309 124.449 556.188 122.164 554.664 119.281C553.164 116.398 552.414 113.211 552.414 109.719C552.414 106.156 553.211 102.875 554.805 99.875C556.422 96.875 558.648 94.4961 561.484 92.7383C564.32 90.957 567.391 90.0664 570.695 90.0664C573.086 90.0664 575.348 90.5469 577.48 91.5078C579.637 92.4688 581.723 93.9805 583.738 96.043V81.418H576.602V75.0195H590.945V121.531H597.625ZM571.855 122.164C574.105 122.164 576.133 121.566 577.938 120.371C579.742 119.176 581.16 117.582 582.191 115.59C583.223 113.598 583.738 111.465 583.738 109.191C583.738 106.895 583.223 104.797 582.191 102.898C581.16 101 579.73 99.5 577.902 98.3984C576.074 97.2969 574.012 96.7461 571.715 96.7461C569.488 96.7461 567.496 97.3438 565.738 98.5391C564.004 99.7109 562.633 101.281 561.625 103.25C560.617 105.195 560.113 107.281 560.113 109.508C560.113 111.898 560.629 114.055 561.66 115.977C562.691 117.898 564.098 119.41 565.879 120.512C567.66 121.613 569.652 122.164 571.855 122.164Z" fill="#3F2B46"/>
</svg>
