<svg width="388" height="169" viewBox="0 0 388 169" fill="none" xmlns="http://www.w3.org/2000/svg">
<path d="M341.525 112.488V128.51H387.588V112.488H374.07V0.334961H341.525V16.3568H357.547V112.488H341.525Z" fill="#F9F2DC"/>
<path fill-rule="evenodd" clip-rule="evenodd" d="M342.02 112.488V128.51H312.98V116.994C307.973 120.499 293.654 129.511 280.436 129.511C263.913 129.511 254.4 117.495 254.4 102.474C254.4 87.4538 263.913 73.4347 284.441 73.4347C299.462 73.4347 309.976 79.4429 311.979 81.4456V66.4251C310.977 61.7521 306.371 52.406 291.952 52.406C277.532 52.406 273.426 59.4156 271.924 62.4197L255.902 57.9135C258.907 51.2378 270.622 37.8862 293.454 37.8862C316.285 37.8862 325.664 51.9053 327.5 59.4156V112.488H342.02ZM311.682 98.7557C311.625 102.46 306.511 108.493 293.218 111.339C282.988 113.528 271.436 113.868 271.603 102.97C271.77 92.0723 279.299 86.7 291.103 88.1496C302.908 89.5993 311.739 95.0518 311.682 98.7557Z" fill="#F9F2DC"/>
<path fill-rule="evenodd" clip-rule="evenodd" d="M148.627 168.565V152.543H164.649V55.4105H149.628V40.39H181.672V53.4078C185.511 48.0672 196.993 39.3887 212.214 39.3887C231.24 39.3887 255.272 51.405 255.272 83.9494C255.272 116.494 231.74 130.513 212.214 130.513C196.592 130.513 185.344 121.834 181.672 117.495V152.543H197.694V168.565H148.627ZM209.711 115.492C225.472 115.492 238.25 101.818 238.25 84.9507C238.25 68.083 225.472 54.4091 209.711 54.4091C193.949 54.4091 181.172 68.083 181.172 84.9507C181.172 101.818 193.949 115.492 209.711 115.492Z" fill="#F9F2DC"/>
<path d="M131.464 129.051C119.316 128.406 113.78 124.36 113.565 121.534C113.332 118.46 120.128 112.661 130.39 109.882C139.394 107.444 147.353 112.595 149.614 119.798C151.874 127.002 140.812 129.546 131.464 129.051Z" fill="#5DA06D"/>
<path fill-rule="evenodd" clip-rule="evenodd" d="M120.336 107.481C139.14 107.481 154.383 92.2384 154.383 73.4351C154.383 54.6318 139.14 39.3887 120.336 39.3887C101.533 39.3887 86.29 54.6318 86.29 73.4351C86.29 92.2384 101.533 107.481 120.336 107.481ZM120.337 91.459C130.292 91.459 138.361 83.3891 138.361 73.4345C138.361 63.4798 130.292 55.4099 120.337 55.4099C110.382 55.4099 102.312 63.4798 102.312 73.4345C102.312 83.3891 110.382 91.459 120.337 91.459Z" fill="#F9F2DC"/>
<path d="M0.544922 112.488V128.51H47.1084V112.488H32.5886V65.9242C34.5913 63.4208 47.1084 55.4099 58.1234 55.4099C66.9354 55.4099 68.6377 61.4181 68.6377 65.9242L69.1384 128.51H100.681V112.488H84.6596V56.4113C84.6596 49.9024 77.1493 38.3867 62.6295 38.3867C51.0137 38.3867 37.4285 47.399 32.5886 50.9038V40.3894H0.544922V55.4099H15.0647V112.488H0.544922Z" fill="#F9F2DC"/>
</svg>
