<svg width="388" height="169" viewBox="0 0 388 169" fill="none" xmlns="http://www.w3.org/2000/svg">
<path d="M341.525 112.153V128.175H387.588V112.153H374.07V0H341.525V16.0218H357.547V112.153H341.525Z" fill="#3F2B46"/>
<path fill-rule="evenodd" clip-rule="evenodd" d="M342.02 112.153V128.175H312.98V116.659C307.973 120.164 293.654 129.176 280.436 129.176C263.913 129.176 254.4 117.16 254.4 102.139C254.4 87.1188 263.913 73.0997 284.441 73.0997C299.462 73.0997 309.976 79.1079 311.979 81.1106V66.0902C310.977 61.4171 306.371 52.0711 291.952 52.0711C277.532 52.0711 273.426 59.0806 271.924 62.0847L255.902 57.5786C258.907 50.9028 270.622 37.5513 293.454 37.5513C316.285 37.5513 325.664 51.5704 327.5 59.0806V112.153H342.02ZM311.682 98.4204C311.625 102.124 306.511 108.158 293.218 111.004C282.988 113.193 271.436 113.533 271.603 102.635C271.77 91.7371 279.299 86.3647 291.103 87.8143C302.908 89.264 311.739 94.7166 311.682 98.4204Z" fill="#3F2B46"/>
<path fill-rule="evenodd" clip-rule="evenodd" d="M148.627 168.23V152.208H164.649V55.0755H149.628V40.0551H181.672V53.0728C185.511 47.7322 196.993 39.0537 212.214 39.0537C231.24 39.0537 255.272 51.0701 255.272 83.6144C255.272 116.159 231.74 130.178 212.214 130.178C196.592 130.178 185.344 121.499 181.672 117.16V152.208H197.694V168.23H148.627ZM209.711 115.157C225.472 115.157 238.25 101.483 238.25 84.6154C238.25 67.7478 225.472 54.0738 209.711 54.0738C193.949 54.0738 181.172 67.7478 181.172 84.6154C181.172 101.483 193.949 115.157 209.711 115.157Z" fill="#3F2B46"/>
<path d="M131.464 128.716C119.316 128.072 113.78 124.025 113.565 121.199C113.332 118.125 120.128 112.326 130.39 109.547C139.394 107.109 147.353 112.26 149.614 119.463C151.874 126.667 140.812 129.211 131.464 128.716Z" fill="#5DA06D"/>
<path fill-rule="evenodd" clip-rule="evenodd" d="M120.336 107.147C139.14 107.147 154.383 91.9034 154.383 73.1001C154.383 54.2968 139.14 39.0537 120.336 39.0537C101.533 39.0537 86.29 54.2968 86.29 73.1001C86.29 91.9034 101.533 107.147 120.336 107.147ZM120.337 91.1241C130.292 91.1241 138.361 83.0542 138.361 73.0995C138.361 63.1448 130.292 55.0749 120.337 55.0749C110.382 55.0749 102.312 63.1448 102.312 73.0995C102.312 83.0542 110.382 91.1241 120.337 91.1241Z" fill="#3F2B46"/>
<path d="M0.544922 112.153V128.175H47.1084V112.153H32.5886V65.5893C34.5913 63.0859 47.1084 55.075 58.1234 55.075C66.9354 55.075 68.6377 61.0831 68.6377 65.5893L69.1384 128.175H100.681V112.153H84.6596V56.0763C84.6596 49.5675 77.1493 38.0518 62.6295 38.0518C51.0137 38.0518 37.4285 47.064 32.5886 50.5688V40.0545H0.544922V55.075H15.0647V112.153H0.544922Z" fill="#3F2B46"/>
</svg>
