<?xml version="1.0" standalone="no"?>
<!DOCTYPE svg PUBLIC "-//W3C//DTD SVG 20010904//EN"
 "http://www.w3.org/TR/2001/REC-SVG-20010904/DTD/svg10.dtd">
<svg version="1.0" xmlns="http://www.w3.org/2000/svg"
 width="260.000000pt" height="260.000000pt" viewBox="0 0 260.000000 260.000000"
 preserveAspectRatio="xMidYMid meet">
<metadata>
Created by potrace 1.14, written by Peter Selinger 2001-2017
</metadata>
<g transform="translate(0.000000,260.000000) scale(0.100000,-0.100000)"
fill="#000000" stroke="none">
<path d="M890 2056 c-97 -33 -195 -82 -285 -143 l-50 -33 -5 88 -5 88 -273 0
-272 0 0 -130 0 -131 122 0 123 0 3 -487 2 -488 -125 0 -125 0 0 -138 0 -137
398 0 397 0 1 138 1 137 -123 0 -124 0 0 403 0 403 68 44 c37 25 104 59 148
77 191 77 332 64 380 -35 21 -43 21 -40 26 -699 2 -298 6 -464 13 -466 5 -2
127 -3 270 -3 l260 1 1 138 0 137 -137 0 -137 0 0 278 0 277 17 -55 c90 -283
355 -448 653 -406 159 22 331 143 412 289 103 185 97 423 -15 597 -72 111
-177 195 -305 242 -49 19 -80 22 -184 23 -79 0 -140 -5 -165 -14 -190 -63
-337 -208 -396 -389 l-18 -57 0 100 c0 111 -6 142 -46 209 -35 60 -85 102
-165 140 -56 26 -78 31 -155 32 -78 2 -102 -2 -185 -30z m1256 -287 c64 -31
120 -89 152 -157 67 -146 2 -327 -144 -398 -163 -80 -361 -3 -425 166 -29 76
-22 190 14 253 66 112 168 168 293 162 37 -2 80 -13 110 -26z"/>
<path d="M2210 869 c-95 -18 -211 -77 -267 -136 -60 -62 -56 -93 20 -137 163
-95 494 -75 549 33 15 29 15 37 2 75 -40 118 -173 189 -304 165z"/>
</g>
</svg>
